<svg width="1092" height="1080" viewBox="0 0 1092 1080" fill="none" xmlns="http://www.w3.org/2000/svg">
<path opacity="0.05" d="M0 -2L45.9072 43.985" stroke="#66EB71"/>
<path opacity="0.07" d="M45.9072 -2L91.8144 43.985" stroke="#66EB71"/>
<path opacity="0.1" d="M137.722 -2L91.8145 43.985" stroke="#66EB71"/>
<path opacity="0.12" d="M137.722 -2L183.629 43.985" stroke="#66EB71"/>
<path opacity="0.14" d="M229.536 -2L183.629 43.985" stroke="#66EB71"/>
<path opacity="0.16" d="M275.443 -2L229.536 43.985" stroke="#66EB71"/>
<path opacity="0.19" d="M275.443 -2L321.35 43.985" stroke="#66EB71"/>
<path opacity="0.21" d="M321.35 -2L367.257 43.985" stroke="#66EB71"/>
<path opacity="0.23" d="M367.257 -2L413.164 43.985" stroke="#66EB71"/>
<path opacity="0.25" d="M459.072 -2L413.165 43.985" stroke="#66EB71"/>
<path opacity="0.28" d="M504.979 -2L459.072 43.985" stroke="#66EB71"/>
<path opacity="0.3" d="M504.979 -2L550.886 43.985" stroke="#66EB71"/>
<path opacity="0.32" d="M550.886 -2L596.793 43.985" stroke="#66EB71"/>
<path opacity="0.35" d="M596.793 -2L642.701 43.985" stroke="#66EB71"/>
<path opacity="0.37" d="M642.7 -2L688.607 43.985" stroke="#66EB71"/>
<path opacity="0.39" d="M688.607 -2L734.515 43.985" stroke="#66EB71"/>
<path opacity="0.41" d="M780.422 -2L734.515 43.985" stroke="#66EB71"/>
<path opacity="0.44" d="M780.422 -2L826.329 43.985" stroke="#66EB71"/>
<path opacity="0.46" d="M872.236 -2L826.329 43.985" stroke="#66EB71"/>
<path opacity="0.48" d="M872.236 -2L918.144 43.985" stroke="#66EB71"/>
<path opacity="0.5" d="M918.144 -2L964.051 43.985" stroke="#66EB71"/>
<path opacity="0.53" d="M1009.96 -2L964.051 43.985" stroke="#66EB71"/>
<path opacity="0.55" d="M1055.87 -2L1009.96 43.985" stroke="#66EB71"/>
<path opacity="0.57" d="M1055.87 -2L1101.77 43.985" stroke="#66EB71"/>
<path opacity="0.05" d="M0 43.9851L45.9072 89.9701" stroke="#66EB71"/>
<path opacity="0.07" d="M91.8144 43.9851L45.9072 89.9701" stroke="#66EB71"/>
<path opacity="0.1" d="M137.722 43.9851L91.8145 89.9701" stroke="#66EB71"/>
<path opacity="0.12" d="M183.629 43.9851L137.722 89.9701" stroke="#66EB71"/>
<path opacity="0.14" d="M229.536 43.9851L183.629 89.9701" stroke="#66EB71"/>
<path opacity="0.16" d="M275.443 43.9851L229.536 89.9701" stroke="#66EB71"/>
<path opacity="0.19" d="M321.35 43.9851L275.443 89.9701" stroke="#66EB71"/>
<path opacity="0.21" d="M321.35 43.9851L367.257 89.9701" stroke="#66EB71"/>
<path opacity="0.23" d="M413.164 43.9851L367.257 89.9701" stroke="#66EB71"/>
<path opacity="0.25" d="M459.072 43.9851L413.165 89.9701" stroke="#66EB71"/>
<path opacity="0.28" d="M504.979 43.9851L459.072 89.9701" stroke="#66EB71"/>
<path opacity="0.3" d="M550.886 43.9851L504.979 89.9701" stroke="#66EB71"/>
<path opacity="0.32" d="M550.886 43.9851L596.793 89.9701" stroke="#66EB71"/>
<path opacity="0.35" d="M642.701 43.9851L596.793 89.9701" stroke="#66EB71"/>
<path opacity="0.37" d="M642.7 43.9851L688.607 89.9701" stroke="#66EB71"/>
<path opacity="0.39" d="M734.515 43.9851L688.607 89.9701" stroke="#66EB71"/>
<path opacity="0.41" d="M780.422 43.9851L734.515 89.9701" stroke="#66EB71"/>
<path opacity="0.44" d="M826.329 43.9851L780.422 89.9701" stroke="#66EB71"/>
<path opacity="0.46" d="M872.236 43.9851L826.329 89.9701" stroke="#66EB71"/>
<path opacity="0.48" d="M918.144 43.9851L872.236 89.9701" stroke="#66EB71"/>
<path opacity="0.5" d="M964.051 43.9851L918.144 89.9701" stroke="#66EB71"/>
<path opacity="0.53" d="M964.051 43.9851L1009.96 89.9701" stroke="#66EB71"/>
<path opacity="0.55" d="M1055.87 43.9851L1009.96 89.9701" stroke="#66EB71"/>
<path opacity="0.57" d="M1055.87 43.9851L1101.77 89.9701" stroke="#66EB71"/>
<path opacity="0.05" d="M0 89.9702L45.9072 135.955" stroke="#66EB71"/>
<path opacity="0.07" d="M91.8144 89.9702L45.9072 135.955" stroke="#66EB71"/>
<path opacity="0.1" d="M91.8145 89.9702L137.722 135.955" stroke="#66EB71"/>
<path opacity="0.12" d="M137.722 89.9702L183.629 135.955" stroke="#66EB71"/>
<path opacity="0.14" d="M229.536 89.9702L183.629 135.955" stroke="#66EB71"/>
<path opacity="0.16" d="M229.536 89.9702L275.443 135.955" stroke="#66EB71"/>
<path opacity="0.19" d="M321.35 89.9702L275.443 135.955" stroke="#66EB71"/>
<path opacity="0.21" d="M367.257 89.9702L321.35 135.955" stroke="#66EB71"/>
<path opacity="0.23" d="M367.257 89.9702L413.164 135.955" stroke="#66EB71"/>
<path opacity="0.25" d="M459.072 89.9702L413.165 135.955" stroke="#66EB71"/>
<path opacity="0.28" d="M459.072 89.9702L504.979 135.955" stroke="#66EB71"/>
<path opacity="0.3" d="M550.886 89.9702L504.979 135.955" stroke="#66EB71"/>
<path opacity="0.32" d="M596.793 89.9702L550.886 135.955" stroke="#66EB71"/>
<path opacity="0.35" d="M596.793 89.9702L642.701 135.955" stroke="#66EB71"/>
<path opacity="0.37" d="M688.607 89.9702L642.7 135.955" stroke="#66EB71"/>
<path opacity="0.39" d="M688.607 89.9702L734.515 135.955" stroke="#66EB71"/>
<path opacity="0.41" d="M734.515 89.9702L780.422 135.955" stroke="#66EB71"/>
<path opacity="0.44" d="M826.329 89.9702L780.422 135.955" stroke="#66EB71"/>
<path opacity="0.46" d="M826.329 89.9702L872.236 135.955" stroke="#66EB71"/>
<path opacity="0.48" d="M872.236 89.9702L918.144 135.955" stroke="#66EB71"/>
<path opacity="0.5" d="M964.051 89.9702L918.144 135.955" stroke="#66EB71"/>
<path opacity="0.53" d="M964.051 89.9702L1009.96 135.955" stroke="#66EB71"/>
<path opacity="0.55" d="M1009.96 89.9702L1055.87 135.955" stroke="#66EB71"/>
<path opacity="0.57" d="M1055.87 89.9702L1101.77 135.955" stroke="#66EB71"/>
<path opacity="0.05" d="M0 135.955L45.9072 181.94" stroke="#66EB71"/>
<path opacity="0.07" d="M45.9072 135.955L91.8144 181.94" stroke="#66EB71"/>
<path opacity="0.1" d="M91.8145 135.955L137.722 181.94" stroke="#66EB71"/>
<path opacity="0.12" d="M137.722 135.955L183.629 181.94" stroke="#66EB71"/>
<path opacity="0.14" d="M183.629 135.955L229.536 181.94" stroke="#66EB71"/>
<path opacity="0.16" d="M275.443 135.955L229.536 181.94" stroke="#66EB71"/>
<path opacity="0.19" d="M275.443 135.955L321.35 181.94" stroke="#66EB71"/>
<path opacity="0.21" d="M367.257 135.955L321.35 181.94" stroke="#66EB71"/>
<path opacity="0.23" d="M367.257 135.955L413.164 181.94" stroke="#66EB71"/>
<path opacity="0.25" d="M413.165 135.955L459.072 181.94" stroke="#66EB71"/>
<path opacity="0.28" d="M504.979 135.955L459.072 181.94" stroke="#66EB71"/>
<path opacity="0.3" d="M550.886 135.955L504.979 181.94" stroke="#66EB71"/>
<path opacity="0.32" d="M596.793 135.955L550.886 181.94" stroke="#66EB71"/>
<path opacity="0.35" d="M596.793 135.955L642.701 181.94" stroke="#66EB71"/>
<path opacity="0.37" d="M688.607 135.955L642.7 181.94" stroke="#66EB71"/>
<path opacity="0.39" d="M688.607 135.955L734.515 181.94" stroke="#66EB71"/>
<path opacity="0.41" d="M780.422 135.955L734.515 181.94" stroke="#66EB71"/>
<path opacity="0.44" d="M826.329 135.955L780.422 181.94" stroke="#66EB71"/>
<path opacity="0.46" d="M826.329 135.955L872.236 181.94" stroke="#66EB71"/>
<path opacity="0.48" d="M918.144 135.955L872.236 181.94" stroke="#66EB71"/>
<path opacity="0.5" d="M918.144 135.955L964.051 181.94" stroke="#66EB71"/>
<path opacity="0.53" d="M964.051 135.955L1009.96 181.94" stroke="#66EB71"/>
<path opacity="0.55" d="M1055.87 135.955L1009.96 181.94" stroke="#66EB71"/>
<path opacity="0.57" d="M1055.87 135.955L1101.77 181.94" stroke="#66EB71"/>
<path opacity="0.05" d="M45.9072 181.94L0 227.925" stroke="#66EB71"/>
<path opacity="0.07" d="M45.9072 181.94L91.8144 227.925" stroke="#66EB71"/>
<path opacity="0.1" d="M91.8145 181.94L137.722 227.925" stroke="#66EB71"/>
<path opacity="0.12" d="M137.722 181.94L183.629 227.925" stroke="#66EB71"/>
<path opacity="0.14" d="M183.629 181.94L229.536 227.925" stroke="#66EB71"/>
<path opacity="0.16" d="M229.536 181.94L275.443 227.925" stroke="#66EB71"/>
<path opacity="0.19" d="M275.443 181.94L321.35 227.925" stroke="#66EB71"/>
<path opacity="0.21" d="M367.257 181.94L321.35 227.925" stroke="#66EB71"/>
<path opacity="0.23" d="M413.164 181.94L367.257 227.925" stroke="#66EB71"/>
<path opacity="0.25" d="M459.072 181.94L413.165 227.925" stroke="#66EB71"/>
<path opacity="0.28" d="M504.979 181.94L459.072 227.925" stroke="#66EB71"/>
<path opacity="0.3" d="M504.979 181.94L550.886 227.925" stroke="#66EB71"/>
<path opacity="0.32" d="M596.793 181.94L550.886 227.925" stroke="#66EB71"/>
<path opacity="0.35" d="M596.793 181.94L642.701 227.925" stroke="#66EB71"/>
<path opacity="0.37" d="M642.7 181.94L688.607 227.925" stroke="#66EB71"/>
<path opacity="0.39" d="M734.515 181.94L688.607 227.925" stroke="#66EB71"/>
<path opacity="0.41" d="M780.422 181.94L734.515 227.925" stroke="#66EB71"/>
<path opacity="0.44" d="M826.329 181.94L780.422 227.925" stroke="#66EB71"/>
<path opacity="0.46" d="M872.236 181.94L826.329 227.925" stroke="#66EB71"/>
<path opacity="0.48" d="M872.236 181.94L918.144 227.925" stroke="#66EB71"/>
<path opacity="0.5" d="M964.051 181.94L918.144 227.925" stroke="#66EB71"/>
<path opacity="0.53" d="M964.051 181.94L1009.96 227.925" stroke="#66EB71"/>
<path opacity="0.55" d="M1055.87 181.94L1009.96 227.925" stroke="#66EB71"/>
<path opacity="0.57" d="M1055.87 181.94L1101.77 227.925" stroke="#66EB71"/>
<path opacity="0.05" d="M45.9072 227.925L0 273.91" stroke="#66EB71"/>
<path opacity="0.07" d="M91.8144 227.925L45.9072 273.91" stroke="#66EB71"/>
<path opacity="0.1" d="M91.8145 227.925L137.722 273.91" stroke="#66EB71"/>
<path opacity="0.12" d="M183.629 227.925L137.722 273.91" stroke="#66EB71"/>
<path opacity="0.14" d="M229.536 227.925L183.629 273.91" stroke="#66EB71"/>
<path opacity="0.16" d="M275.443 227.925L229.536 273.91" stroke="#66EB71"/>
<path opacity="0.19" d="M275.443 227.925L321.35 273.91" stroke="#66EB71"/>
<path opacity="0.21" d="M321.35 227.925L367.257 273.91" stroke="#66EB71"/>
<path opacity="0.23" d="M367.257 227.925L413.164 273.91" stroke="#66EB71"/>
<path opacity="0.25" d="M459.072 227.925L413.165 273.91" stroke="#66EB71"/>
<path opacity="0.28" d="M459.072 227.925L504.979 273.91" stroke="#66EB71"/>
<path opacity="0.3" d="M504.979 227.925L550.886 273.91" stroke="#66EB71"/>
<path opacity="0.32" d="M550.886 227.925L596.793 273.91" stroke="#66EB71"/>
<path opacity="0.35" d="M642.701 227.925L596.793 273.91" stroke="#66EB71"/>
<path opacity="0.37" d="M688.607 227.925L642.7 273.91" stroke="#66EB71"/>
<path opacity="0.39" d="M734.515 227.925L688.607 273.91" stroke="#66EB71"/>
<path opacity="0.41" d="M780.422 227.925L734.515 273.91" stroke="#66EB71"/>
<path opacity="0.44" d="M780.422 227.925L826.329 273.91" stroke="#66EB71"/>
<path opacity="0.46" d="M872.236 227.925L826.329 273.91" stroke="#66EB71"/>
<path opacity="0.48" d="M918.144 227.925L872.236 273.91" stroke="#66EB71"/>
<path opacity="0.5" d="M964.051 227.925L918.144 273.91" stroke="#66EB71"/>
<path opacity="0.53" d="M964.051 227.925L1009.96 273.91" stroke="#66EB71"/>
<path opacity="0.55" d="M1055.87 227.925L1009.96 273.91" stroke="#66EB71"/>
<path opacity="0.57" d="M1101.77 227.925L1055.87 273.91" stroke="#66EB71"/>
<path opacity="0.05" d="M0 273.91L45.9072 319.895" stroke="#66EB71"/>
<path opacity="0.07" d="M91.8144 273.91L45.9072 319.895" stroke="#66EB71"/>
<path opacity="0.1" d="M137.722 273.91L91.8145 319.895" stroke="#66EB71"/>
<path opacity="0.12" d="M183.629 273.91L137.722 319.895" stroke="#66EB71"/>
<path opacity="0.14" d="M229.536 273.91L183.629 319.895" stroke="#66EB71"/>
<path opacity="0.16" d="M229.536 273.91L275.443 319.895" stroke="#66EB71"/>
<path opacity="0.19" d="M321.35 273.91L275.443 319.895" stroke="#66EB71"/>
<path opacity="0.21" d="M321.35 273.91L367.257 319.895" stroke="#66EB71"/>
<path opacity="0.23" d="M367.257 273.91L413.164 319.895" stroke="#66EB71"/>
<path opacity="0.25" d="M459.072 273.91L413.165 319.895" stroke="#66EB71"/>
<path opacity="0.28" d="M459.072 273.91L504.979 319.895" stroke="#66EB71"/>
<path opacity="0.3" d="M550.886 273.91L504.979 319.895" stroke="#66EB71"/>
<path opacity="0.32" d="M596.793 273.91L550.886 319.895" stroke="#66EB71"/>
<path opacity="0.35" d="M596.793 273.91L642.701 319.895" stroke="#66EB71"/>
<path opacity="0.37" d="M688.607 273.91L642.7 319.895" stroke="#66EB71"/>
<path opacity="0.39" d="M734.515 273.91L688.607 319.895" stroke="#66EB71"/>
<path opacity="0.41" d="M734.515 273.91L780.422 319.895" stroke="#66EB71"/>
<path opacity="0.44" d="M826.329 273.91L780.422 319.895" stroke="#66EB71"/>
<path opacity="0.46" d="M872.236 273.91L826.329 319.895" stroke="#66EB71"/>
<path opacity="0.48" d="M872.236 273.91L918.144 319.895" stroke="#66EB71"/>
<path opacity="0.5" d="M964.051 273.91L918.144 319.895" stroke="#66EB71"/>
<path opacity="0.53" d="M964.051 273.91L1009.96 319.895" stroke="#66EB71"/>
<path opacity="0.55" d="M1009.96 273.91L1055.87 319.895" stroke="#66EB71"/>
<path opacity="0.57" d="M1101.77 273.91L1055.87 319.895" stroke="#66EB71"/>
<path opacity="0.05" d="M0 319.895L45.9072 365.88" stroke="#66EB71"/>
<path opacity="0.07" d="M45.9072 319.895L91.8144 365.88" stroke="#66EB71"/>
<path opacity="0.1" d="M137.722 319.895L91.8145 365.88" stroke="#66EB71"/>
<path opacity="0.12" d="M183.629 319.895L137.722 365.88" stroke="#66EB71"/>
<path opacity="0.14" d="M183.629 319.895L229.536 365.88" stroke="#66EB71"/>
<path opacity="0.16" d="M229.536 319.895L275.443 365.88" stroke="#66EB71"/>
<path opacity="0.19" d="M275.443 319.895L321.35 365.88" stroke="#66EB71"/>
<path opacity="0.21" d="M367.257 319.895L321.35 365.88" stroke="#66EB71"/>
<path opacity="0.23" d="M367.257 319.895L413.164 365.88" stroke="#66EB71"/>
<path opacity="0.25" d="M413.165 319.895L459.072 365.88" stroke="#66EB71"/>
<path opacity="0.28" d="M459.072 319.895L504.979 365.88" stroke="#66EB71"/>
<path opacity="0.3" d="M550.886 319.895L504.979 365.88" stroke="#66EB71"/>
<path opacity="0.32" d="M550.886 319.895L596.793 365.88" stroke="#66EB71"/>
<path opacity="0.35" d="M596.793 319.895L642.701 365.88" stroke="#66EB71"/>
<path opacity="0.37" d="M688.607 319.895L642.7 365.88" stroke="#66EB71"/>
<path opacity="0.39" d="M734.515 319.895L688.607 365.88" stroke="#66EB71"/>
<path opacity="0.41" d="M780.422 319.895L734.515 365.88" stroke="#66EB71"/>
<path opacity="0.44" d="M826.329 319.895L780.422 365.88" stroke="#66EB71"/>
<path opacity="0.46" d="M872.236 319.895L826.329 365.88" stroke="#66EB71"/>
<path opacity="0.48" d="M918.144 319.895L872.236 365.88" stroke="#66EB71"/>
<path opacity="0.5" d="M964.051 319.895L918.144 365.88" stroke="#66EB71"/>
<path opacity="0.53" d="M1009.96 319.895L964.051 365.88" stroke="#66EB71"/>
<path opacity="0.55" d="M1055.87 319.895L1009.96 365.88" stroke="#66EB71"/>
<path opacity="0.57" d="M1101.77 319.895L1055.87 365.88" stroke="#66EB71"/>
<path opacity="0.05" d="M45.9072 365.88L0 411.865" stroke="#66EB71"/>
<path opacity="0.07" d="M45.9072 365.88L91.8144 411.865" stroke="#66EB71"/>
<path opacity="0.1" d="M137.722 365.88L91.8145 411.865" stroke="#66EB71"/>
<path opacity="0.12" d="M183.629 365.88L137.722 411.865" stroke="#66EB71"/>
<path opacity="0.14" d="M183.629 365.88L229.536 411.865" stroke="#66EB71"/>
<path opacity="0.16" d="M229.536 365.88L275.443 411.865" stroke="#66EB71"/>
<path opacity="0.19" d="M275.443 365.88L321.35 411.865" stroke="#66EB71"/>
<path opacity="0.21" d="M367.257 365.88L321.35 411.865" stroke="#66EB71"/>
<path opacity="0.23" d="M413.164 365.88L367.257 411.865" stroke="#66EB71"/>
<path opacity="0.25" d="M413.165 365.88L459.072 411.865" stroke="#66EB71"/>
<path opacity="0.28" d="M504.979 365.88L459.072 411.865" stroke="#66EB71"/>
<path opacity="0.3" d="M504.979 365.88L550.886 411.865" stroke="#66EB71"/>
<path opacity="0.32" d="M550.886 365.88L596.793 411.865" stroke="#66EB71"/>
<path opacity="0.35" d="M642.701 365.88L596.793 411.865" stroke="#66EB71"/>
<path opacity="0.37" d="M642.7 365.88L688.607 411.865" stroke="#66EB71"/>
<path opacity="0.39" d="M734.515 365.88L688.607 411.865" stroke="#66EB71"/>
<path opacity="0.41" d="M734.515 365.88L780.422 411.865" stroke="#66EB71"/>
<path opacity="0.44" d="M780.422 365.88L826.329 411.865" stroke="#66EB71"/>
<path opacity="0.46" d="M826.329 365.88L872.236 411.865" stroke="#66EB71"/>
<path opacity="0.48" d="M918.144 365.88L872.236 411.865" stroke="#66EB71"/>
<path opacity="0.5" d="M964.051 365.88L918.144 411.865" stroke="#66EB71"/>
<path opacity="0.53" d="M1009.96 365.88L964.051 411.865" stroke="#66EB71"/>
<path opacity="0.55" d="M1009.96 365.88L1055.87 411.865" stroke="#66EB71"/>
<path opacity="0.57" d="M1101.77 365.88L1055.87 411.865" stroke="#66EB71"/>
<path opacity="0.05" d="M0 411.865L45.9072 457.85" stroke="#66EB71"/>
<path opacity="0.07" d="M91.8144 411.865L45.9072 457.85" stroke="#66EB71"/>
<path opacity="0.1" d="M91.8145 411.865L137.722 457.85" stroke="#66EB71"/>
<path opacity="0.12" d="M137.722 411.865L183.629 457.85" stroke="#66EB71"/>
<path opacity="0.14" d="M183.629 411.865L229.536 457.85" stroke="#66EB71"/>
<path opacity="0.16" d="M275.443 411.865L229.536 457.85" stroke="#66EB71"/>
<path opacity="0.19" d="M321.35 411.865L275.443 457.85" stroke="#66EB71"/>
<path opacity="0.21" d="M367.257 411.865L321.35 457.85" stroke="#66EB71"/>
<path opacity="0.23" d="M367.257 411.865L413.164 457.85" stroke="#66EB71"/>
<path opacity="0.25" d="M413.165 411.865L459.072 457.85" stroke="#66EB71"/>
<path opacity="0.28" d="M459.072 411.865L504.979 457.85" stroke="#66EB71"/>
<path opacity="0.3" d="M504.979 411.865L550.886 457.85" stroke="#66EB71"/>
<path opacity="0.32" d="M596.793 411.865L550.886 457.85" stroke="#66EB71"/>
<path opacity="0.35" d="M596.793 411.865L642.701 457.85" stroke="#66EB71"/>
<path opacity="0.37" d="M642.7 411.865L688.607 457.85" stroke="#66EB71"/>
<path opacity="0.39" d="M688.607 411.865L734.515 457.85" stroke="#66EB71"/>
<path opacity="0.41" d="M780.422 411.865L734.515 457.85" stroke="#66EB71"/>
<path opacity="0.44" d="M826.329 411.865L780.422 457.85" stroke="#66EB71"/>
<path opacity="0.46" d="M826.329 411.865L872.236 457.85" stroke="#66EB71"/>
<path opacity="0.48" d="M872.236 411.865L918.144 457.85" stroke="#66EB71"/>
<path opacity="0.5" d="M918.144 411.865L964.051 457.85" stroke="#66EB71"/>
<path opacity="0.53" d="M1009.96 411.865L964.051 457.85" stroke="#66EB71"/>
<path opacity="0.55" d="M1055.87 411.865L1009.96 457.85" stroke="#66EB71"/>
<path opacity="0.57" d="M1055.87 411.865L1101.77 457.85" stroke="#66EB71"/>
<path opacity="0.05" d="M45.9072 457.85L0 503.835" stroke="#66EB71"/>
<path opacity="0.07" d="M91.8144 457.85L45.9072 503.835" stroke="#66EB71"/>
<path opacity="0.1" d="M91.8145 457.85L137.722 503.835" stroke="#66EB71"/>
<path opacity="0.12" d="M137.722 457.85L183.629 503.835" stroke="#66EB71"/>
<path opacity="0.14" d="M229.536 457.85L183.629 503.835" stroke="#66EB71"/>
<path opacity="0.16" d="M275.443 457.85L229.536 503.835" stroke="#66EB71"/>
<path opacity="0.19" d="M275.443 457.85L321.35 503.835" stroke="#66EB71"/>
<path opacity="0.21" d="M321.35 457.85L367.257 503.835" stroke="#66EB71"/>
<path opacity="0.23" d="M413.164 457.85L367.257 503.835" stroke="#66EB71"/>
<path opacity="0.25" d="M413.165 457.85L459.072 503.835" stroke="#66EB71"/>
<path opacity="0.28" d="M459.072 457.85L504.979 503.835" stroke="#66EB71"/>
<path opacity="0.3" d="M504.979 457.85L550.886 503.835" stroke="#66EB71"/>
<path opacity="0.32" d="M596.793 457.85L550.886 503.835" stroke="#66EB71"/>
<path opacity="0.35" d="M642.701 457.85L596.793 503.835" stroke="#66EB71"/>
<path opacity="0.37" d="M642.7 457.85L688.607 503.835" stroke="#66EB71"/>
<path opacity="0.39" d="M734.515 457.85L688.607 503.835" stroke="#66EB71"/>
<path opacity="0.41" d="M734.515 457.85L780.422 503.835" stroke="#66EB71"/>
<path opacity="0.44" d="M780.422 457.85L826.329 503.835" stroke="#66EB71"/>
<path opacity="0.46" d="M826.329 457.85L872.236 503.835" stroke="#66EB71"/>
<path opacity="0.48" d="M872.236 457.85L918.144 503.835" stroke="#66EB71"/>
<path opacity="0.5" d="M918.144 457.85L964.051 503.835" stroke="#66EB71"/>
<path opacity="0.53" d="M1009.96 457.85L964.051 503.835" stroke="#66EB71"/>
<path opacity="0.55" d="M1055.87 457.85L1009.96 503.835" stroke="#66EB71"/>
<path opacity="0.57" d="M1055.87 457.85L1101.77 503.835" stroke="#66EB71"/>
<path opacity="0.05" d="M0 503.835L45.9072 549.82" stroke="#66EB71"/>
<path opacity="0.07" d="M91.8144 503.835L45.9072 549.82" stroke="#66EB71"/>
<path opacity="0.1" d="M91.8145 503.835L137.722 549.82" stroke="#66EB71"/>
<path opacity="0.12" d="M183.629 503.835L137.722 549.82" stroke="#66EB71"/>
<path opacity="0.14" d="M229.536 503.835L183.629 549.82" stroke="#66EB71"/>
<path opacity="0.16" d="M275.443 503.835L229.536 549.82" stroke="#66EB71"/>
<path opacity="0.19" d="M321.35 503.835L275.443 549.82" stroke="#66EB71"/>
<path opacity="0.21" d="M321.35 503.835L367.257 549.82" stroke="#66EB71"/>
<path opacity="0.23" d="M413.164 503.835L367.257 549.82" stroke="#66EB71"/>
<path opacity="0.25" d="M459.072 503.835L413.165 549.82" stroke="#66EB71"/>
<path opacity="0.28" d="M459.072 503.835L504.979 549.82" stroke="#66EB71"/>
<path opacity="0.3" d="M504.979 503.835L550.886 549.82" stroke="#66EB71"/>
<path opacity="0.32" d="M596.793 503.835L550.886 549.82" stroke="#66EB71"/>
<path opacity="0.35" d="M596.793 503.835L642.701 549.82" stroke="#66EB71"/>
<path opacity="0.37" d="M688.607 503.835L642.7 549.82" stroke="#66EB71"/>
<path opacity="0.39" d="M734.515 503.835L688.607 549.82" stroke="#66EB71"/>
<path opacity="0.41" d="M734.515 503.835L780.422 549.82" stroke="#66EB71"/>
<path opacity="0.44" d="M780.422 503.835L826.329 549.82" stroke="#66EB71"/>
<path opacity="0.46" d="M872.236 503.835L826.329 549.82" stroke="#66EB71"/>
<path opacity="0.48" d="M918.144 503.835L872.236 549.82" stroke="#66EB71"/>
<path opacity="0.5" d="M918.144 503.835L964.051 549.82" stroke="#66EB71"/>
<path opacity="0.53" d="M964.051 503.835L1009.96 549.82" stroke="#66EB71"/>
<path opacity="0.55" d="M1009.96 503.835L1055.87 549.82" stroke="#66EB71"/>
<path opacity="0.57" d="M1055.87 503.835L1101.77 549.82" stroke="#66EB71"/>
<path opacity="0.05" d="M0 549.82L45.9072 595.805" stroke="#66EB71"/>
<path opacity="0.07" d="M91.8144 549.82L45.9072 595.805" stroke="#66EB71"/>
<path opacity="0.1" d="M91.8145 549.82L137.722 595.805" stroke="#66EB71"/>
<path opacity="0.12" d="M137.722 549.82L183.629 595.805" stroke="#66EB71"/>
<path opacity="0.14" d="M229.536 549.82L183.629 595.805" stroke="#66EB71"/>
<path opacity="0.16" d="M229.536 549.82L275.443 595.805" stroke="#66EB71"/>
<path opacity="0.19" d="M275.443 549.82L321.35 595.805" stroke="#66EB71"/>
<path opacity="0.21" d="M321.35 549.82L367.257 595.805" stroke="#66EB71"/>
<path opacity="0.23" d="M413.164 549.82L367.257 595.805" stroke="#66EB71"/>
<path opacity="0.25" d="M413.165 549.82L459.072 595.805" stroke="#66EB71"/>
<path opacity="0.28" d="M504.979 549.82L459.072 595.805" stroke="#66EB71"/>
<path opacity="0.3" d="M504.979 549.82L550.886 595.805" stroke="#66EB71"/>
<path opacity="0.32" d="M596.793 549.82L550.886 595.805" stroke="#66EB71"/>
<path opacity="0.35" d="M642.701 549.82L596.793 595.805" stroke="#66EB71"/>
<path opacity="0.37" d="M642.7 549.82L688.607 595.805" stroke="#66EB71"/>
<path opacity="0.39" d="M688.607 549.82L734.515 595.805" stroke="#66EB71"/>
<path opacity="0.41" d="M780.422 549.82L734.515 595.805" stroke="#66EB71"/>
<path opacity="0.44" d="M780.422 549.82L826.329 595.805" stroke="#66EB71"/>
<path opacity="0.46" d="M826.329 549.82L872.236 595.805" stroke="#66EB71"/>
<path opacity="0.48" d="M872.236 549.82L918.144 595.805" stroke="#66EB71"/>
<path opacity="0.5" d="M964.051 549.82L918.144 595.805" stroke="#66EB71"/>
<path opacity="0.53" d="M964.051 549.82L1009.96 595.805" stroke="#66EB71"/>
<path opacity="0.55" d="M1009.96 549.82L1055.87 595.805" stroke="#66EB71"/>
<path opacity="0.57" d="M1101.77 549.82L1055.87 595.805" stroke="#66EB71"/>
<path opacity="0.05" d="M0 595.805L45.9072 641.79" stroke="#66EB71"/>
<path opacity="0.07" d="M91.8144 595.805L45.9072 641.79" stroke="#66EB71"/>
<path opacity="0.1" d="M91.8145 595.805L137.722 641.79" stroke="#66EB71"/>
<path opacity="0.12" d="M183.629 595.805L137.722 641.79" stroke="#66EB71"/>
<path opacity="0.14" d="M229.536 595.805L183.629 641.79" stroke="#66EB71"/>
<path opacity="0.16" d="M229.536 595.805L275.443 641.79" stroke="#66EB71"/>
<path opacity="0.19" d="M321.35 595.805L275.443 641.79" stroke="#66EB71"/>
<path opacity="0.21" d="M321.35 595.805L367.257 641.79" stroke="#66EB71"/>
<path opacity="0.23" d="M367.257 595.805L413.164 641.79" stroke="#66EB71"/>
<path opacity="0.25" d="M413.165 595.805L459.072 641.79" stroke="#66EB71"/>
<path opacity="0.28" d="M504.979 595.805L459.072 641.79" stroke="#66EB71"/>
<path opacity="0.3" d="M550.886 595.805L504.979 641.79" stroke="#66EB71"/>
<path opacity="0.32" d="M596.793 595.805L550.886 641.79" stroke="#66EB71"/>
<path opacity="0.35" d="M596.793 595.805L642.701 641.79" stroke="#66EB71"/>
<path opacity="0.37" d="M642.7 595.805L688.607 641.79" stroke="#66EB71"/>
<path opacity="0.39" d="M734.515 595.805L688.607 641.79" stroke="#66EB71"/>
<path opacity="0.41" d="M734.515 595.805L780.422 641.79" stroke="#66EB71"/>
<path opacity="0.44" d="M780.422 595.805L826.329 641.79" stroke="#66EB71"/>
<path opacity="0.46" d="M826.329 595.805L872.236 641.79" stroke="#66EB71"/>
<path opacity="0.48" d="M872.236 595.805L918.144 641.79" stroke="#66EB71"/>
<path opacity="0.5" d="M964.051 595.805L918.144 641.79" stroke="#66EB71"/>
<path opacity="0.53" d="M964.051 595.805L1009.96 641.79" stroke="#66EB71"/>
<path opacity="0.55" d="M1009.96 595.805L1055.87 641.79" stroke="#66EB71"/>
<path opacity="0.57" d="M1055.87 595.805L1101.77 641.79" stroke="#66EB71"/>
<path opacity="0.05" d="M45.9072 641.79L0 687.775" stroke="#66EB71"/>
<path opacity="0.07" d="M91.8144 641.79L45.9072 687.775" stroke="#66EB71"/>
<path opacity="0.1" d="M91.8145 641.79L137.722 687.775" stroke="#66EB71"/>
<path opacity="0.12" d="M137.722 641.79L183.629 687.775" stroke="#66EB71"/>
<path opacity="0.14" d="M183.629 641.79L229.536 687.775" stroke="#66EB71"/>
<path opacity="0.16" d="M229.536 641.79L275.443 687.775" stroke="#66EB71"/>
<path opacity="0.19" d="M321.35 641.79L275.443 687.775" stroke="#66EB71"/>
<path opacity="0.21" d="M321.35 641.79L367.257 687.775" stroke="#66EB71"/>
<path opacity="0.23" d="M367.257 641.79L413.164 687.775" stroke="#66EB71"/>
<path opacity="0.25" d="M459.072 641.79L413.165 687.775" stroke="#66EB71"/>
<path opacity="0.28" d="M504.979 641.79L459.072 687.775" stroke="#66EB71"/>
<path opacity="0.3" d="M504.979 641.79L550.886 687.775" stroke="#66EB71"/>
<path opacity="0.32" d="M596.793 641.79L550.886 687.775" stroke="#66EB71"/>
<path opacity="0.35" d="M642.701 641.79L596.793 687.775" stroke="#66EB71"/>
<path opacity="0.37" d="M688.607 641.79L642.7 687.775" stroke="#66EB71"/>
<path opacity="0.39" d="M688.607 641.79L734.515 687.775" stroke="#66EB71"/>
<path opacity="0.41" d="M780.422 641.79L734.515 687.775" stroke="#66EB71"/>
<path opacity="0.44" d="M826.329 641.79L780.422 687.775" stroke="#66EB71"/>
<path opacity="0.46" d="M872.236 641.79L826.329 687.775" stroke="#66EB71"/>
<path opacity="0.48" d="M872.236 641.79L918.144 687.775" stroke="#66EB71"/>
<path opacity="0.5" d="M918.144 641.79L964.051 687.775" stroke="#66EB71"/>
<path opacity="0.53" d="M1009.96 641.79L964.051 687.775" stroke="#66EB71"/>
<path opacity="0.55" d="M1009.96 641.79L1055.87 687.775" stroke="#66EB71"/>
<path opacity="0.57" d="M1055.87 641.79L1101.77 687.775" stroke="#66EB71"/>
<path opacity="0.05" d="M45.9072 687.775L0 733.76" stroke="#66EB71"/>
<path opacity="0.07" d="M91.8144 687.775L45.9072 733.76" stroke="#66EB71"/>
<path opacity="0.1" d="M137.722 687.775L91.8145 733.76" stroke="#66EB71"/>
<path opacity="0.12" d="M137.722 687.775L183.629 733.76" stroke="#66EB71"/>
<path opacity="0.14" d="M229.536 687.775L183.629 733.76" stroke="#66EB71"/>
<path opacity="0.16" d="M275.443 687.775L229.536 733.76" stroke="#66EB71"/>
<path opacity="0.19" d="M275.443 687.775L321.35 733.76" stroke="#66EB71"/>
<path opacity="0.21" d="M367.257 687.775L321.35 733.76" stroke="#66EB71"/>
<path opacity="0.23" d="M413.164 687.775L367.257 733.76" stroke="#66EB71"/>
<path opacity="0.25" d="M413.165 687.775L459.072 733.76" stroke="#66EB71"/>
<path opacity="0.28" d="M459.072 687.775L504.979 733.76" stroke="#66EB71"/>
<path opacity="0.3" d="M504.979 687.775L550.886 733.76" stroke="#66EB71"/>
<path opacity="0.32" d="M550.886 687.775L596.793 733.76" stroke="#66EB71"/>
<path opacity="0.35" d="M642.701 687.775L596.793 733.76" stroke="#66EB71"/>
<path opacity="0.37" d="M642.7 687.775L688.607 733.76" stroke="#66EB71"/>
<path opacity="0.39" d="M734.515 687.775L688.607 733.76" stroke="#66EB71"/>
<path opacity="0.41" d="M734.515 687.775L780.422 733.76" stroke="#66EB71"/>
<path opacity="0.44" d="M826.329 687.775L780.422 733.76" stroke="#66EB71"/>
<path opacity="0.46" d="M872.236 687.775L826.329 733.76" stroke="#66EB71"/>
<path opacity="0.48" d="M872.236 687.775L918.144 733.76" stroke="#66EB71"/>
<path opacity="0.5" d="M918.144 687.775L964.051 733.76" stroke="#66EB71"/>
<path opacity="0.53" d="M1009.96 687.775L964.051 733.76" stroke="#66EB71"/>
<path opacity="0.55" d="M1055.87 687.775L1009.96 733.76" stroke="#66EB71"/>
<path opacity="0.57" d="M1055.87 687.775L1101.77 733.76" stroke="#66EB71"/>
<path opacity="0.05" d="M45.9072 733.76L0 779.745" stroke="#66EB71"/>
<path opacity="0.07" d="M91.8144 733.76L45.9072 779.745" stroke="#66EB71"/>
<path opacity="0.1" d="M137.722 733.76L91.8145 779.745" stroke="#66EB71"/>
<path opacity="0.12" d="M137.722 733.76L183.629 779.745" stroke="#66EB71"/>
<path opacity="0.14" d="M229.536 733.76L183.629 779.745" stroke="#66EB71"/>
<path opacity="0.16" d="M229.536 733.76L275.443 779.745" stroke="#66EB71"/>
<path opacity="0.19" d="M321.35 733.76L275.443 779.745" stroke="#66EB71"/>
<path opacity="0.21" d="M321.35 733.76L367.257 779.745" stroke="#66EB71"/>
<path opacity="0.23" d="M367.257 733.76L413.164 779.745" stroke="#66EB71"/>
<path opacity="0.25" d="M413.165 733.76L459.072 779.745" stroke="#66EB71"/>
<path opacity="0.28" d="M459.072 733.76L504.979 779.745" stroke="#66EB71"/>
<path opacity="0.3" d="M550.886 733.76L504.979 779.745" stroke="#66EB71"/>
<path opacity="0.32" d="M596.793 733.76L550.886 779.745" stroke="#66EB71"/>
<path opacity="0.35" d="M596.793 733.76L642.701 779.745" stroke="#66EB71"/>
<path opacity="0.37" d="M642.7 733.76L688.607 779.745" stroke="#66EB71"/>
<path opacity="0.39" d="M734.515 733.76L688.607 779.745" stroke="#66EB71"/>
<path opacity="0.41" d="M780.422 733.76L734.515 779.745" stroke="#66EB71"/>
<path opacity="0.44" d="M780.422 733.76L826.329 779.745" stroke="#66EB71"/>
<path opacity="0.46" d="M826.329 733.76L872.236 779.745" stroke="#66EB71"/>
<path opacity="0.48" d="M872.236 733.76L918.144 779.745" stroke="#66EB71"/>
<path opacity="0.5" d="M918.144 733.76L964.051 779.745" stroke="#66EB71"/>
<path opacity="0.53" d="M1009.96 733.76L964.051 779.745" stroke="#66EB71"/>
<path opacity="0.55" d="M1055.87 733.76L1009.96 779.745" stroke="#66EB71"/>
<path opacity="0.57" d="M1101.77 733.76L1055.87 779.745" stroke="#66EB71"/>
<path opacity="0.05" d="M45.9072 779.745L0 825.73" stroke="#66EB71"/>
<path opacity="0.07" d="M91.8144 779.745L45.9072 825.73" stroke="#66EB71"/>
<path opacity="0.1" d="M91.8145 779.745L137.722 825.73" stroke="#66EB71"/>
<path opacity="0.12" d="M137.722 779.745L183.629 825.73" stroke="#66EB71"/>
<path opacity="0.14" d="M229.536 779.745L183.629 825.73" stroke="#66EB71"/>
<path opacity="0.16" d="M229.536 779.745L275.443 825.73" stroke="#66EB71"/>
<path opacity="0.19" d="M275.443 779.745L321.35 825.73" stroke="#66EB71"/>
<path opacity="0.21" d="M321.35 779.745L367.257 825.73" stroke="#66EB71"/>
<path opacity="0.23" d="M367.257 779.745L413.164 825.73" stroke="#66EB71"/>
<path opacity="0.25" d="M413.165 779.745L459.072 825.73" stroke="#66EB71"/>
<path opacity="0.28" d="M504.979 779.745L459.072 825.73" stroke="#66EB71"/>
<path opacity="0.3" d="M550.886 779.745L504.979 825.73" stroke="#66EB71"/>
<path opacity="0.32" d="M596.793 779.745L550.886 825.73" stroke="#66EB71"/>
<path opacity="0.35" d="M596.793 779.745L642.701 825.73" stroke="#66EB71"/>
<path opacity="0.37" d="M642.7 779.745L688.607 825.73" stroke="#66EB71"/>
<path opacity="0.39" d="M734.515 779.745L688.607 825.73" stroke="#66EB71"/>
<path opacity="0.41" d="M780.422 779.745L734.515 825.73" stroke="#66EB71"/>
<path opacity="0.44" d="M826.329 779.745L780.422 825.73" stroke="#66EB71"/>
<path opacity="0.46" d="M872.236 779.745L826.329 825.73" stroke="#66EB71"/>
<path opacity="0.48" d="M872.236 779.745L918.144 825.73" stroke="#66EB71"/>
<path opacity="0.5" d="M964.051 779.745L918.144 825.73" stroke="#66EB71"/>
<path opacity="0.53" d="M964.051 779.745L1009.96 825.73" stroke="#66EB71"/>
<path opacity="0.55" d="M1009.96 779.745L1055.87 825.73" stroke="#66EB71"/>
<path opacity="0.57" d="M1101.77 779.745L1055.87 825.73" stroke="#66EB71"/>
<path opacity="0.05" d="M45.9072 825.73L0 871.715" stroke="#66EB71"/>
<path opacity="0.07" d="M45.9072 825.73L91.8144 871.715" stroke="#66EB71"/>
<path opacity="0.1" d="M137.722 825.73L91.8145 871.715" stroke="#66EB71"/>
<path opacity="0.12" d="M183.629 825.73L137.722 871.715" stroke="#66EB71"/>
<path opacity="0.14" d="M229.536 825.73L183.629 871.715" stroke="#66EB71"/>
<path opacity="0.16" d="M275.443 825.73L229.536 871.715" stroke="#66EB71"/>
<path opacity="0.19" d="M321.35 825.73L275.443 871.715" stroke="#66EB71"/>
<path opacity="0.21" d="M321.35 825.73L367.257 871.715" stroke="#66EB71"/>
<path opacity="0.23" d="M367.257 825.73L413.164 871.715" stroke="#66EB71"/>
<path opacity="0.25" d="M459.072 825.73L413.165 871.715" stroke="#66EB71"/>
<path opacity="0.28" d="M459.072 825.73L504.979 871.715" stroke="#66EB71"/>
<path opacity="0.3" d="M504.979 825.73L550.886 871.715" stroke="#66EB71"/>
<path opacity="0.32" d="M550.886 825.73L596.793 871.715" stroke="#66EB71"/>
<path opacity="0.35" d="M596.793 825.73L642.701 871.715" stroke="#66EB71"/>
<path opacity="0.37" d="M688.607 825.73L642.7 871.715" stroke="#66EB71"/>
<path opacity="0.39" d="M688.607 825.73L734.515 871.715" stroke="#66EB71"/>
<path opacity="0.41" d="M734.515 825.73L780.422 871.715" stroke="#66EB71"/>
<path opacity="0.44" d="M826.329 825.73L780.422 871.715" stroke="#66EB71"/>
<path opacity="0.46" d="M872.236 825.73L826.329 871.715" stroke="#66EB71"/>
<path opacity="0.48" d="M872.236 825.73L918.144 871.715" stroke="#66EB71"/>
<path opacity="0.5" d="M964.051 825.73L918.144 871.715" stroke="#66EB71"/>
<path opacity="0.53" d="M964.051 825.73L1009.96 871.715" stroke="#66EB71"/>
<path opacity="0.55" d="M1009.96 825.73L1055.87 871.715" stroke="#66EB71"/>
<path opacity="0.57" d="M1101.77 825.73L1055.87 871.715" stroke="#66EB71"/>
<path opacity="0.05" d="M45.9072 871.715L0 917.7" stroke="#66EB71"/>
<path opacity="0.07" d="M45.9072 871.715L91.8144 917.7" stroke="#66EB71"/>
<path opacity="0.1" d="M91.8145 871.715L137.722 917.7" stroke="#66EB71"/>
<path opacity="0.12" d="M183.629 871.715L137.722 917.7" stroke="#66EB71"/>
<path opacity="0.14" d="M229.536 871.715L183.629 917.7" stroke="#66EB71"/>
<path opacity="0.16" d="M275.443 871.715L229.536 917.7" stroke="#66EB71"/>
<path opacity="0.19" d="M275.443 871.715L321.35 917.7" stroke="#66EB71"/>
<path opacity="0.21" d="M321.35 871.715L367.257 917.7" stroke="#66EB71"/>
<path opacity="0.23" d="M413.164 871.715L367.257 917.7" stroke="#66EB71"/>
<path opacity="0.25" d="M459.072 871.715L413.165 917.7" stroke="#66EB71"/>
<path opacity="0.28" d="M459.072 871.715L504.979 917.7" stroke="#66EB71"/>
<path opacity="0.3" d="M550.886 871.715L504.979 917.7" stroke="#66EB71"/>
<path opacity="0.32" d="M550.886 871.715L596.793 917.7" stroke="#66EB71"/>
<path opacity="0.35" d="M596.793 871.715L642.701 917.7" stroke="#66EB71"/>
<path opacity="0.37" d="M642.7 871.715L688.607 917.7" stroke="#66EB71"/>
<path opacity="0.39" d="M688.607 871.715L734.515 917.7" stroke="#66EB71"/>
<path opacity="0.41" d="M734.515 871.715L780.422 917.7" stroke="#66EB71"/>
<path opacity="0.44" d="M780.422 871.715L826.329 917.7" stroke="#66EB71"/>
<path opacity="0.46" d="M826.329 871.715L872.236 917.7" stroke="#66EB71"/>
<path opacity="0.48" d="M872.236 871.715L918.144 917.7" stroke="#66EB71"/>
<path opacity="0.5" d="M918.144 871.715L964.051 917.7" stroke="#66EB71"/>
<path opacity="0.53" d="M1009.96 871.715L964.051 917.7" stroke="#66EB71"/>
<path opacity="0.55" d="M1055.87 871.715L1009.96 917.7" stroke="#66EB71"/>
<path opacity="0.57" d="M1101.77 871.715L1055.87 917.7" stroke="#66EB71"/>
<path opacity="0.05" d="M0 917.7L45.9072 963.685" stroke="#66EB71"/>
<path opacity="0.07" d="M91.8144 917.7L45.9072 963.685" stroke="#66EB71"/>
<path opacity="0.1" d="M91.8145 917.7L137.722 963.685" stroke="#66EB71"/>
<path opacity="0.12" d="M183.629 917.7L137.722 963.685" stroke="#66EB71"/>
<path opacity="0.14" d="M229.536 917.7L183.629 963.685" stroke="#66EB71"/>
<path opacity="0.16" d="M275.443 917.7L229.536 963.685" stroke="#66EB71"/>
<path opacity="0.19" d="M321.35 917.7L275.443 963.685" stroke="#66EB71"/>
<path opacity="0.21" d="M321.35 917.7L367.257 963.685" stroke="#66EB71"/>
<path opacity="0.23" d="M413.164 917.7L367.257 963.685" stroke="#66EB71"/>
<path opacity="0.25" d="M459.072 917.7L413.165 963.685" stroke="#66EB71"/>
<path opacity="0.28" d="M504.979 917.7L459.072 963.685" stroke="#66EB71"/>
<path opacity="0.3" d="M504.979 917.7L550.886 963.685" stroke="#66EB71"/>
<path opacity="0.32" d="M596.793 917.7L550.886 963.685" stroke="#66EB71"/>
<path opacity="0.35" d="M596.793 917.7L642.701 963.685" stroke="#66EB71"/>
<path opacity="0.37" d="M688.607 917.7L642.7 963.685" stroke="#66EB71"/>
<path opacity="0.39" d="M734.515 917.7L688.607 963.685" stroke="#66EB71"/>
<path opacity="0.41" d="M780.422 917.7L734.515 963.685" stroke="#66EB71"/>
<path opacity="0.44" d="M780.422 917.7L826.329 963.685" stroke="#66EB71"/>
<path opacity="0.46" d="M826.329 917.7L872.236 963.685" stroke="#66EB71"/>
<path opacity="0.48" d="M872.236 917.7L918.144 963.685" stroke="#66EB71"/>
<path opacity="0.5" d="M964.051 917.7L918.144 963.685" stroke="#66EB71"/>
<path opacity="0.53" d="M1009.96 917.7L964.051 963.685" stroke="#66EB71"/>
<path opacity="0.55" d="M1009.96 917.7L1055.87 963.685" stroke="#66EB71"/>
<path opacity="0.57" d="M1101.77 917.7L1055.87 963.685" stroke="#66EB71"/>
<path opacity="0.05" d="M45.9072 963.685L0 1009.67" stroke="#66EB71"/>
<path opacity="0.07" d="M91.8144 963.685L45.9072 1009.67" stroke="#66EB71"/>
<path opacity="0.1" d="M137.722 963.685L91.8145 1009.67" stroke="#66EB71"/>
<path opacity="0.12" d="M137.722 963.685L183.629 1009.67" stroke="#66EB71"/>
<path opacity="0.14" d="M183.629 963.685L229.536 1009.67" stroke="#66EB71"/>
<path opacity="0.16" d="M229.536 963.685L275.443 1009.67" stroke="#66EB71"/>
<path opacity="0.19" d="M321.35 963.685L275.443 1009.67" stroke="#66EB71"/>
<path opacity="0.21" d="M367.257 963.685L321.35 1009.67" stroke="#66EB71"/>
<path opacity="0.23" d="M413.164 963.685L367.257 1009.67" stroke="#66EB71"/>
<path opacity="0.25" d="M413.165 963.685L459.072 1009.67" stroke="#66EB71"/>
<path opacity="0.28" d="M504.979 963.685L459.072 1009.67" stroke="#66EB71"/>
<path opacity="0.3" d="M504.979 963.685L550.886 1009.67" stroke="#66EB71"/>
<path opacity="0.32" d="M596.793 963.685L550.886 1009.67" stroke="#66EB71"/>
<path opacity="0.35" d="M642.701 963.685L596.793 1009.67" stroke="#66EB71"/>
<path opacity="0.37" d="M688.607 963.685L642.7 1009.67" stroke="#66EB71"/>
<path opacity="0.39" d="M688.607 963.685L734.515 1009.67" stroke="#66EB71"/>
<path opacity="0.41" d="M734.515 963.685L780.422 1009.67" stroke="#66EB71"/>
<path opacity="0.44" d="M780.422 963.685L826.329 1009.67" stroke="#66EB71"/>
<path opacity="0.46" d="M872.236 963.685L826.329 1009.67" stroke="#66EB71"/>
<path opacity="0.48" d="M872.236 963.685L918.144 1009.67" stroke="#66EB71"/>
<path opacity="0.5" d="M918.144 963.685L964.051 1009.67" stroke="#66EB71"/>
<path opacity="0.53" d="M1009.96 963.685L964.051 1009.67" stroke="#66EB71"/>
<path opacity="0.55" d="M1055.87 963.685L1009.96 1009.67" stroke="#66EB71"/>
<path opacity="0.57" d="M1101.77 963.685L1055.87 1009.67" stroke="#66EB71"/>
<path opacity="0.05" d="M45.9072 1009.67L0 1055.65" stroke="#66EB71"/>
<path opacity="0.07" d="M45.9072 1009.67L91.8144 1055.65" stroke="#66EB71"/>
<path opacity="0.1" d="M91.8145 1009.67L137.722 1055.65" stroke="#66EB71"/>
<path opacity="0.12" d="M137.722 1009.67L183.629 1055.65" stroke="#66EB71"/>
<path opacity="0.14" d="M183.629 1009.67L229.536 1055.65" stroke="#66EB71"/>
<path opacity="0.16" d="M275.443 1009.67L229.536 1055.65" stroke="#66EB71"/>
<path opacity="0.19" d="M321.35 1009.67L275.443 1055.65" stroke="#66EB71"/>
<path opacity="0.21" d="M321.35 1009.67L367.257 1055.65" stroke="#66EB71"/>
<path opacity="0.23" d="M367.257 1009.67L413.164 1055.65" stroke="#66EB71"/>
<path opacity="0.25" d="M459.072 1009.67L413.165 1055.65" stroke="#66EB71"/>
<path opacity="0.28" d="M459.072 1009.67L504.979 1055.65" stroke="#66EB71"/>
<path opacity="0.3" d="M550.886 1009.67L504.979 1055.65" stroke="#66EB71"/>
<path opacity="0.32" d="M596.793 1009.67L550.886 1055.65" stroke="#66EB71"/>
<path opacity="0.35" d="M642.701 1009.67L596.793 1055.65" stroke="#66EB71"/>
<path opacity="0.37" d="M688.607 1009.67L642.7 1055.65" stroke="#66EB71"/>
<path opacity="0.39" d="M688.607 1009.67L734.515 1055.65" stroke="#66EB71"/>
<path opacity="0.41" d="M734.515 1009.67L780.422 1055.65" stroke="#66EB71"/>
<path opacity="0.44" d="M780.422 1009.67L826.329 1055.65" stroke="#66EB71"/>
<path opacity="0.46" d="M872.236 1009.67L826.329 1055.65" stroke="#66EB71"/>
<path opacity="0.48" d="M918.144 1009.67L872.236 1055.65" stroke="#66EB71"/>
<path opacity="0.5" d="M964.051 1009.67L918.144 1055.65" stroke="#66EB71"/>
<path opacity="0.53" d="M1009.96 1009.67L964.051 1055.65" stroke="#66EB71"/>
<path opacity="0.55" d="M1055.87 1009.67L1009.96 1055.65" stroke="#66EB71"/>
<path opacity="0.57" d="M1055.87 1009.67L1101.77 1055.65" stroke="#66EB71"/>
<path opacity="0.05" d="M0 1055.66L45.9072 1101.64" stroke="#66EB71"/>
<path opacity="0.07" d="M91.8144 1055.66L45.9072 1101.64" stroke="#66EB71"/>
<path opacity="0.1" d="M137.722 1055.66L91.8145 1101.64" stroke="#66EB71"/>
<path opacity="0.12" d="M183.629 1055.66L137.722 1101.64" stroke="#66EB71"/>
<path opacity="0.14" d="M183.629 1055.66L229.536 1101.64" stroke="#66EB71"/>
<path opacity="0.16" d="M229.536 1055.66L275.443 1101.64" stroke="#66EB71"/>
<path opacity="0.19" d="M321.35 1055.66L275.443 1101.64" stroke="#66EB71"/>
<path opacity="0.21" d="M321.35 1055.66L367.257 1101.64" stroke="#66EB71"/>
<path opacity="0.23" d="M367.257 1055.66L413.164 1101.64" stroke="#66EB71"/>
<path opacity="0.25" d="M459.072 1055.66L413.165 1101.64" stroke="#66EB71"/>
<path opacity="0.28" d="M504.979 1055.66L459.072 1101.64" stroke="#66EB71"/>
<path opacity="0.3" d="M550.886 1055.66L504.979 1101.64" stroke="#66EB71"/>
<path opacity="0.32" d="M596.793 1055.66L550.886 1101.64" stroke="#66EB71"/>
<path opacity="0.35" d="M596.793 1055.66L642.701 1101.64" stroke="#66EB71"/>
<path opacity="0.37" d="M642.7 1055.66L688.607 1101.64" stroke="#66EB71"/>
<path opacity="0.39" d="M688.607 1055.66L734.515 1101.64" stroke="#66EB71"/>
<path opacity="0.41" d="M734.515 1055.66L780.422 1101.64" stroke="#66EB71"/>
<path opacity="0.44" d="M826.329 1055.66L780.422 1101.64" stroke="#66EB71"/>
<path opacity="0.46" d="M826.329 1055.66L872.236 1101.64" stroke="#66EB71"/>
<path opacity="0.48" d="M872.236 1055.66L918.144 1101.64" stroke="#66EB71"/>
<path opacity="0.5" d="M964.051 1055.66L918.144 1101.64" stroke="#66EB71"/>
<path opacity="0.53" d="M964.051 1055.66L1009.96 1101.64" stroke="#66EB71"/>
<path opacity="0.55" d="M1055.87 1055.66L1009.96 1101.64" stroke="#66EB71"/>
<path opacity="0.57" d="M1101.77 1055.66L1055.87 1101.64" stroke="#66EB71"/>
</svg>
