<svg width="785" height="800" viewBox="0 0 785 800" fill="none" xmlns="http://www.w3.org/2000/svg">
<g opacity="0.2" clip-path="url(#clip0_850_23652)">
<path opacity="0.05" d="M33.001 -28.1235L0 4.93344" stroke="#66EB71"/>
<path opacity="0.07" d="M33.001 -28.1235L66.002 4.93344" stroke="#66EB71"/>
<path opacity="0.1" d="M66.002 -28.1235L99.003 4.93344" stroke="#66EB71"/>
<path opacity="0.12" d="M99.0029 -28.1235L132.004 4.93344" stroke="#66EB71"/>
<path opacity="0.14" d="M132.004 -28.1235L165.005 4.93344" stroke="#66EB71"/>
<path opacity="0.16" d="M198.006 -28.1235L165.005 4.93344" stroke="#66EB71"/>
<path opacity="0.19" d="M231.007 -28.1235L198.006 4.93344" stroke="#66EB71"/>
<path opacity="0.21" d="M231.007 -28.1235L264.008 4.93344" stroke="#66EB71"/>
<path opacity="0.23" d="M264.008 -28.1235L297.009 4.93344" stroke="#66EB71"/>
<path opacity="0.25" d="M330.01 -28.1235L297.009 4.93344" stroke="#66EB71"/>
<path opacity="0.28" d="M330.01 -28.1235L363.011 4.93344" stroke="#66EB71"/>
<path opacity="0.3" d="M396.012 -28.1235L363.011 4.93344" stroke="#66EB71"/>
<path opacity="0.32" d="M429.014 -28.1235L396.013 4.93344" stroke="#66EB71"/>
<path opacity="0.35" d="M462.015 -28.1235L429.014 4.93344" stroke="#66EB71"/>
<path opacity="0.37" d="M495.015 -28.1235L462.014 4.93344" stroke="#66EB71"/>
<path opacity="0.39" d="M495.016 -28.1235L528.017 4.93344" stroke="#66EB71"/>
<path opacity="0.41" d="M528.017 -28.1235L561.018 4.93344" stroke="#66EB71"/>
<path opacity="0.44" d="M561.018 -28.1235L594.019 4.93344" stroke="#66EB71"/>
<path opacity="0.46" d="M627.02 -28.1235L594.019 4.93344" stroke="#66EB71"/>
<path opacity="0.48" d="M660.021 -28.1235L627.02 4.93344" stroke="#66EB71"/>
<path opacity="0.5" d="M693.022 -28.1235L660.021 4.93344" stroke="#66EB71"/>
<path opacity="0.53" d="M726.023 -28.1235L693.021 4.93344" stroke="#66EB71"/>
<path opacity="0.55" d="M759.024 -28.1235L726.023 4.93344" stroke="#66EB71"/>
<path opacity="0.57" d="M759.024 -28.1235L792.025 4.93344" stroke="#66EB71"/>
<path opacity="0.05" d="M0 4.93359L33.001 37.9906" stroke="#66EB71"/>
<path opacity="0.07" d="M66.002 4.93359L33.001 37.9906" stroke="#66EB71"/>
<path opacity="0.1" d="M99.003 4.93359L66.002 37.9906" stroke="#66EB71"/>
<path opacity="0.12" d="M132.004 4.93359L99.0029 37.9906" stroke="#66EB71"/>
<path opacity="0.14" d="M132.004 4.93359L165.005 37.9906" stroke="#66EB71"/>
<path opacity="0.16" d="M165.005 4.93359L198.006 37.9906" stroke="#66EB71"/>
<path opacity="0.19" d="M231.007 4.93359L198.006 37.9906" stroke="#66EB71"/>
<path opacity="0.21" d="M231.007 4.93359L264.008 37.9906" stroke="#66EB71"/>
<path opacity="0.23" d="M264.008 4.93359L297.009 37.9906" stroke="#66EB71"/>
<path opacity="0.25" d="M330.01 4.93359L297.009 37.9906" stroke="#66EB71"/>
<path opacity="0.28" d="M363.011 4.93359L330.01 37.9906" stroke="#66EB71"/>
<path opacity="0.3" d="M396.012 4.93359L363.011 37.9906" stroke="#66EB71"/>
<path opacity="0.32" d="M429.014 4.93359L396.013 37.9906" stroke="#66EB71"/>
<path opacity="0.35" d="M429.014 4.93359L462.015 37.9906" stroke="#66EB71"/>
<path opacity="0.37" d="M462.014 4.93359L495.015 37.9906" stroke="#66EB71"/>
<path opacity="0.39" d="M495.016 4.93359L528.017 37.9906" stroke="#66EB71"/>
<path opacity="0.41" d="M528.017 4.93359L561.018 37.9906" stroke="#66EB71"/>
<path opacity="0.44" d="M594.019 4.93359L561.018 37.9906" stroke="#66EB71"/>
<path opacity="0.46" d="M594.019 4.93359L627.02 37.9906" stroke="#66EB71"/>
<path opacity="0.48" d="M627.02 4.93359L660.021 37.9906" stroke="#66EB71"/>
<path opacity="0.5" d="M693.022 4.93359L660.021 37.9906" stroke="#66EB71"/>
<path opacity="0.53" d="M693.021 4.93359L726.023 37.9906" stroke="#66EB71"/>
<path opacity="0.55" d="M759.024 4.93359L726.023 37.9906" stroke="#66EB71"/>
<path opacity="0.57" d="M792.025 4.93359L759.024 37.9906" stroke="#66EB71"/>
</g>
<g opacity="0.2" clip-path="url(#clip1_850_23652)">
<path opacity="0.05" d="M0 22.4341L33.001 55.4911" stroke="#66EB71"/>
<path opacity="0.07" d="M33.001 22.4341L66.002 55.4911" stroke="#66EB71"/>
<path opacity="0.1" d="M99.003 22.4341L66.002 55.4911" stroke="#66EB71"/>
<path opacity="0.12" d="M99.0029 22.4341L132.004 55.4911" stroke="#66EB71"/>
<path opacity="0.14" d="M165.005 22.4341L132.004 55.4911" stroke="#66EB71"/>
<path opacity="0.16" d="M198.006 22.4341L165.005 55.4911" stroke="#66EB71"/>
<path opacity="0.19" d="M198.006 22.4341L231.007 55.4911" stroke="#66EB71"/>
<path opacity="0.21" d="M231.007 22.4341L264.008 55.4911" stroke="#66EB71"/>
<path opacity="0.23" d="M264.008 22.4341L297.009 55.4911" stroke="#66EB71"/>
<path opacity="0.25" d="M330.01 22.4341L297.009 55.4911" stroke="#66EB71"/>
<path opacity="0.28" d="M363.011 22.4341L330.01 55.4911" stroke="#66EB71"/>
<path opacity="0.3" d="M363.011 22.4341L396.012 55.4911" stroke="#66EB71"/>
<path opacity="0.32" d="M396.013 22.4341L429.014 55.4911" stroke="#66EB71"/>
<path opacity="0.35" d="M429.014 22.4341L462.015 55.4911" stroke="#66EB71"/>
<path opacity="0.37" d="M462.014 22.4341L495.015 55.4911" stroke="#66EB71"/>
<path opacity="0.39" d="M495.016 22.4341L528.017 55.4911" stroke="#66EB71"/>
<path opacity="0.41" d="M561.018 22.4341L528.017 55.4911" stroke="#66EB71"/>
<path opacity="0.44" d="M561.018 22.4341L594.019 55.4911" stroke="#66EB71"/>
<path opacity="0.46" d="M627.02 22.4341L594.019 55.4911" stroke="#66EB71"/>
<path opacity="0.48" d="M627.02 22.4341L660.021 55.4911" stroke="#66EB71"/>
<path opacity="0.5" d="M660.021 22.4341L693.022 55.4911" stroke="#66EB71"/>
<path opacity="0.53" d="M726.023 22.4341L693.021 55.4911" stroke="#66EB71"/>
<path opacity="0.55" d="M759.024 22.4341L726.023 55.4911" stroke="#66EB71"/>
<path opacity="0.57" d="M759.024 22.4341L792.025 55.4911" stroke="#66EB71"/>
<path opacity="0.05" d="M0 55.4912L33.001 88.5482" stroke="#66EB71"/>
<path opacity="0.07" d="M66.002 55.4912L33.001 88.5482" stroke="#66EB71"/>
<path opacity="0.1" d="M99.003 55.4912L66.002 88.5482" stroke="#66EB71"/>
<path opacity="0.12" d="M132.004 55.4912L99.0029 88.5482" stroke="#66EB71"/>
<path opacity="0.14" d="M165.005 55.4912L132.004 88.5482" stroke="#66EB71"/>
<path opacity="0.16" d="M198.006 55.4912L165.005 88.5482" stroke="#66EB71"/>
<path opacity="0.19" d="M231.007 55.4912L198.006 88.5482" stroke="#66EB71"/>
<path opacity="0.21" d="M231.007 55.4912L264.008 88.5482" stroke="#66EB71"/>
<path opacity="0.23" d="M297.009 55.4912L264.008 88.5482" stroke="#66EB71"/>
<path opacity="0.25" d="M330.01 55.4912L297.009 88.5482" stroke="#66EB71"/>
<path opacity="0.28" d="M363.011 55.4912L330.01 88.5482" stroke="#66EB71"/>
<path opacity="0.3" d="M396.012 55.4912L363.011 88.5482" stroke="#66EB71"/>
<path opacity="0.32" d="M396.013 55.4912L429.014 88.5482" stroke="#66EB71"/>
<path opacity="0.35" d="M462.015 55.4912L429.014 88.5482" stroke="#66EB71"/>
<path opacity="0.37" d="M462.014 55.4912L495.015 88.5482" stroke="#66EB71"/>
<path opacity="0.39" d="M528.017 55.4912L495.016 88.5482" stroke="#66EB71"/>
<path opacity="0.41" d="M561.018 55.4912L528.017 88.5482" stroke="#66EB71"/>
<path opacity="0.44" d="M594.019 55.4912L561.018 88.5482" stroke="#66EB71"/>
<path opacity="0.46" d="M627.02 55.4912L594.019 88.5482" stroke="#66EB71"/>
<path opacity="0.48" d="M660.021 55.4912L627.02 88.5482" stroke="#66EB71"/>
<path opacity="0.5" d="M693.022 55.4912L660.021 88.5482" stroke="#66EB71"/>
<path opacity="0.53" d="M693.021 55.4912L726.023 88.5482" stroke="#66EB71"/>
<path opacity="0.55" d="M759.024 55.4912L726.023 88.5482" stroke="#66EB71"/>
<path opacity="0.57" d="M759.024 55.4912L792.025 88.5482" stroke="#66EB71"/>
<path opacity="0.05" d="M0 88.5479L33.001 121.605" stroke="#66EB71"/>
<path opacity="0.07" d="M66.002 88.5479L33.001 121.605" stroke="#66EB71"/>
<path opacity="0.1" d="M66.002 88.5479L99.003 121.605" stroke="#66EB71"/>
<path opacity="0.12" d="M99.0029 88.5479L132.004 121.605" stroke="#66EB71"/>
<path opacity="0.14" d="M165.005 88.5479L132.004 121.605" stroke="#66EB71"/>
<path opacity="0.16" d="M165.005 88.5479L198.006 121.605" stroke="#66EB71"/>
<path opacity="0.19" d="M231.007 88.5479L198.006 121.605" stroke="#66EB71"/>
<path opacity="0.21" d="M264.008 88.5479L231.007 121.605" stroke="#66EB71"/>
<path opacity="0.23" d="M264.008 88.5479L297.009 121.605" stroke="#66EB71"/>
<path opacity="0.25" d="M330.01 88.5479L297.009 121.605" stroke="#66EB71"/>
<path opacity="0.28" d="M330.01 88.5479L363.011 121.605" stroke="#66EB71"/>
<path opacity="0.3" d="M396.012 88.5479L363.011 121.605" stroke="#66EB71"/>
<path opacity="0.32" d="M429.014 88.5479L396.013 121.605" stroke="#66EB71"/>
<path opacity="0.35" d="M429.014 88.5479L462.015 121.605" stroke="#66EB71"/>
<path opacity="0.37" d="M495.015 88.5483L462.014 121.605" stroke="#66EB71"/>
<path opacity="0.39" d="M495.016 88.5479L528.017 121.605" stroke="#66EB71"/>
<path opacity="0.41" d="M528.017 88.5479L561.018 121.605" stroke="#66EB71"/>
<path opacity="0.44" d="M594.019 88.5479L561.018 121.605" stroke="#66EB71"/>
<path opacity="0.46" d="M594.019 88.5479L627.02 121.605" stroke="#66EB71"/>
<path opacity="0.48" d="M627.02 88.5479L660.021 121.605" stroke="#66EB71"/>
<path opacity="0.5" d="M693.022 88.5479L660.021 121.605" stroke="#66EB71"/>
<path opacity="0.53" d="M693.021 88.5479L726.023 121.605" stroke="#66EB71"/>
<path opacity="0.55" d="M726.023 88.5479L759.024 121.605" stroke="#66EB71"/>
<path opacity="0.57" d="M759.024 88.5479L792.025 121.605" stroke="#66EB71"/>
<path opacity="0.05" d="M0 121.605L33.001 154.662" stroke="#66EB71"/>
<path opacity="0.07" d="M33.001 121.605L66.002 154.662" stroke="#66EB71"/>
<path opacity="0.1" d="M66.002 121.605L99.003 154.662" stroke="#66EB71"/>
<path opacity="0.12" d="M99.0029 121.605L132.004 154.662" stroke="#66EB71"/>
<path opacity="0.14" d="M132.004 121.605L165.005 154.662" stroke="#66EB71"/>
<path opacity="0.16" d="M198.006 121.605L165.005 154.662" stroke="#66EB71"/>
<path opacity="0.19" d="M198.006 121.605L231.007 154.662" stroke="#66EB71"/>
<path opacity="0.21" d="M264.008 121.605L231.007 154.662" stroke="#66EB71"/>
<path opacity="0.23" d="M264.008 121.605L297.009 154.662" stroke="#66EB71"/>
<path opacity="0.25" d="M297.009 121.605L330.01 154.662" stroke="#66EB71"/>
<path opacity="0.28" d="M363.011 121.605L330.01 154.662" stroke="#66EB71"/>
<path opacity="0.3" d="M396.012 121.605L363.011 154.662" stroke="#66EB71"/>
<path opacity="0.32" d="M429.014 121.605L396.013 154.662" stroke="#66EB71"/>
<path opacity="0.35" d="M429.014 121.605L462.015 154.662" stroke="#66EB71"/>
<path opacity="0.37" d="M495.015 121.605L462.014 154.662" stroke="#66EB71"/>
<path opacity="0.39" d="M495.016 121.605L528.017 154.662" stroke="#66EB71"/>
<path opacity="0.41" d="M561.018 121.605L528.017 154.662" stroke="#66EB71"/>
<path opacity="0.44" d="M594.019 121.605L561.018 154.662" stroke="#66EB71"/>
<path opacity="0.46" d="M594.019 121.605L627.02 154.662" stroke="#66EB71"/>
<path opacity="0.48" d="M660.021 121.605L627.02 154.662" stroke="#66EB71"/>
<path opacity="0.5" d="M660.021 121.605L693.022 154.662" stroke="#66EB71"/>
<path opacity="0.53" d="M693.021 121.605L726.023 154.662" stroke="#66EB71"/>
<path opacity="0.55" d="M759.024 121.605L726.023 154.662" stroke="#66EB71"/>
<path opacity="0.57" d="M759.024 121.605L792.025 154.662" stroke="#66EB71"/>
<path opacity="0.05" d="M33.001 154.662L0 187.719" stroke="#66EB71"/>
<path opacity="0.07" d="M33.001 154.662L66.002 187.719" stroke="#66EB71"/>
<path opacity="0.1" d="M66.002 154.662L99.003 187.719" stroke="#66EB71"/>
<path opacity="0.12" d="M99.0029 154.662L132.004 187.719" stroke="#66EB71"/>
<path opacity="0.14" d="M132.004 154.662L165.005 187.719" stroke="#66EB71"/>
<path opacity="0.16" d="M165.005 154.662L198.006 187.719" stroke="#66EB71"/>
<path opacity="0.19" d="M198.006 154.662L231.007 187.719" stroke="#66EB71"/>
<path opacity="0.21" d="M264.008 154.662L231.007 187.719" stroke="#66EB71"/>
<path opacity="0.23" d="M297.009 154.662L264.008 187.719" stroke="#66EB71"/>
<path opacity="0.25" d="M330.01 154.662L297.009 187.719" stroke="#66EB71"/>
<path opacity="0.28" d="M363.011 154.662L330.01 187.719" stroke="#66EB71"/>
<path opacity="0.3" d="M363.011 154.662L396.012 187.719" stroke="#66EB71"/>
<path opacity="0.32" d="M429.014 154.662L396.013 187.719" stroke="#66EB71"/>
<path opacity="0.35" d="M429.014 154.662L462.015 187.719" stroke="#66EB71"/>
<path opacity="0.37" d="M462.014 154.662L495.015 187.719" stroke="#66EB71"/>
<path opacity="0.39" d="M528.017 154.662L495.016 187.719" stroke="#66EB71"/>
<path opacity="0.41" d="M561.018 154.662L528.017 187.719" stroke="#66EB71"/>
<path opacity="0.44" d="M594.019 154.662L561.018 187.719" stroke="#66EB71"/>
<path opacity="0.46" d="M627.02 154.662L594.019 187.719" stroke="#66EB71"/>
<path opacity="0.48" d="M627.02 154.662L660.021 187.719" stroke="#66EB71"/>
<path opacity="0.5" d="M693.022 154.662L660.021 187.719" stroke="#66EB71"/>
<path opacity="0.53" d="M693.021 154.662L726.023 187.719" stroke="#66EB71"/>
<path opacity="0.55" d="M759.024 154.662L726.023 187.719" stroke="#66EB71"/>
<path opacity="0.57" d="M759.024 154.662L792.025 187.719" stroke="#66EB71"/>
<path opacity="0.05" d="M33.001 187.719L0 220.776" stroke="#66EB71"/>
<path opacity="0.07" d="M66.002 187.719L33.001 220.776" stroke="#66EB71"/>
<path opacity="0.1" d="M66.002 187.719L99.003 220.776" stroke="#66EB71"/>
<path opacity="0.12" d="M132.004 187.719L99.0029 220.776" stroke="#66EB71"/>
<path opacity="0.14" d="M165.005 187.719L132.004 220.776" stroke="#66EB71"/>
<path opacity="0.16" d="M198.006 187.719L165.005 220.776" stroke="#66EB71"/>
<path opacity="0.19" d="M198.006 187.719L231.007 220.776" stroke="#66EB71"/>
<path opacity="0.21" d="M231.007 187.719L264.008 220.776" stroke="#66EB71"/>
<path opacity="0.23" d="M264.008 187.719L297.009 220.776" stroke="#66EB71"/>
<path opacity="0.25" d="M330.01 187.719L297.009 220.776" stroke="#66EB71"/>
<path opacity="0.28" d="M330.01 187.719L363.011 220.776" stroke="#66EB71"/>
<path opacity="0.3" d="M363.011 187.719L396.012 220.776" stroke="#66EB71"/>
<path opacity="0.32" d="M396.013 187.719L429.014 220.776" stroke="#66EB71"/>
<path opacity="0.35" d="M462.015 187.719L429.014 220.776" stroke="#66EB71"/>
<path opacity="0.37" d="M495.015 187.719L462.014 220.776" stroke="#66EB71"/>
<path opacity="0.39" d="M528.017 187.719L495.016 220.776" stroke="#66EB71"/>
<path opacity="0.41" d="M561.018 187.719L528.017 220.776" stroke="#66EB71"/>
<path opacity="0.44" d="M561.018 187.719L594.019 220.776" stroke="#66EB71"/>
<path opacity="0.46" d="M627.02 187.719L594.019 220.776" stroke="#66EB71"/>
<path opacity="0.48" d="M660.021 187.719L627.02 220.776" stroke="#66EB71"/>
<path opacity="0.5" d="M693.022 187.719L660.021 220.776" stroke="#66EB71"/>
<path opacity="0.53" d="M693.021 187.719L726.023 220.776" stroke="#66EB71"/>
<path opacity="0.55" d="M759.024 187.719L726.023 220.776" stroke="#66EB71"/>
<path opacity="0.57" d="M792.025 187.719L759.024 220.776" stroke="#66EB71"/>
<path opacity="0.05" d="M0 220.776L33.001 253.833" stroke="#66EB71"/>
<path opacity="0.07" d="M66.002 220.776L33.001 253.833" stroke="#66EB71"/>
<path opacity="0.1" d="M99.003 220.776L66.002 253.833" stroke="#66EB71"/>
<path opacity="0.12" d="M132.004 220.776L99.0029 253.833" stroke="#66EB71"/>
<path opacity="0.14" d="M165.005 220.776L132.004 253.833" stroke="#66EB71"/>
<path opacity="0.16" d="M165.005 220.776L198.006 253.833" stroke="#66EB71"/>
<path opacity="0.19" d="M231.007 220.776L198.006 253.833" stroke="#66EB71"/>
<path opacity="0.21" d="M231.007 220.776L264.008 253.833" stroke="#66EB71"/>
<path opacity="0.23" d="M264.008 220.776L297.009 253.833" stroke="#66EB71"/>
<path opacity="0.25" d="M330.01 220.776L297.009 253.833" stroke="#66EB71"/>
<path opacity="0.28" d="M330.01 220.776L363.011 253.833" stroke="#66EB71"/>
<path opacity="0.3" d="M396.012 220.776L363.011 253.833" stroke="#66EB71"/>
<path opacity="0.32" d="M429.014 220.776L396.013 253.833" stroke="#66EB71"/>
<path opacity="0.35" d="M429.014 220.776L462.015 253.833" stroke="#66EB71"/>
<path opacity="0.37" d="M495.015 220.776L462.014 253.833" stroke="#66EB71"/>
<path opacity="0.39" d="M528.017 220.776L495.016 253.833" stroke="#66EB71"/>
<path opacity="0.41" d="M528.017 220.776L561.018 253.833" stroke="#66EB71"/>
<path opacity="0.44" d="M594.019 220.776L561.018 253.833" stroke="#66EB71"/>
<path opacity="0.46" d="M627.02 220.776L594.019 253.833" stroke="#66EB71"/>
<path opacity="0.48" d="M627.02 220.776L660.021 253.833" stroke="#66EB71"/>
<path opacity="0.5" d="M693.022 220.776L660.021 253.833" stroke="#66EB71"/>
<path opacity="0.53" d="M693.021 220.776L726.023 253.833" stroke="#66EB71"/>
<path opacity="0.55" d="M726.023 220.776L759.024 253.833" stroke="#66EB71"/>
<path opacity="0.57" d="M792.025 220.776L759.024 253.833" stroke="#66EB71"/>
<path opacity="0.05" d="M0 253.833L33.001 286.89" stroke="#66EB71"/>
<path opacity="0.07" d="M33.001 253.833L66.002 286.89" stroke="#66EB71"/>
<path opacity="0.1" d="M99.003 253.833L66.002 286.89" stroke="#66EB71"/>
<path opacity="0.12" d="M132.004 253.833L99.0029 286.89" stroke="#66EB71"/>
<path opacity="0.14" d="M132.004 253.833L165.005 286.89" stroke="#66EB71"/>
<path opacity="0.16" d="M165.005 253.833L198.006 286.89" stroke="#66EB71"/>
<path opacity="0.19" d="M198.006 253.833L231.007 286.89" stroke="#66EB71"/>
<path opacity="0.21" d="M264.008 253.833L231.007 286.89" stroke="#66EB71"/>
<path opacity="0.23" d="M264.008 253.833L297.009 286.89" stroke="#66EB71"/>
<path opacity="0.25" d="M297.009 253.833L330.01 286.89" stroke="#66EB71"/>
<path opacity="0.28" d="M330.01 253.833L363.011 286.89" stroke="#66EB71"/>
<path opacity="0.3" d="M396.012 253.833L363.011 286.89" stroke="#66EB71"/>
<path opacity="0.32" d="M396.013 253.833L429.014 286.89" stroke="#66EB71"/>
<path opacity="0.35" d="M429.014 253.833L462.015 286.89" stroke="#66EB71"/>
<path opacity="0.37" d="M495.015 253.833L462.014 286.89" stroke="#66EB71"/>
<path opacity="0.39" d="M528.017 253.833L495.016 286.89" stroke="#66EB71"/>
<path opacity="0.41" d="M561.018 253.833L528.017 286.89" stroke="#66EB71"/>
<path opacity="0.44" d="M594.019 253.833L561.018 286.89" stroke="#66EB71"/>
<path opacity="0.46" d="M627.02 253.833L594.019 286.89" stroke="#66EB71"/>
<path opacity="0.48" d="M660.021 253.833L627.02 286.89" stroke="#66EB71"/>
<path opacity="0.5" d="M693.022 253.833L660.021 286.89" stroke="#66EB71"/>
<path opacity="0.53" d="M726.023 253.833L693.021 286.89" stroke="#66EB71"/>
<path opacity="0.55" d="M759.024 253.833L726.023 286.89" stroke="#66EB71"/>
<path opacity="0.57" d="M792.025 253.833L759.024 286.89" stroke="#66EB71"/>
<path opacity="0.05" d="M33.001 286.89L0 319.947" stroke="#66EB71"/>
<path opacity="0.07" d="M33.001 286.89L66.002 319.947" stroke="#66EB71"/>
<path opacity="0.1" d="M99.003 286.89L66.002 319.947" stroke="#66EB71"/>
<path opacity="0.12" d="M132.004 286.89L99.0029 319.947" stroke="#66EB71"/>
<path opacity="0.14" d="M132.004 286.89L165.005 319.947" stroke="#66EB71"/>
<path opacity="0.16" d="M165.005 286.89L198.006 319.947" stroke="#66EB71"/>
<path opacity="0.19" d="M198.006 286.89L231.007 319.947" stroke="#66EB71"/>
<path opacity="0.21" d="M264.008 286.89L231.007 319.947" stroke="#66EB71"/>
<path opacity="0.23" d="M297.009 286.89L264.008 319.947" stroke="#66EB71"/>
<path opacity="0.25" d="M297.009 286.89L330.01 319.947" stroke="#66EB71"/>
<path opacity="0.28" d="M363.011 286.89L330.01 319.947" stroke="#66EB71"/>
<path opacity="0.3" d="M363.011 286.89L396.012 319.947" stroke="#66EB71"/>
<path opacity="0.32" d="M396.013 286.89L429.014 319.947" stroke="#66EB71"/>
<path opacity="0.35" d="M462.015 286.89L429.014 319.947" stroke="#66EB71"/>
<path opacity="0.37" d="M462.014 286.89L495.015 319.947" stroke="#66EB71"/>
<path opacity="0.39" d="M528.017 286.89L495.016 319.947" stroke="#66EB71"/>
<path opacity="0.41" d="M528.017 286.89L561.018 319.947" stroke="#66EB71"/>
<path opacity="0.44" d="M561.018 286.89L594.019 319.947" stroke="#66EB71"/>
<path opacity="0.46" d="M594.019 286.89L627.02 319.947" stroke="#66EB71"/>
<path opacity="0.48" d="M660.021 286.89L627.02 319.947" stroke="#66EB71"/>
<path opacity="0.5" d="M693.022 286.89L660.021 319.947" stroke="#66EB71"/>
<path opacity="0.53" d="M726.023 286.89L693.021 319.947" stroke="#66EB71"/>
<path opacity="0.55" d="M726.023 286.89L759.024 319.947" stroke="#66EB71"/>
<path opacity="0.57" d="M792.025 286.89L759.024 319.947" stroke="#66EB71"/>
<path opacity="0.05" d="M0 319.947L33.001 353.004" stroke="#66EB71"/>
<path opacity="0.07" d="M66.002 319.947L33.001 353.004" stroke="#66EB71"/>
<path opacity="0.1" d="M66.002 319.947L99.003 353.004" stroke="#66EB71"/>
<path opacity="0.12" d="M99.0034 319.947L132.004 353.004" stroke="#66EB71"/>
<path opacity="0.14" d="M132.004 319.947L165.005 353.004" stroke="#66EB71"/>
<path opacity="0.16" d="M198.006 319.947L165.005 353.004" stroke="#66EB71"/>
<path opacity="0.19" d="M231.007 319.947L198.006 353.004" stroke="#66EB71"/>
<path opacity="0.21" d="M264.008 319.947L231.007 353.004" stroke="#66EB71"/>
<path opacity="0.23" d="M264.008 319.947L297.009 353.004" stroke="#66EB71"/>
<path opacity="0.25" d="M297.009 319.947L330.01 353.004" stroke="#66EB71"/>
<path opacity="0.28" d="M330.01 319.947L363.011 353.004" stroke="#66EB71"/>
<path opacity="0.3" d="M363.012 319.947L396.013 353.004" stroke="#66EB71"/>
<path opacity="0.32" d="M429.014 319.947L396.013 353.004" stroke="#66EB71"/>
<path opacity="0.35" d="M429.014 319.947L462.015 353.004" stroke="#66EB71"/>
<path opacity="0.37" d="M462.014 319.947L495.015 353.004" stroke="#66EB71"/>
<path opacity="0.39" d="M495.016 319.947L528.017 353.004" stroke="#66EB71"/>
<path opacity="0.41" d="M561.018 319.947L528.017 353.004" stroke="#66EB71"/>
<path opacity="0.44" d="M594.019 319.947L561.018 353.004" stroke="#66EB71"/>
<path opacity="0.46" d="M594.019 319.947L627.02 353.004" stroke="#66EB71"/>
<path opacity="0.48" d="M627.02 319.947L660.021 353.004" stroke="#66EB71"/>
<path opacity="0.5" d="M660.021 319.947L693.022 353.004" stroke="#66EB71"/>
<path opacity="0.53" d="M726.023 319.947L693.022 353.004" stroke="#66EB71"/>
<path opacity="0.55" d="M759.024 319.947L726.023 353.004" stroke="#66EB71"/>
<path opacity="0.57" d="M759.024 319.947L792.025 353.004" stroke="#66EB71"/>
<path opacity="0.05" d="M33.001 353.004L0 386.061" stroke="#66EB71"/>
<path opacity="0.07" d="M66.002 353.004L33.001 386.061" stroke="#66EB71"/>
<path opacity="0.1" d="M66.002 353.004L99.003 386.061" stroke="#66EB71"/>
<path opacity="0.12" d="M99.0029 353.004L132.004 386.061" stroke="#66EB71"/>
<path opacity="0.14" d="M165.005 353.004L132.004 386.061" stroke="#66EB71"/>
<path opacity="0.16" d="M198.006 353.004L165.005 386.061" stroke="#66EB71"/>
<path opacity="0.19" d="M198.006 353.004L231.007 386.061" stroke="#66EB71"/>
<path opacity="0.21" d="M231.007 353.004L264.008 386.061" stroke="#66EB71"/>
<path opacity="0.23" d="M297.009 353.004L264.008 386.061" stroke="#66EB71"/>
<path opacity="0.25" d="M297.009 353.004L330.01 386.061" stroke="#66EB71"/>
<path opacity="0.28" d="M330.01 353.004L363.011 386.061" stroke="#66EB71"/>
<path opacity="0.3" d="M363.011 353.004L396.012 386.061" stroke="#66EB71"/>
<path opacity="0.32" d="M429.014 353.004L396.013 386.061" stroke="#66EB71"/>
<path opacity="0.35" d="M462.015 353.004L429.014 386.061" stroke="#66EB71"/>
<path opacity="0.37" d="M462.014 353.004L495.015 386.061" stroke="#66EB71"/>
<path opacity="0.39" d="M528.017 353.004L495.016 386.061" stroke="#66EB71"/>
<path opacity="0.41" d="M528.017 353.004L561.018 386.061" stroke="#66EB71"/>
<path opacity="0.44" d="M561.018 353.004L594.019 386.061" stroke="#66EB71"/>
<path opacity="0.46" d="M594.019 353.004L627.02 386.061" stroke="#66EB71"/>
<path opacity="0.48" d="M627.02 353.004L660.021 386.061" stroke="#66EB71"/>
<path opacity="0.5" d="M660.021 353.004L693.022 386.061" stroke="#66EB71"/>
<path opacity="0.53" d="M726.023 353.004L693.021 386.061" stroke="#66EB71"/>
<path opacity="0.55" d="M759.024 353.004L726.023 386.061" stroke="#66EB71"/>
<path opacity="0.57" d="M759.024 353.004L792.025 386.061" stroke="#66EB71"/>
<path opacity="0.05" d="M0 386.061L33.001 419.118" stroke="#66EB71"/>
<path opacity="0.07" d="M66.002 386.061L33.001 419.118" stroke="#66EB71"/>
<path opacity="0.1" d="M66.002 386.061L99.003 419.118" stroke="#66EB71"/>
<path opacity="0.12" d="M132.004 386.061L99.0029 419.118" stroke="#66EB71"/>
<path opacity="0.14" d="M165.005 386.061L132.004 419.118" stroke="#66EB71"/>
<path opacity="0.16" d="M198.006 386.061L165.005 419.118" stroke="#66EB71"/>
<path opacity="0.19" d="M231.007 386.061L198.006 419.118" stroke="#66EB71"/>
<path opacity="0.21" d="M231.007 386.061L264.008 419.118" stroke="#66EB71"/>
<path opacity="0.23" d="M297.009 386.061L264.008 419.118" stroke="#66EB71"/>
<path opacity="0.25" d="M330.01 386.061L297.009 419.118" stroke="#66EB71"/>
<path opacity="0.28" d="M330.01 386.061L363.011 419.118" stroke="#66EB71"/>
<path opacity="0.3" d="M363.011 386.061L396.012 419.118" stroke="#66EB71"/>
<path opacity="0.32" d="M429.014 386.061L396.013 419.118" stroke="#66EB71"/>
<path opacity="0.35" d="M429.014 386.061L462.015 419.118" stroke="#66EB71"/>
<path opacity="0.37" d="M495.015 386.061L462.014 419.118" stroke="#66EB71"/>
<path opacity="0.39" d="M528.017 386.061L495.016 419.118" stroke="#66EB71"/>
<path opacity="0.41" d="M528.017 386.061L561.018 419.118" stroke="#66EB71"/>
<path opacity="0.44" d="M561.018 386.061L594.019 419.118" stroke="#66EB71"/>
<path opacity="0.46" d="M627.02 386.061L594.019 419.118" stroke="#66EB71"/>
<path opacity="0.48" d="M660.021 386.061L627.02 419.118" stroke="#66EB71"/>
<path opacity="0.5" d="M660.021 386.061L693.022 419.118" stroke="#66EB71"/>
<path opacity="0.53" d="M693.021 386.061L726.023 419.118" stroke="#66EB71"/>
<path opacity="0.55" d="M726.023 386.061L759.024 419.118" stroke="#66EB71"/>
<path opacity="0.57" d="M759.024 386.061L792.025 419.118" stroke="#66EB71"/>
<path opacity="0.05" d="M0 419.118L33.001 452.175" stroke="#66EB71"/>
<path opacity="0.07" d="M66.002 419.118L33.001 452.175" stroke="#66EB71"/>
<path opacity="0.1" d="M66.002 419.118L99.003 452.175" stroke="#66EB71"/>
<path opacity="0.12" d="M99.0029 419.118L132.004 452.175" stroke="#66EB71"/>
<path opacity="0.14" d="M165.005 419.118L132.004 452.175" stroke="#66EB71"/>
<path opacity="0.16" d="M165.005 419.118L198.006 452.175" stroke="#66EB71"/>
<path opacity="0.19" d="M198.006 419.118L231.007 452.175" stroke="#66EB71"/>
<path opacity="0.21" d="M231.007 419.118L264.008 452.175" stroke="#66EB71"/>
<path opacity="0.23" d="M297.009 419.118L264.008 452.175" stroke="#66EB71"/>
<path opacity="0.25" d="M297.009 419.118L330.01 452.175" stroke="#66EB71"/>
<path opacity="0.28" d="M363.011 419.118L330.01 452.175" stroke="#66EB71"/>
<path opacity="0.3" d="M363.011 419.118L396.012 452.175" stroke="#66EB71"/>
<path opacity="0.32" d="M429.014 419.118L396.013 452.175" stroke="#66EB71"/>
<path opacity="0.35" d="M462.015 419.118L429.014 452.175" stroke="#66EB71"/>
<path opacity="0.37" d="M462.014 419.118L495.015 452.175" stroke="#66EB71"/>
<path opacity="0.39" d="M495.016 419.118L528.017 452.175" stroke="#66EB71"/>
<path opacity="0.41" d="M561.018 419.118L528.017 452.175" stroke="#66EB71"/>
<path opacity="0.44" d="M561.018 419.118L594.019 452.175" stroke="#66EB71"/>
<path opacity="0.46" d="M594.019 419.118L627.02 452.175" stroke="#66EB71"/>
<path opacity="0.48" d="M627.02 419.118L660.021 452.175" stroke="#66EB71"/>
<path opacity="0.5" d="M693.022 419.118L660.021 452.175" stroke="#66EB71"/>
<path opacity="0.53" d="M693.021 419.118L726.023 452.175" stroke="#66EB71"/>
<path opacity="0.55" d="M726.023 419.118L759.024 452.175" stroke="#66EB71"/>
<path opacity="0.57" d="M792.025 419.118L759.024 452.175" stroke="#66EB71"/>
<path opacity="0.05" d="M0 452.175L33.001 485.232" stroke="#66EB71"/>
<path opacity="0.07" d="M66.002 452.175L33.001 485.232" stroke="#66EB71"/>
<path opacity="0.1" d="M66.002 452.175L99.003 485.232" stroke="#66EB71"/>
<path opacity="0.12" d="M132.004 452.175L99.0029 485.232" stroke="#66EB71"/>
<path opacity="0.14" d="M165.005 452.175L132.004 485.232" stroke="#66EB71"/>
<path opacity="0.16" d="M165.005 452.175L198.006 485.232" stroke="#66EB71"/>
<path opacity="0.19" d="M231.007 452.175L198.006 485.232" stroke="#66EB71"/>
<path opacity="0.21" d="M231.007 452.175L264.008 485.232" stroke="#66EB71"/>
<path opacity="0.23" d="M264.008 452.175L297.009 485.232" stroke="#66EB71"/>
<path opacity="0.25" d="M297.009 452.175L330.01 485.232" stroke="#66EB71"/>
<path opacity="0.28" d="M363.011 452.175L330.01 485.232" stroke="#66EB71"/>
<path opacity="0.3" d="M396.012 452.175L363.011 485.232" stroke="#66EB71"/>
<path opacity="0.32" d="M429.014 452.175L396.013 485.232" stroke="#66EB71"/>
<path opacity="0.35" d="M429.014 452.175L462.015 485.232" stroke="#66EB71"/>
<path opacity="0.37" d="M462.014 452.175L495.015 485.232" stroke="#66EB71"/>
<path opacity="0.39" d="M528.017 452.175L495.016 485.232" stroke="#66EB71"/>
<path opacity="0.41" d="M528.017 452.175L561.018 485.232" stroke="#66EB71"/>
<path opacity="0.44" d="M561.018 452.175L594.019 485.232" stroke="#66EB71"/>
<path opacity="0.46" d="M594.019 452.175L627.02 485.232" stroke="#66EB71"/>
<path opacity="0.48" d="M627.02 452.175L660.021 485.232" stroke="#66EB71"/>
<path opacity="0.5" d="M693.022 452.175L660.021 485.232" stroke="#66EB71"/>
<path opacity="0.53" d="M693.021 452.175L726.023 485.232" stroke="#66EB71"/>
<path opacity="0.55" d="M726.023 452.175L759.024 485.232" stroke="#66EB71"/>
<path opacity="0.57" d="M759.024 452.175L792.025 485.232" stroke="#66EB71"/>
<path opacity="0.05" d="M33.001 485.232L0 518.289" stroke="#66EB71"/>
<path opacity="0.07" d="M66.002 485.232L33.001 518.289" stroke="#66EB71"/>
<path opacity="0.1" d="M66.002 485.232L99.003 518.289" stroke="#66EB71"/>
<path opacity="0.12" d="M99.0029 485.232L132.004 518.289" stroke="#66EB71"/>
<path opacity="0.14" d="M132.004 485.232L165.005 518.289" stroke="#66EB71"/>
<path opacity="0.16" d="M165.005 485.232L198.006 518.289" stroke="#66EB71"/>
<path opacity="0.19" d="M231.007 485.232L198.006 518.289" stroke="#66EB71"/>
<path opacity="0.21" d="M231.007 485.232L264.008 518.289" stroke="#66EB71"/>
<path opacity="0.23" d="M264.008 485.232L297.009 518.289" stroke="#66EB71"/>
<path opacity="0.25" d="M330.01 485.232L297.009 518.289" stroke="#66EB71"/>
<path opacity="0.28" d="M363.011 485.232L330.01 518.289" stroke="#66EB71"/>
<path opacity="0.3" d="M363.011 485.232L396.012 518.289" stroke="#66EB71"/>
<path opacity="0.32" d="M429.014 485.232L396.013 518.289" stroke="#66EB71"/>
<path opacity="0.35" d="M462.015 485.232L429.014 518.289" stroke="#66EB71"/>
<path opacity="0.37" d="M495.015 485.232L462.014 518.289" stroke="#66EB71"/>
<path opacity="0.39" d="M495.016 485.232L528.017 518.289" stroke="#66EB71"/>
<path opacity="0.41" d="M561.018 485.232L528.017 518.289" stroke="#66EB71"/>
<path opacity="0.44" d="M594.019 485.232L561.018 518.289" stroke="#66EB71"/>
<path opacity="0.46" d="M627.02 485.232L594.019 518.289" stroke="#66EB71"/>
<path opacity="0.48" d="M627.02 485.232L660.021 518.289" stroke="#66EB71"/>
<path opacity="0.5" d="M660.021 485.232L693.022 518.289" stroke="#66EB71"/>
<path opacity="0.53" d="M726.023 485.232L693.021 518.289" stroke="#66EB71"/>
<path opacity="0.55" d="M726.023 485.232L759.024 518.289" stroke="#66EB71"/>
<path opacity="0.57" d="M759.024 485.232L792.025 518.289" stroke="#66EB71"/>
<path opacity="0.05" d="M33.001 518.289L0 551.346" stroke="#66EB71"/>
<path opacity="0.07" d="M66.002 518.289L33.001 551.346" stroke="#66EB71"/>
<path opacity="0.1" d="M99.003 518.289L66.002 551.346" stroke="#66EB71"/>
<path opacity="0.12" d="M99.0029 518.289L132.004 551.346" stroke="#66EB71"/>
<path opacity="0.14" d="M165.005 518.289L132.004 551.346" stroke="#66EB71"/>
<path opacity="0.16" d="M198.006 518.289L165.005 551.346" stroke="#66EB71"/>
<path opacity="0.19" d="M198.006 518.289L231.007 551.346" stroke="#66EB71"/>
<path opacity="0.21" d="M264.008 518.289L231.007 551.346" stroke="#66EB71"/>
<path opacity="0.23" d="M297.009 518.289L264.008 551.346" stroke="#66EB71"/>
<path opacity="0.25" d="M297.009 518.289L330.01 551.346" stroke="#66EB71"/>
<path opacity="0.28" d="M330.01 518.289L363.011 551.346" stroke="#66EB71"/>
<path opacity="0.3" d="M363.011 518.289L396.012 551.346" stroke="#66EB71"/>
<path opacity="0.32" d="M396.013 518.289L429.014 551.346" stroke="#66EB71"/>
<path opacity="0.35" d="M462.015 518.289L429.014 551.346" stroke="#66EB71"/>
<path opacity="0.37" d="M462.014 518.289L495.015 551.346" stroke="#66EB71"/>
<path opacity="0.39" d="M528.017 518.289L495.016 551.346" stroke="#66EB71"/>
<path opacity="0.41" d="M528.017 518.289L561.018 551.346" stroke="#66EB71"/>
<path opacity="0.44" d="M594.019 518.289L561.018 551.346" stroke="#66EB71"/>
<path opacity="0.46" d="M627.02 518.289L594.019 551.346" stroke="#66EB71"/>
<path opacity="0.48" d="M627.02 518.289L660.021 551.346" stroke="#66EB71"/>
<path opacity="0.5" d="M660.021 518.289L693.022 551.346" stroke="#66EB71"/>
<path opacity="0.53" d="M726.023 518.289L693.021 551.346" stroke="#66EB71"/>
<path opacity="0.55" d="M759.024 518.289L726.023 551.346" stroke="#66EB71"/>
<path opacity="0.57" d="M759.024 518.289L792.025 551.346" stroke="#66EB71"/>
<path opacity="0.05" d="M33.001 551.346L0 584.403" stroke="#66EB71"/>
<path opacity="0.07" d="M66.002 551.346L33.001 584.403" stroke="#66EB71"/>
<path opacity="0.1" d="M99.003 551.346L66.002 584.403" stroke="#66EB71"/>
<path opacity="0.12" d="M99.0034 551.346L132.004 584.403" stroke="#66EB71"/>
<path opacity="0.14" d="M165.005 551.346L132.004 584.403" stroke="#66EB71"/>
<path opacity="0.16" d="M165.005 551.346L198.006 584.403" stroke="#66EB71"/>
<path opacity="0.19" d="M231.007 551.346L198.006 584.403" stroke="#66EB71"/>
<path opacity="0.21" d="M231.007 551.346L264.008 584.403" stroke="#66EB71"/>
<path opacity="0.23" d="M264.008 551.346L297.009 584.403" stroke="#66EB71"/>
<path opacity="0.25" d="M297.009 551.346L330.01 584.403" stroke="#66EB71"/>
<path opacity="0.28" d="M330.01 551.346L363.011 584.403" stroke="#66EB71"/>
<path opacity="0.3" d="M396.013 551.346L363.012 584.403" stroke="#66EB71"/>
<path opacity="0.32" d="M429.014 551.346L396.013 584.403" stroke="#66EB71"/>
<path opacity="0.35" d="M429.014 551.346L462.015 584.403" stroke="#66EB71"/>
<path opacity="0.37" d="M462.014 551.346L495.015 584.403" stroke="#66EB71"/>
<path opacity="0.39" d="M528.017 551.346L495.016 584.403" stroke="#66EB71"/>
<path opacity="0.41" d="M561.018 551.346L528.017 584.403" stroke="#66EB71"/>
<path opacity="0.44" d="M561.018 551.346L594.019 584.403" stroke="#66EB71"/>
<path opacity="0.46" d="M594.019 551.346L627.02 584.403" stroke="#66EB71"/>
<path opacity="0.48" d="M627.02 551.346L660.021 584.403" stroke="#66EB71"/>
<path opacity="0.5" d="M660.021 551.346L693.022 584.403" stroke="#66EB71"/>
<path opacity="0.53" d="M726.023 551.346L693.022 584.403" stroke="#66EB71"/>
<path opacity="0.55" d="M759.024 551.346L726.023 584.403" stroke="#66EB71"/>
<path opacity="0.57" d="M792.025 551.346L759.024 584.403" stroke="#66EB71"/>
<path opacity="0.05" d="M33.001 584.403L0 617.46" stroke="#66EB71"/>
<path opacity="0.07" d="M66.002 584.403L33.001 617.46" stroke="#66EB71"/>
<path opacity="0.1" d="M66.002 584.403L99.003 617.46" stroke="#66EB71"/>
<path opacity="0.12" d="M99.0029 584.403L132.004 617.46" stroke="#66EB71"/>
<path opacity="0.14" d="M165.005 584.403L132.004 617.46" stroke="#66EB71"/>
<path opacity="0.16" d="M165.005 584.403L198.006 617.46" stroke="#66EB71"/>
<path opacity="0.19" d="M198.006 584.403L231.007 617.46" stroke="#66EB71"/>
<path opacity="0.21" d="M231.007 584.403L264.008 617.46" stroke="#66EB71"/>
<path opacity="0.23" d="M264.008 584.403L297.009 617.46" stroke="#66EB71"/>
<path opacity="0.25" d="M297.009 584.403L330.01 617.46" stroke="#66EB71"/>
<path opacity="0.28" d="M363.011 584.403L330.01 617.46" stroke="#66EB71"/>
<path opacity="0.3" d="M396.012 584.403L363.011 617.46" stroke="#66EB71"/>
<path opacity="0.32" d="M429.014 584.403L396.013 617.46" stroke="#66EB71"/>
<path opacity="0.35" d="M429.014 584.403L462.015 617.46" stroke="#66EB71"/>
<path opacity="0.37" d="M462.014 584.403L495.015 617.46" stroke="#66EB71"/>
<path opacity="0.39" d="M528.017 584.403L495.016 617.46" stroke="#66EB71"/>
<path opacity="0.41" d="M561.018 584.403L528.017 617.46" stroke="#66EB71"/>
<path opacity="0.44" d="M594.019 584.403L561.018 617.46" stroke="#66EB71"/>
<path opacity="0.46" d="M627.02 584.403L594.019 617.46" stroke="#66EB71"/>
<path opacity="0.48" d="M627.02 584.403L660.021 617.46" stroke="#66EB71"/>
<path opacity="0.5" d="M693.022 584.403L660.021 617.46" stroke="#66EB71"/>
<path opacity="0.53" d="M693.021 584.403L726.023 617.46" stroke="#66EB71"/>
<path opacity="0.55" d="M726.023 584.403L759.024 617.46" stroke="#66EB71"/>
<path opacity="0.57" d="M792.025 584.403L759.024 617.46" stroke="#66EB71"/>
<path opacity="0.05" d="M33.001 617.46L0 650.517" stroke="#66EB71"/>
<path opacity="0.07" d="M33.001 617.46L66.002 650.517" stroke="#66EB71"/>
<path opacity="0.1" d="M99.003 617.46L66.002 650.517" stroke="#66EB71"/>
<path opacity="0.12" d="M132.004 617.46L99.0029 650.517" stroke="#66EB71"/>
<path opacity="0.14" d="M165.005 617.46L132.004 650.517" stroke="#66EB71"/>
<path opacity="0.16" d="M198.006 617.46L165.005 650.517" stroke="#66EB71"/>
<path opacity="0.19" d="M231.007 617.46L198.006 650.517" stroke="#66EB71"/>
<path opacity="0.21" d="M231.007 617.46L264.008 650.517" stroke="#66EB71"/>
<path opacity="0.23" d="M264.008 617.46L297.009 650.517" stroke="#66EB71"/>
<path opacity="0.25" d="M330.01 617.46L297.009 650.517" stroke="#66EB71"/>
<path opacity="0.28" d="M330.01 617.46L363.011 650.517" stroke="#66EB71"/>
<path opacity="0.3" d="M363.011 617.46L396.012 650.517" stroke="#66EB71"/>
<path opacity="0.32" d="M396.013 617.46L429.014 650.517" stroke="#66EB71"/>
<path opacity="0.35" d="M429.014 617.46L462.015 650.517" stroke="#66EB71"/>
<path opacity="0.37" d="M495.015 617.46L462.014 650.517" stroke="#66EB71"/>
<path opacity="0.39" d="M495.016 617.46L528.017 650.517" stroke="#66EB71"/>
<path opacity="0.41" d="M528.017 617.46L561.018 650.517" stroke="#66EB71"/>
<path opacity="0.44" d="M594.019 617.46L561.018 650.517" stroke="#66EB71"/>
<path opacity="0.46" d="M627.02 617.46L594.019 650.517" stroke="#66EB71"/>
<path opacity="0.48" d="M627.02 617.46L660.021 650.517" stroke="#66EB71"/>
<path opacity="0.5" d="M693.022 617.46L660.021 650.517" stroke="#66EB71"/>
<path opacity="0.53" d="M693.021 617.46L726.023 650.517" stroke="#66EB71"/>
<path opacity="0.55" d="M726.023 617.46L759.024 650.517" stroke="#66EB71"/>
<path opacity="0.57" d="M792.025 617.46L759.024 650.517" stroke="#66EB71"/>
<path opacity="0.05" d="M33.001 650.517L0 683.574" stroke="#66EB71"/>
<path opacity="0.07" d="M33.001 650.517L66.002 683.574" stroke="#66EB71"/>
<path opacity="0.1" d="M66.002 650.517L99.003 683.574" stroke="#66EB71"/>
<path opacity="0.12" d="M132.004 650.517L99.0029 683.574" stroke="#66EB71"/>
<path opacity="0.14" d="M165.005 650.517L132.004 683.574" stroke="#66EB71"/>
<path opacity="0.16" d="M198.006 650.517L165.005 683.574" stroke="#66EB71"/>
<path opacity="0.19" d="M198.006 650.517L231.007 683.574" stroke="#66EB71"/>
<path opacity="0.21" d="M231.007 650.517L264.008 683.574" stroke="#66EB71"/>
<path opacity="0.23" d="M297.009 650.517L264.008 683.574" stroke="#66EB71"/>
<path opacity="0.25" d="M330.01 650.517L297.009 683.574" stroke="#66EB71"/>
<path opacity="0.28" d="M330.01 650.517L363.011 683.574" stroke="#66EB71"/>
<path opacity="0.3" d="M396.012 650.517L363.011 683.574" stroke="#66EB71"/>
<path opacity="0.32" d="M396.013 650.517L429.014 683.574" stroke="#66EB71"/>
<path opacity="0.35" d="M429.014 650.517L462.015 683.574" stroke="#66EB71"/>
<path opacity="0.37" d="M462.014 650.517L495.015 683.574" stroke="#66EB71"/>
<path opacity="0.39" d="M495.016 650.517L528.017 683.574" stroke="#66EB71"/>
<path opacity="0.41" d="M528.017 650.517L561.018 683.574" stroke="#66EB71"/>
<path opacity="0.44" d="M561.018 650.517L594.019 683.574" stroke="#66EB71"/>
<path opacity="0.46" d="M594.019 650.517L627.02 683.574" stroke="#66EB71"/>
<path opacity="0.48" d="M627.02 650.517L660.021 683.574" stroke="#66EB71"/>
<path opacity="0.5" d="M660.021 650.517L693.022 683.574" stroke="#66EB71"/>
<path opacity="0.53" d="M726.023 650.517L693.021 683.574" stroke="#66EB71"/>
<path opacity="0.55" d="M759.024 650.517L726.023 683.574" stroke="#66EB71"/>
<path opacity="0.57" d="M792.025 650.517L759.024 683.574" stroke="#66EB71"/>
<path opacity="0.05" d="M0 683.574L33.001 716.631" stroke="#66EB71"/>
<path opacity="0.07" d="M66.002 683.574L33.001 716.631" stroke="#66EB71"/>
<path opacity="0.1" d="M66.002 683.574L99.003 716.631" stroke="#66EB71"/>
<path opacity="0.12" d="M132.004 683.574L99.0034 716.631" stroke="#66EB71"/>
<path opacity="0.14" d="M165.005 683.574L132.004 716.631" stroke="#66EB71"/>
<path opacity="0.16" d="M198.006 683.574L165.005 716.631" stroke="#66EB71"/>
<path opacity="0.19" d="M231.007 683.574L198.006 716.631" stroke="#66EB71"/>
<path opacity="0.21" d="M231.007 683.574L264.008 716.631" stroke="#66EB71"/>
<path opacity="0.23" d="M297.009 683.574L264.008 716.631" stroke="#66EB71"/>
<path opacity="0.25" d="M330.01 683.574L297.009 716.631" stroke="#66EB71"/>
<path opacity="0.28" d="M363.011 683.574L330.01 716.631" stroke="#66EB71"/>
<path opacity="0.3" d="M363.012 683.574L396.013 716.631" stroke="#66EB71"/>
<path opacity="0.32" d="M429.014 683.574L396.013 716.631" stroke="#66EB71"/>
<path opacity="0.35" d="M429.014 683.574L462.015 716.631" stroke="#66EB71"/>
<path opacity="0.37" d="M495.015 683.574L462.014 716.631" stroke="#66EB71"/>
<path opacity="0.39" d="M528.017 683.574L495.016 716.631" stroke="#66EB71"/>
<path opacity="0.41" d="M561.018 683.574L528.017 716.631" stroke="#66EB71"/>
<path opacity="0.44" d="M561.018 683.574L594.019 716.631" stroke="#66EB71"/>
<path opacity="0.46" d="M594.019 683.574L627.02 716.631" stroke="#66EB71"/>
<path opacity="0.48" d="M627.02 683.574L660.021 716.631" stroke="#66EB71"/>
<path opacity="0.5" d="M693.022 683.574L660.021 716.631" stroke="#66EB71"/>
<path opacity="0.53" d="M726.023 683.574L693.022 716.631" stroke="#66EB71"/>
<path opacity="0.55" d="M726.023 683.574L759.024 716.631" stroke="#66EB71"/>
<path opacity="0.57" d="M792.025 683.574L759.024 716.631" stroke="#66EB71"/>
<path opacity="0.05" d="M33.001 716.631L0 749.688" stroke="#66EB71"/>
<path opacity="0.07" d="M66.002 716.631L33.001 749.688" stroke="#66EB71"/>
<path opacity="0.1" d="M99.003 716.631L66.002 749.688" stroke="#66EB71"/>
<path opacity="0.12" d="M99.0029 716.631L132.004 749.688" stroke="#66EB71"/>
<path opacity="0.14" d="M132.004 716.631L165.005 749.688" stroke="#66EB71"/>
<path opacity="0.16" d="M165.005 716.631L198.006 749.688" stroke="#66EB71"/>
<path opacity="0.19" d="M231.007 716.631L198.006 749.688" stroke="#66EB71"/>
<path opacity="0.21" d="M264.008 716.631L231.007 749.688" stroke="#66EB71"/>
<path opacity="0.23" d="M297.009 716.631L264.008 749.688" stroke="#66EB71"/>
<path opacity="0.25" d="M297.009 716.631L330.01 749.688" stroke="#66EB71"/>
<path opacity="0.28" d="M363.011 716.631L330.01 749.688" stroke="#66EB71"/>
<path opacity="0.3" d="M363.011 716.631L396.012 749.688" stroke="#66EB71"/>
<path opacity="0.32" d="M429.014 716.631L396.013 749.688" stroke="#66EB71"/>
<path opacity="0.35" d="M462.015 716.631L429.014 749.688" stroke="#66EB71"/>
<path opacity="0.37" d="M495.015 716.631L462.014 749.688" stroke="#66EB71"/>
<path opacity="0.39" d="M495.016 716.631L528.017 749.688" stroke="#66EB71"/>
<path opacity="0.41" d="M528.017 716.631L561.018 749.688" stroke="#66EB71"/>
<path opacity="0.44" d="M561.018 716.631L594.019 749.688" stroke="#66EB71"/>
<path opacity="0.46" d="M627.02 716.631L594.019 749.688" stroke="#66EB71"/>
<path opacity="0.48" d="M627.02 716.631L660.021 749.688" stroke="#66EB71"/>
<path opacity="0.5" d="M660.021 716.631L693.022 749.688" stroke="#66EB71"/>
<path opacity="0.53" d="M726.023 716.631L693.021 749.688" stroke="#66EB71"/>
<path opacity="0.55" d="M759.024 716.631L726.023 749.688" stroke="#66EB71"/>
<path opacity="0.57" d="M792.025 716.631L759.024 749.688" stroke="#66EB71"/>
<path opacity="0.05" d="M33.001 749.688L0 782.744" stroke="#66EB71"/>
<path opacity="0.07" d="M33.001 749.688L66.002 782.744" stroke="#66EB71"/>
<path opacity="0.1" d="M66.002 749.688L99.003 782.744" stroke="#66EB71"/>
<path opacity="0.12" d="M99.0029 749.688L132.004 782.744" stroke="#66EB71"/>
<path opacity="0.14" d="M132.004 749.688L165.005 782.744" stroke="#66EB71"/>
<path opacity="0.16" d="M198.006 749.688L165.005 782.744" stroke="#66EB71"/>
<path opacity="0.19" d="M231.007 749.688L198.006 782.744" stroke="#66EB71"/>
<path opacity="0.21" d="M231.007 749.688L264.008 782.744" stroke="#66EB71"/>
<path opacity="0.23" d="M264.008 749.688L297.009 782.744" stroke="#66EB71"/>
<path opacity="0.25" d="M330.01 749.688L297.009 782.744" stroke="#66EB71"/>
<path opacity="0.28" d="M330.01 749.688L363.011 782.744" stroke="#66EB71"/>
<path opacity="0.3" d="M396.012 749.688L363.011 782.744" stroke="#66EB71"/>
<path opacity="0.32" d="M429.014 749.688L396.013 782.744" stroke="#66EB71"/>
<path opacity="0.35" d="M462.015 749.688L429.014 782.744" stroke="#66EB71"/>
<path opacity="0.37" d="M495.015 749.688L462.014 782.744" stroke="#66EB71"/>
<path opacity="0.39" d="M495.016 749.688L528.017 782.744" stroke="#66EB71"/>
<path opacity="0.41" d="M528.017 749.688L561.018 782.744" stroke="#66EB71"/>
<path opacity="0.44" d="M561.018 749.688L594.019 782.744" stroke="#66EB71"/>
<path opacity="0.46" d="M627.02 749.688L594.019 782.744" stroke="#66EB71"/>
<path opacity="0.48" d="M660.021 749.688L627.02 782.744" stroke="#66EB71"/>
<path opacity="0.5" d="M693.022 749.688L660.021 782.744" stroke="#66EB71"/>
<path opacity="0.53" d="M726.023 749.688L693.021 782.744" stroke="#66EB71"/>
<path opacity="0.55" d="M759.024 749.688L726.023 782.744" stroke="#66EB71"/>
<path opacity="0.57" d="M759.024 749.688L792.025 782.744" stroke="#66EB71"/>
<path opacity="0.05" d="M0 782.745L33.001 815.802" stroke="#66EB71"/>
<path opacity="0.07" d="M66.002 782.745L33.001 815.802" stroke="#66EB71"/>
<path opacity="0.1" d="M99.003 782.745L66.002 815.802" stroke="#66EB71"/>
<path opacity="0.12" d="M132.004 782.745L99.0029 815.802" stroke="#66EB71"/>
<path opacity="0.14" d="M132.004 782.745L165.005 815.802" stroke="#66EB71"/>
<path opacity="0.16" d="M165.005 782.745L198.006 815.802" stroke="#66EB71"/>
<path opacity="0.19" d="M231.007 782.745L198.006 815.802" stroke="#66EB71"/>
<path opacity="0.21" d="M231.007 782.745L264.008 815.802" stroke="#66EB71"/>
<path opacity="0.23" d="M264.008 782.745L297.009 815.802" stroke="#66EB71"/>
<path opacity="0.25" d="M330.01 782.745L297.009 815.802" stroke="#66EB71"/>
<path opacity="0.28" d="M363.011 782.745L330.01 815.802" stroke="#66EB71"/>
<path opacity="0.3" d="M396.012 782.745L363.011 815.802" stroke="#66EB71"/>
<path opacity="0.32" d="M429.014 782.745L396.013 815.802" stroke="#66EB71"/>
<path opacity="0.35" d="M429.014 782.745L462.015 815.802" stroke="#66EB71"/>
<path opacity="0.37" d="M462.014 782.745L495.015 815.802" stroke="#66EB71"/>
<path opacity="0.39" d="M495.016 782.745L528.017 815.802" stroke="#66EB71"/>
<path opacity="0.41" d="M528.017 782.745L561.018 815.802" stroke="#66EB71"/>
<path opacity="0.44" d="M594.019 782.745L561.018 815.802" stroke="#66EB71"/>
<path opacity="0.46" d="M594.019 782.745L627.02 815.802" stroke="#66EB71"/>
<path opacity="0.48" d="M627.02 782.745L660.021 815.802" stroke="#66EB71"/>
<path opacity="0.5" d="M693.022 782.745L660.021 815.802" stroke="#66EB71"/>
<path opacity="0.53" d="M693.021 782.745L726.023 815.802" stroke="#66EB71"/>
<path opacity="0.55" d="M759.024 782.745L726.023 815.802" stroke="#66EB71"/>
<path opacity="0.57" d="M792.025 782.745L759.024 815.802" stroke="#66EB71"/>
</g>
<defs>
<clipPath id="clip0_850_23652">
<rect width="785" height="777.811" fill="white" transform="translate(0 -755.377)"/>
</clipPath>
<clipPath id="clip1_850_23652">
<rect width="785" height="777.811" fill="white" transform="translate(0 22.4341)"/>
</clipPath>
</defs>
</svg>
