<svg width="390" height="844" viewBox="0 0 390 844" fill="none" xmlns="http://www.w3.org/2000/svg">
<g opacity="0.07" clip-path="url(#clip0_1056_5730)">
<path opacity="0.55" d="M392.042 877.029L346.135 831.044" stroke="#66EB71"/>
<path opacity="0.57" d="M346.135 877.029L300.228 831.044" stroke="#66EB71"/>
<path opacity="0.6" d="M300.228 877.029L254.32 831.044" stroke="#66EB71"/>
<path opacity="0.62" d="M254.32 877.029L208.413 831.044" stroke="#66EB71"/>
<path opacity="0.64" d="M208.413 877.029L162.506 831.044" stroke="#66EB71"/>
<path opacity="0.66" d="M116.599 877.029L162.506 831.044" stroke="#66EB71"/>
<path opacity="0.69" d="M116.6 877.029L70.6924 831.044" stroke="#66EB71"/>
<path opacity="0.71" d="M70.6924 877.029L24.7852 831.044" stroke="#66EB71"/>
<path opacity="0.73" d="M24.7852 877.029L-21.122 831.044" stroke="#66EB71"/>
<path opacity="0.55" d="M346.135 831.045L392.042 785.06" stroke="#66EB71"/>
<path opacity="0.57" d="M346.135 831.045L300.228 785.06" stroke="#66EB71"/>
<path opacity="0.6" d="M254.32 831.045L300.228 785.06" stroke="#66EB71"/>
<path opacity="0.62" d="M254.32 831.045L208.413 785.06" stroke="#66EB71"/>
<path opacity="0.64" d="M162.506 831.045L208.413 785.06" stroke="#66EB71"/>
<path opacity="0.66" d="M116.599 831.045L162.506 785.06" stroke="#66EB71"/>
<path opacity="0.69" d="M116.6 831.045L70.6924 785.06" stroke="#66EB71"/>
<path opacity="0.71" d="M70.6924 831.045L24.7852 785.06" stroke="#66EB71"/>
<path opacity="0.73" d="M-21.122 831.045L24.7852 785.06" stroke="#66EB71"/>
<path opacity="0.55" d="M346.135 785.061L392.042 739.076" stroke="#66EB71"/>
<path opacity="0.57" d="M346.135 785.061L300.228 739.076" stroke="#66EB71"/>
<path opacity="0.6" d="M254.32 785.061L300.228 739.076" stroke="#66EB71"/>
<path opacity="0.62" d="M254.32 785.061L208.413 739.076" stroke="#66EB71"/>
<path opacity="0.64" d="M208.413 785.061L162.506 739.076" stroke="#66EB71"/>
<path opacity="0.66" d="M116.599 785.061L162.506 739.076" stroke="#66EB71"/>
<path opacity="0.69" d="M116.6 785.061L70.6924 739.076" stroke="#66EB71"/>
<path opacity="0.71" d="M24.7852 785.061L70.6924 739.076" stroke="#66EB71"/>
<path opacity="0.73" d="M-21.122 785.061L24.7852 739.076" stroke="#66EB71"/>
<path opacity="0.55" d="M346.135 739.074L392.042 693.089" stroke="#66EB71"/>
<path opacity="0.57" d="M300.228 739.074L346.135 693.089" stroke="#66EB71"/>
<path opacity="0.6" d="M254.32 739.074L300.228 693.089" stroke="#66EB71"/>
<path opacity="0.62" d="M254.32 739.074L208.413 693.089" stroke="#66EB71"/>
<path opacity="0.64" d="M208.413 739.074L162.506 693.089" stroke="#66EB71"/>
<path opacity="0.66" d="M162.506 739.074L116.599 693.089" stroke="#66EB71"/>
<path opacity="0.69" d="M70.6924 739.074L116.6 693.089" stroke="#66EB71"/>
<path opacity="0.71" d="M24.7852 739.074L70.6924 693.089" stroke="#66EB71"/>
<path opacity="0.73" d="M-21.122 739.074L24.7852 693.089" stroke="#66EB71"/>
<path opacity="0.55" d="M392.042 693.09L346.135 647.105" stroke="#66EB71"/>
<path opacity="0.57" d="M300.228 693.09L346.135 647.105" stroke="#66EB71"/>
<path opacity="0.6" d="M254.32 693.09L300.228 647.105" stroke="#66EB71"/>
<path opacity="0.62" d="M254.32 693.09L208.413 647.105" stroke="#66EB71"/>
<path opacity="0.64" d="M208.413 693.09L162.506 647.105" stroke="#66EB71"/>
<path opacity="0.66" d="M116.599 693.09L162.506 647.105" stroke="#66EB71"/>
<path opacity="0.69" d="M70.6924 693.09L116.6 647.105" stroke="#66EB71"/>
<path opacity="0.71" d="M24.7852 693.09L70.6924 647.105" stroke="#66EB71"/>
<path opacity="0.73" d="M-21.122 693.09L24.7852 647.105" stroke="#66EB71"/>
<path opacity="0.55" d="M346.135 647.105L392.042 601.12" stroke="#66EB71"/>
<path opacity="0.57" d="M300.228 647.105L346.135 601.12" stroke="#66EB71"/>
<path opacity="0.6" d="M300.228 647.105L254.32 601.12" stroke="#66EB71"/>
<path opacity="0.62" d="M208.413 647.105L254.32 601.12" stroke="#66EB71"/>
<path opacity="0.64" d="M208.413 647.105L162.506 601.12" stroke="#66EB71"/>
<path opacity="0.66" d="M162.506 647.105L116.599 601.12" stroke="#66EB71"/>
<path opacity="0.69" d="M116.6 647.105L70.6924 601.12" stroke="#66EB71"/>
<path opacity="0.71" d="M24.7852 647.105L70.6924 601.12" stroke="#66EB71"/>
<path opacity="0.73" d="M-21.122 647.105L24.7852 601.12" stroke="#66EB71"/>
<path opacity="0.55" d="M392.042 601.119L346.135 555.134" stroke="#66EB71"/>
<path opacity="0.57" d="M300.228 601.119L346.135 555.134" stroke="#66EB71"/>
<path opacity="0.6" d="M300.228 601.119L254.32 555.134" stroke="#66EB71"/>
<path opacity="0.62" d="M254.32 601.119L208.413 555.134" stroke="#66EB71"/>
<path opacity="0.64" d="M162.506 601.119L208.413 555.134" stroke="#66EB71"/>
<path opacity="0.66" d="M162.506 601.119L116.599 555.134" stroke="#66EB71"/>
<path opacity="0.69" d="M116.6 601.119L70.6924 555.134" stroke="#66EB71"/>
<path opacity="0.71" d="M70.6924 601.119L24.7852 555.134" stroke="#66EB71"/>
<path opacity="0.73" d="M24.7852 601.119L-21.122 555.134" stroke="#66EB71"/>
<path opacity="0.55" d="M346.135 555.135L392.042 509.15" stroke="#66EB71"/>
<path opacity="0.57" d="M346.135 555.135L300.228 509.15" stroke="#66EB71"/>
<path opacity="0.6" d="M254.32 555.135L300.228 509.15" stroke="#66EB71"/>
<path opacity="0.62" d="M208.413 555.135L254.32 509.15" stroke="#66EB71"/>
<path opacity="0.64" d="M208.413 555.135L162.506 509.15" stroke="#66EB71"/>
<path opacity="0.66" d="M116.599 555.135L162.506 509.15" stroke="#66EB71"/>
<path opacity="0.69" d="M116.6 555.135L70.6924 509.15" stroke="#66EB71"/>
<path opacity="0.71" d="M70.6924 555.135L24.7852 509.15" stroke="#66EB71"/>
<path opacity="0.73" d="M24.7852 555.135L-21.122 509.15" stroke="#66EB71"/>
<path opacity="0.55" d="M346.135 509.15L392.042 463.165" stroke="#66EB71"/>
<path opacity="0.57" d="M346.135 509.15L300.228 463.165" stroke="#66EB71"/>
<path opacity="0.6" d="M254.32 509.15L300.228 463.165" stroke="#66EB71"/>
<path opacity="0.62" d="M254.32 509.15L208.413 463.165" stroke="#66EB71"/>
<path opacity="0.64" d="M162.506 509.15L208.413 463.165" stroke="#66EB71"/>
<path opacity="0.66" d="M116.599 509.15L162.506 463.165" stroke="#66EB71"/>
<path opacity="0.69" d="M116.6 509.15L70.6924 463.165" stroke="#66EB71"/>
<path opacity="0.71" d="M24.7852 509.15L70.6924 463.165" stroke="#66EB71"/>
<path opacity="0.73" d="M24.7852 509.15L-21.122 463.165" stroke="#66EB71"/>
<path opacity="0.55" d="M392.042 463.164L346.135 417.179" stroke="#66EB71"/>
<path opacity="0.57" d="M346.135 463.164L300.228 417.179" stroke="#66EB71"/>
<path opacity="0.6" d="M254.32 463.164L300.228 417.179" stroke="#66EB71"/>
<path opacity="0.62" d="M208.413 463.164L254.32 417.179" stroke="#66EB71"/>
<path opacity="0.64" d="M162.506 463.164L208.413 417.179" stroke="#66EB71"/>
<path opacity="0.66" d="M116.599 463.164L162.506 417.179" stroke="#66EB71"/>
<path opacity="0.69" d="M116.6 463.164L70.6924 417.179" stroke="#66EB71"/>
<path opacity="0.71" d="M24.7852 463.164L70.6924 417.179" stroke="#66EB71"/>
<path opacity="0.73" d="M-21.122 463.164L24.7852 417.179" stroke="#66EB71"/>
<path opacity="0.55" d="M392.042 417.18L346.135 371.195" stroke="#66EB71"/>
<path opacity="0.57" d="M300.228 417.18L346.135 371.195" stroke="#66EB71"/>
<path opacity="0.6" d="M254.32 417.18L300.228 371.195" stroke="#66EB71"/>
<path opacity="0.62" d="M254.32 417.18L208.413 371.195" stroke="#66EB71"/>
<path opacity="0.64" d="M162.506 417.18L208.413 371.195" stroke="#66EB71"/>
<path opacity="0.66" d="M116.599 417.18L162.506 371.195" stroke="#66EB71"/>
<path opacity="0.69" d="M70.6924 417.18L116.6 371.195" stroke="#66EB71"/>
<path opacity="0.71" d="M70.6924 417.18L24.7852 371.195" stroke="#66EB71"/>
<path opacity="0.73" d="M-21.122 417.18L24.7852 371.195" stroke="#66EB71"/>
<path opacity="0.55" d="M392.042 371.195L346.135 325.21" stroke="#66EB71"/>
<path opacity="0.57" d="M346.135 371.195L300.228 325.21" stroke="#66EB71"/>
<path opacity="0.6" d="M300.228 371.195L254.32 325.21" stroke="#66EB71"/>
<path opacity="0.62" d="M208.413 371.195L254.32 325.21" stroke="#66EB71"/>
<path opacity="0.64" d="M162.506 371.195L208.413 325.21" stroke="#66EB71"/>
<path opacity="0.66" d="M162.506 371.195L116.599 325.21" stroke="#66EB71"/>
<path opacity="0.69" d="M116.6 371.195L70.6924 325.21" stroke="#66EB71"/>
<path opacity="0.71" d="M70.6924 371.195L24.7852 325.21" stroke="#66EB71"/>
<path opacity="0.73" d="M24.7852 371.195L-21.122 325.21" stroke="#66EB71"/>
<path opacity="0.55" d="M392.042 325.209L346.135 279.224" stroke="#66EB71"/>
<path opacity="0.57" d="M346.135 325.209L300.228 279.224" stroke="#66EB71"/>
<path opacity="0.6" d="M254.32 325.209L300.228 279.224" stroke="#66EB71"/>
<path opacity="0.62" d="M208.413 325.209L254.32 279.224" stroke="#66EB71"/>
<path opacity="0.64" d="M208.413 325.209L162.506 279.224" stroke="#66EB71"/>
<path opacity="0.66" d="M116.599 325.209L162.506 279.224" stroke="#66EB71"/>
<path opacity="0.69" d="M116.6 325.209L70.6924 279.224" stroke="#66EB71"/>
<path opacity="0.71" d="M24.7852 325.209L70.6924 279.224" stroke="#66EB71"/>
<path opacity="0.73" d="M-21.122 325.209L24.7852 279.224" stroke="#66EB71"/>
<path opacity="0.55" d="M346.135 279.225L392.042 233.24" stroke="#66EB71"/>
<path opacity="0.57" d="M346.135 279.225L300.228 233.24" stroke="#66EB71"/>
<path opacity="0.6" d="M300.228 279.225L254.32 233.24" stroke="#66EB71"/>
<path opacity="0.62" d="M208.413 279.225L254.32 233.24" stroke="#66EB71"/>
<path opacity="0.64" d="M162.506 279.225L208.413 233.24" stroke="#66EB71"/>
<path opacity="0.66" d="M162.506 279.225L116.599 233.24" stroke="#66EB71"/>
<path opacity="0.69" d="M116.6 279.225L70.6924 233.24" stroke="#66EB71"/>
<path opacity="0.71" d="M70.6924 279.225L24.7852 233.24" stroke="#66EB71"/>
<path opacity="0.73" d="M24.7852 279.225L-21.122 233.24" stroke="#66EB71"/>
<path opacity="0.55" d="M346.135 233.24L392.042 187.255" stroke="#66EB71"/>
<path opacity="0.57" d="M300.228 233.24L346.135 187.255" stroke="#66EB71"/>
<path opacity="0.6" d="M300.228 233.24L254.32 187.255" stroke="#66EB71"/>
<path opacity="0.62" d="M254.32 233.24L208.413 187.255" stroke="#66EB71"/>
<path opacity="0.64" d="M208.413 233.24L162.506 187.255" stroke="#66EB71"/>
<path opacity="0.66" d="M162.506 233.24L116.599 187.255" stroke="#66EB71"/>
<path opacity="0.69" d="M116.6 233.24L70.6924 187.255" stroke="#66EB71"/>
<path opacity="0.71" d="M70.6924 233.24L24.7852 187.255" stroke="#66EB71"/>
<path opacity="0.73" d="M24.7852 233.24L-21.122 187.255" stroke="#66EB71"/>
<path opacity="0.55" d="M392.042 187.256L346.135 141.271" stroke="#66EB71"/>
<path opacity="0.57" d="M300.228 187.256L346.135 141.271" stroke="#66EB71"/>
<path opacity="0.6" d="M254.32 187.256L300.228 141.271" stroke="#66EB71"/>
<path opacity="0.62" d="M254.32 187.256L208.413 141.271" stroke="#66EB71"/>
<path opacity="0.64" d="M162.506 187.256L208.413 141.271" stroke="#66EB71"/>
<path opacity="0.66" d="M116.599 187.256L162.506 141.271" stroke="#66EB71"/>
<path opacity="0.69" d="M116.6 187.256L70.6924 141.271" stroke="#66EB71"/>
<path opacity="0.71" d="M70.6924 187.256L24.7852 141.271" stroke="#66EB71"/>
<path opacity="0.73" d="M24.7852 187.256L-21.122 141.271" stroke="#66EB71"/>
<path opacity="0.55" d="M392.042 141.27L346.135 95.2845" stroke="#66EB71"/>
<path opacity="0.57" d="M300.228 141.27L346.135 95.2845" stroke="#66EB71"/>
<path opacity="0.6" d="M254.32 141.27L300.228 95.2845" stroke="#66EB71"/>
<path opacity="0.62" d="M254.32 141.27L208.413 95.2845" stroke="#66EB71"/>
<path opacity="0.64" d="M162.506 141.27L208.413 95.2845" stroke="#66EB71"/>
<path opacity="0.66" d="M116.599 141.27L162.506 95.2845" stroke="#66EB71"/>
<path opacity="0.69" d="M70.6924 141.27L116.6 95.2845" stroke="#66EB71"/>
<path opacity="0.71" d="M70.6924 141.27L24.7852 95.2845" stroke="#66EB71"/>
<path opacity="0.73" d="M24.7852 141.27L-21.122 95.2845" stroke="#66EB71"/>
<path opacity="0.55" d="M346.135 95.2852L392.042 49.3002" stroke="#66EB71"/>
<path opacity="0.57" d="M300.228 95.2852L346.135 49.3002" stroke="#66EB71"/>
<path opacity="0.6" d="M300.228 95.2852L254.32 49.3002" stroke="#66EB71"/>
<path opacity="0.62" d="M254.32 95.2852L208.413 49.3002" stroke="#66EB71"/>
<path opacity="0.64" d="M162.506 95.2852L208.413 49.3002" stroke="#66EB71"/>
<path opacity="0.66" d="M162.506 95.2852L116.599 49.3002" stroke="#66EB71"/>
<path opacity="0.69" d="M70.6924 95.2852L116.6 49.3002" stroke="#66EB71"/>
<path opacity="0.71" d="M70.6924 95.2852L24.7852 49.3002" stroke="#66EB71"/>
<path opacity="0.73" d="M24.7852 95.2852L-21.122 49.3002" stroke="#66EB71"/>
<path opacity="0.55" d="M392.042 49.3008L346.135 3.31578" stroke="#66EB71"/>
<path opacity="0.57" d="M300.228 49.3008L346.135 3.31578" stroke="#66EB71"/>
<path opacity="0.6" d="M300.228 49.3008L254.32 3.31578" stroke="#66EB71"/>
<path opacity="0.62" d="M208.413 49.3008L254.32 3.31578" stroke="#66EB71"/>
<path opacity="0.64" d="M162.506 49.3008L208.413 3.31578" stroke="#66EB71"/>
<path opacity="0.66" d="M162.506 49.3008L116.599 3.31578" stroke="#66EB71"/>
<path opacity="0.69" d="M116.6 49.3008L70.6924 3.31578" stroke="#66EB71"/>
<path opacity="0.71" d="M24.7852 49.3008L70.6924 3.31578" stroke="#66EB71"/>
<path opacity="0.73" d="M-21.122 49.3008L24.7852 3.31578" stroke="#66EB71"/>
<path opacity="0.55" d="M346.135 3.31445L392.042 -42.6705" stroke="#66EB71"/>
<path opacity="0.57" d="M300.228 3.31445L346.135 -42.6705" stroke="#66EB71"/>
<path opacity="0.6" d="M300.228 3.31445L254.32 -42.6705" stroke="#66EB71"/>
<path opacity="0.62" d="M208.413 3.31445L254.32 -42.6705" stroke="#66EB71"/>
<path opacity="0.64" d="M162.506 3.31445L208.413 -42.6705" stroke="#66EB71"/>
<path opacity="0.66" d="M116.599 3.31445L162.506 -42.6705" stroke="#66EB71"/>
<path opacity="0.69" d="M116.6 3.31445L70.6924 -42.6705" stroke="#66EB71"/>
<path opacity="0.71" d="M70.6924 3.31445L24.7852 -42.6705" stroke="#66EB71"/>
<path opacity="0.73" d="M-21.122 3.31445L24.7852 -42.6705" stroke="#66EB71"/>
</g>
<defs>
<clipPath id="clip0_1056_5730">
<rect width="1920" height="1082" fill="white" transform="translate(1402 969) rotate(-180)"/>
</clipPath>
</defs>
</svg>
