<svg width="592" height="1024" viewBox="0 0 592 1024" fill="none" xmlns="http://www.w3.org/2000/svg">
<g opacity="0.2" clip-path="url(#clip0_850_27719)">
<path opacity="0.05" d="M0 -9.0293L30.2685 21.2905" stroke="#66EB71"/>
<path opacity="0.07" d="M60.537 -9.0293L30.2686 21.2905" stroke="#66EB71"/>
<path opacity="0.1" d="M60.5371 -9.0293L90.8056 21.2905" stroke="#66EB71"/>
<path opacity="0.12" d="M121.074 -9.0293L90.8052 21.2905" stroke="#66EB71"/>
<path opacity="0.14" d="M151.342 -9.0293L121.074 21.2905" stroke="#66EB71"/>
<path opacity="0.16" d="M151.342 -9.0293L181.611 21.2905" stroke="#66EB71"/>
<path opacity="0.19" d="M211.879 -9.0293L181.611 21.2905" stroke="#66EB71"/>
<path opacity="0.21" d="M211.879 -9.0293L242.148 21.2905" stroke="#66EB71"/>
<path opacity="0.23" d="M242.148 -9.0293L272.416 21.2905" stroke="#66EB71"/>
<path opacity="0.25" d="M272.416 -9.0293L302.684 21.2905" stroke="#66EB71"/>
<path opacity="0.28" d="M332.953 -9.0293L302.685 21.2905" stroke="#66EB71"/>
<path opacity="0.3" d="M363.222 -9.0293L332.953 21.2905" stroke="#66EB71"/>
<path opacity="0.32" d="M393.49 -9.0293L363.222 21.2905" stroke="#66EB71"/>
<path opacity="0.35" d="M393.49 -9.0293L423.759 21.2905" stroke="#66EB71"/>
<path opacity="0.37" d="M423.758 -9.0293L454.027 21.2905" stroke="#66EB71"/>
<path opacity="0.39" d="M484.295 -9.0293L454.027 21.2905" stroke="#66EB71"/>
<path opacity="0.41" d="M484.295 -9.0293L514.564 21.2905" stroke="#66EB71"/>
<path opacity="0.44" d="M514.564 -9.0293L544.832 21.2905" stroke="#66EB71"/>
<path opacity="0.46" d="M544.833 -9.0293L575.101 21.2905" stroke="#66EB71"/>
<path opacity="0.48" d="M575.101 -9.0293L605.37 21.2905" stroke="#66EB71"/>
<path opacity="0.05" d="M30.2685 21.2905L0 51.6103" stroke="#66EB71"/>
<path opacity="0.07" d="M60.537 21.2905L30.2686 51.6103" stroke="#66EB71"/>
<path opacity="0.1" d="M60.5371 21.2905L90.8056 51.6103" stroke="#66EB71"/>
<path opacity="0.12" d="M90.8052 21.2905L121.074 51.6103" stroke="#66EB71"/>
<path opacity="0.14" d="M121.074 21.2905L151.342 51.6103" stroke="#66EB71"/>
<path opacity="0.16" d="M151.342 21.2905L181.611 51.6103" stroke="#66EB71"/>
<path opacity="0.19" d="M211.879 21.2905L181.611 51.6103" stroke="#66EB71"/>
<path opacity="0.21" d="M211.879 21.2905L242.148 51.6103" stroke="#66EB71"/>
<path opacity="0.23" d="M242.148 21.2905L272.416 51.6103" stroke="#66EB71"/>
<path opacity="0.25" d="M302.684 21.2905L272.416 51.6103" stroke="#66EB71"/>
<path opacity="0.28" d="M332.953 21.2905L302.685 51.6103" stroke="#66EB71"/>
<path opacity="0.3" d="M332.953 21.2905L363.222 51.6103" stroke="#66EB71"/>
<path opacity="0.32" d="M393.49 21.2905L363.222 51.6103" stroke="#66EB71"/>
<path opacity="0.35" d="M423.759 21.2905L393.49 51.6103" stroke="#66EB71"/>
<path opacity="0.37" d="M454.027 21.2905L423.758 51.6103" stroke="#66EB71"/>
<path opacity="0.39" d="M454.027 21.2905L484.295 51.6103" stroke="#66EB71"/>
<path opacity="0.41" d="M514.564 21.2905L484.295 51.6103" stroke="#66EB71"/>
<path opacity="0.44" d="M544.832 21.2905L514.564 51.6103" stroke="#66EB71"/>
<path opacity="0.46" d="M575.101 21.2905L544.833 51.6103" stroke="#66EB71"/>
<path opacity="0.48" d="M575.101 21.2905L605.37 51.6103" stroke="#66EB71"/>
<path opacity="0.05" d="M30.2685 51.6104L0 81.9301" stroke="#66EB71"/>
<path opacity="0.07" d="M60.537 51.6104L30.2686 81.9301" stroke="#66EB71"/>
<path opacity="0.1" d="M90.8056 51.6104L60.5371 81.9301" stroke="#66EB71"/>
<path opacity="0.12" d="M90.8052 51.6104L121.074 81.9301" stroke="#66EB71"/>
<path opacity="0.14" d="M151.342 51.6104L121.074 81.9301" stroke="#66EB71"/>
<path opacity="0.16" d="M181.611 51.6104L151.342 81.9301" stroke="#66EB71"/>
<path opacity="0.19" d="M181.611 51.6104L211.879 81.9301" stroke="#66EB71"/>
<path opacity="0.21" d="M242.148 51.6104L211.879 81.9301" stroke="#66EB71"/>
<path opacity="0.23" d="M272.416 51.6104L242.148 81.9301" stroke="#66EB71"/>
<path opacity="0.25" d="M272.416 51.6104L302.684 81.9301" stroke="#66EB71"/>
<path opacity="0.28" d="M302.685 51.6104L332.953 81.9301" stroke="#66EB71"/>
<path opacity="0.3" d="M332.953 51.6104L363.222 81.9301" stroke="#66EB71"/>
<path opacity="0.32" d="M363.222 51.6104L393.49 81.9301" stroke="#66EB71"/>
<path opacity="0.35" d="M423.759 51.6104L393.49 81.9301" stroke="#66EB71"/>
<path opacity="0.37" d="M423.758 51.6104L454.027 81.9301" stroke="#66EB71"/>
<path opacity="0.39" d="M484.295 51.6104L454.027 81.9301" stroke="#66EB71"/>
<path opacity="0.41" d="M484.295 51.6104L514.564 81.9301" stroke="#66EB71"/>
<path opacity="0.44" d="M544.832 51.6104L514.564 81.9301" stroke="#66EB71"/>
<path opacity="0.46" d="M575.101 51.6104L544.833 81.9301" stroke="#66EB71"/>
<path opacity="0.48" d="M575.101 51.6104L605.37 81.9301" stroke="#66EB71"/>
<path opacity="0.05" d="M30.2685 81.9297L0 112.249" stroke="#66EB71"/>
<path opacity="0.07" d="M60.537 81.9297L30.2686 112.249" stroke="#66EB71"/>
<path opacity="0.1" d="M90.8056 81.9297L60.5371 112.249" stroke="#66EB71"/>
<path opacity="0.12" d="M90.8057 81.9297L121.074 112.249" stroke="#66EB71"/>
<path opacity="0.14" d="M151.343 81.9297L121.074 112.249" stroke="#66EB71"/>
<path opacity="0.16" d="M151.342 81.9297L181.611 112.249" stroke="#66EB71"/>
<path opacity="0.19" d="M211.879 81.9297L181.611 112.249" stroke="#66EB71"/>
<path opacity="0.21" d="M211.879 81.9297L242.148 112.249" stroke="#66EB71"/>
<path opacity="0.23" d="M242.147 81.9297L272.416 112.249" stroke="#66EB71"/>
<path opacity="0.25" d="M272.416 81.9297L302.684 112.249" stroke="#66EB71"/>
<path opacity="0.28" d="M302.685 81.9297L332.953 112.249" stroke="#66EB71"/>
<path opacity="0.3" d="M363.222 81.9297L332.953 112.249" stroke="#66EB71"/>
<path opacity="0.32" d="M393.49 81.9297L363.222 112.249" stroke="#66EB71"/>
<path opacity="0.35" d="M393.49 81.9297L423.759 112.249" stroke="#66EB71"/>
<path opacity="0.37" d="M423.758 81.9297L454.027 112.249" stroke="#66EB71"/>
<path opacity="0.39" d="M484.295 81.9297L454.027 112.249" stroke="#66EB71"/>
<path opacity="0.41" d="M514.564 81.9297L484.295 112.249" stroke="#66EB71"/>
<path opacity="0.44" d="M514.564 81.9297L544.832 112.249" stroke="#66EB71"/>
<path opacity="0.46" d="M544.833 81.9297L575.101 112.249" stroke="#66EB71"/>
<path opacity="0.48" d="M575.101 81.9297L605.37 112.249" stroke="#66EB71"/>
<path opacity="0.05" d="M30.2685 112.25L0 142.569" stroke="#66EB71"/>
<path opacity="0.07" d="M60.537 112.25L30.2686 142.569" stroke="#66EB71"/>
<path opacity="0.1" d="M60.5371 112.25L90.8056 142.569" stroke="#66EB71"/>
<path opacity="0.12" d="M90.8052 112.25L121.074 142.569" stroke="#66EB71"/>
<path opacity="0.14" d="M151.342 112.25L121.074 142.569" stroke="#66EB71"/>
<path opacity="0.16" d="M151.342 112.25L181.611 142.569" stroke="#66EB71"/>
<path opacity="0.19" d="M181.611 112.25L211.879 142.569" stroke="#66EB71"/>
<path opacity="0.21" d="M211.879 112.25L242.148 142.569" stroke="#66EB71"/>
<path opacity="0.23" d="M242.148 112.25L272.416 142.569" stroke="#66EB71"/>
<path opacity="0.25" d="M272.416 112.25L302.684 142.569" stroke="#66EB71"/>
<path opacity="0.28" d="M332.953 112.25L302.685 142.569" stroke="#66EB71"/>
<path opacity="0.3" d="M363.222 112.25L332.953 142.569" stroke="#66EB71"/>
<path opacity="0.32" d="M393.49 112.25L363.222 142.569" stroke="#66EB71"/>
<path opacity="0.35" d="M393.49 112.25L423.759 142.569" stroke="#66EB71"/>
<path opacity="0.37" d="M423.758 112.25L454.027 142.57" stroke="#66EB71"/>
<path opacity="0.39" d="M484.295 112.25L454.027 142.569" stroke="#66EB71"/>
<path opacity="0.41" d="M514.564 112.25L484.295 142.569" stroke="#66EB71"/>
<path opacity="0.44" d="M544.832 112.25L514.564 142.569" stroke="#66EB71"/>
<path opacity="0.46" d="M575.101 112.25L544.833 142.569" stroke="#66EB71"/>
<path opacity="0.48" d="M575.101 112.25L605.37 142.569" stroke="#66EB71"/>
<path opacity="0.05" d="M30.2685 142.569L0 172.889" stroke="#66EB71"/>
<path opacity="0.07" d="M30.2686 142.569L60.537 172.889" stroke="#66EB71"/>
<path opacity="0.1" d="M90.8056 142.569L60.5371 172.889" stroke="#66EB71"/>
<path opacity="0.12" d="M121.074 142.569L90.8052 172.889" stroke="#66EB71"/>
<path opacity="0.14" d="M151.342 142.569L121.074 172.889" stroke="#66EB71"/>
<path opacity="0.16" d="M181.611 142.569L151.342 172.889" stroke="#66EB71"/>
<path opacity="0.19" d="M211.879 142.569L181.611 172.889" stroke="#66EB71"/>
<path opacity="0.21" d="M211.879 142.569L242.148 172.889" stroke="#66EB71"/>
<path opacity="0.23" d="M242.148 142.569L272.416 172.889" stroke="#66EB71"/>
<path opacity="0.25" d="M302.684 142.569L272.416 172.889" stroke="#66EB71"/>
<path opacity="0.28" d="M302.685 142.569L332.953 172.889" stroke="#66EB71"/>
<path opacity="0.3" d="M332.953 142.569L363.222 172.889" stroke="#66EB71"/>
<path opacity="0.32" d="M363.222 142.569L393.49 172.889" stroke="#66EB71"/>
<path opacity="0.35" d="M393.49 142.569L423.759 172.889" stroke="#66EB71"/>
<path opacity="0.37" d="M454.027 142.569L423.758 172.889" stroke="#66EB71"/>
<path opacity="0.39" d="M454.027 142.569L484.295 172.889" stroke="#66EB71"/>
<path opacity="0.41" d="M484.295 142.569L514.564 172.889" stroke="#66EB71"/>
<path opacity="0.44" d="M544.832 142.569L514.564 172.889" stroke="#66EB71"/>
<path opacity="0.46" d="M575.101 142.569L544.833 172.889" stroke="#66EB71"/>
<path opacity="0.48" d="M575.101 142.569L605.37 172.889" stroke="#66EB71"/>
<path opacity="0.05" d="M30.2685 172.889L0 203.209" stroke="#66EB71"/>
<path opacity="0.07" d="M30.2686 172.889L60.537 203.209" stroke="#66EB71"/>
<path opacity="0.1" d="M60.5371 172.889L90.8056 203.209" stroke="#66EB71"/>
<path opacity="0.12" d="M121.074 172.889L90.8052 203.209" stroke="#66EB71"/>
<path opacity="0.14" d="M151.342 172.889L121.074 203.209" stroke="#66EB71"/>
<path opacity="0.16" d="M181.611 172.889L151.342 203.209" stroke="#66EB71"/>
<path opacity="0.19" d="M181.611 172.889L211.879 203.209" stroke="#66EB71"/>
<path opacity="0.21" d="M211.879 172.889L242.148 203.209" stroke="#66EB71"/>
<path opacity="0.23" d="M272.416 172.889L242.148 203.209" stroke="#66EB71"/>
<path opacity="0.25" d="M302.684 172.889L272.416 203.209" stroke="#66EB71"/>
<path opacity="0.28" d="M302.685 172.889L332.953 203.209" stroke="#66EB71"/>
<path opacity="0.3" d="M363.222 172.889L332.953 203.209" stroke="#66EB71"/>
<path opacity="0.32" d="M363.222 172.889L393.49 203.209" stroke="#66EB71"/>
<path opacity="0.35" d="M393.49 172.889L423.759 203.209" stroke="#66EB71"/>
<path opacity="0.37" d="M423.758 172.889L454.027 203.209" stroke="#66EB71"/>
<path opacity="0.39" d="M454.027 172.889L484.295 203.209" stroke="#66EB71"/>
<path opacity="0.41" d="M484.295 172.889L514.564 203.209" stroke="#66EB71"/>
<path opacity="0.44" d="M514.564 172.889L544.832 203.209" stroke="#66EB71"/>
<path opacity="0.46" d="M544.833 172.889L575.101 203.209" stroke="#66EB71"/>
<path opacity="0.48" d="M575.101 172.889L605.37 203.209" stroke="#66EB71"/>
<path opacity="0.05" d="M0 203.209L30.2685 233.529" stroke="#66EB71"/>
<path opacity="0.07" d="M60.537 203.209L30.2686 233.529" stroke="#66EB71"/>
<path opacity="0.1" d="M60.5371 203.209L90.8056 233.529" stroke="#66EB71"/>
<path opacity="0.12" d="M121.074 203.209L90.8057 233.529" stroke="#66EB71"/>
<path opacity="0.14" d="M151.343 203.209L121.074 233.529" stroke="#66EB71"/>
<path opacity="0.16" d="M181.611 203.209L151.342 233.529" stroke="#66EB71"/>
<path opacity="0.19" d="M211.879 203.209L181.611 233.529" stroke="#66EB71"/>
<path opacity="0.21" d="M211.879 203.209L242.148 233.529" stroke="#66EB71"/>
<path opacity="0.23" d="M272.416 203.209L242.147 233.529" stroke="#66EB71"/>
<path opacity="0.25" d="M302.684 203.209L272.416 233.529" stroke="#66EB71"/>
<path opacity="0.28" d="M332.953 203.209L302.685 233.529" stroke="#66EB71"/>
<path opacity="0.3" d="M332.953 203.209L363.222 233.529" stroke="#66EB71"/>
<path opacity="0.32" d="M393.49 203.209L363.222 233.529" stroke="#66EB71"/>
<path opacity="0.35" d="M393.49 203.209L423.759 233.529" stroke="#66EB71"/>
<path opacity="0.37" d="M454.027 203.209L423.758 233.529" stroke="#66EB71"/>
<path opacity="0.39" d="M484.295 203.209L454.027 233.529" stroke="#66EB71"/>
<path opacity="0.41" d="M514.564 203.209L484.295 233.529" stroke="#66EB71"/>
<path opacity="0.44" d="M514.564 203.209L544.832 233.529" stroke="#66EB71"/>
<path opacity="0.46" d="M544.833 203.209L575.101 233.529" stroke="#66EB71"/>
<path opacity="0.48" d="M575.101 203.209L605.37 233.529" stroke="#66EB71"/>
<path opacity="0.05" d="M30.2685 233.529L0 263.849" stroke="#66EB71"/>
<path opacity="0.07" d="M60.537 233.529L30.2686 263.849" stroke="#66EB71"/>
<path opacity="0.1" d="M90.8056 233.529L60.5371 263.849" stroke="#66EB71"/>
<path opacity="0.12" d="M90.8052 233.529L121.074 263.849" stroke="#66EB71"/>
<path opacity="0.14" d="M121.074 233.529L151.342 263.849" stroke="#66EB71"/>
<path opacity="0.16" d="M151.342 233.529L181.611 263.849" stroke="#66EB71"/>
<path opacity="0.19" d="M211.879 233.529L181.611 263.849" stroke="#66EB71"/>
<path opacity="0.21" d="M242.148 233.529L211.879 263.849" stroke="#66EB71"/>
<path opacity="0.23" d="M272.416 233.529L242.148 263.849" stroke="#66EB71"/>
<path opacity="0.25" d="M272.416 233.529L302.684 263.849" stroke="#66EB71"/>
<path opacity="0.28" d="M332.953 233.529L302.685 263.849" stroke="#66EB71"/>
<path opacity="0.3" d="M332.953 233.529L363.222 263.849" stroke="#66EB71"/>
<path opacity="0.32" d="M393.49 233.529L363.222 263.849" stroke="#66EB71"/>
<path opacity="0.35" d="M423.759 233.529L393.49 263.849" stroke="#66EB71"/>
<path opacity="0.37" d="M454.027 233.529L423.758 263.849" stroke="#66EB71"/>
<path opacity="0.39" d="M454.027 233.529L484.295 263.849" stroke="#66EB71"/>
<path opacity="0.41" d="M484.295 233.529L514.564 263.849" stroke="#66EB71"/>
<path opacity="0.44" d="M514.564 233.529L544.832 263.849" stroke="#66EB71"/>
<path opacity="0.46" d="M575.101 233.529L544.833 263.849" stroke="#66EB71"/>
<path opacity="0.48" d="M575.101 233.529L605.37 263.849" stroke="#66EB71"/>
<path opacity="0.05" d="M30.2685 263.849L0 294.168" stroke="#66EB71"/>
<path opacity="0.07" d="M30.2686 263.849L60.537 294.168" stroke="#66EB71"/>
<path opacity="0.1" d="M60.5371 263.849L90.8056 294.168" stroke="#66EB71"/>
<path opacity="0.12" d="M90.8052 263.849L121.074 294.168" stroke="#66EB71"/>
<path opacity="0.14" d="M121.074 263.849L151.342 294.168" stroke="#66EB71"/>
<path opacity="0.16" d="M181.611 263.849L151.342 294.168" stroke="#66EB71"/>
<path opacity="0.19" d="M211.879 263.849L181.611 294.168" stroke="#66EB71"/>
<path opacity="0.21" d="M211.879 263.849L242.148 294.168" stroke="#66EB71"/>
<path opacity="0.23" d="M242.148 263.849L272.416 294.168" stroke="#66EB71"/>
<path opacity="0.25" d="M302.684 263.849L272.416 294.168" stroke="#66EB71"/>
<path opacity="0.28" d="M302.685 263.849L332.953 294.168" stroke="#66EB71"/>
<path opacity="0.3" d="M363.222 263.849L332.953 294.168" stroke="#66EB71"/>
<path opacity="0.32" d="M393.49 263.849L363.222 294.168" stroke="#66EB71"/>
<path opacity="0.35" d="M423.759 263.849L393.49 294.168" stroke="#66EB71"/>
<path opacity="0.37" d="M454.027 263.849L423.758 294.168" stroke="#66EB71"/>
<path opacity="0.39" d="M454.027 263.849L484.295 294.168" stroke="#66EB71"/>
<path opacity="0.41" d="M484.295 263.849L514.564 294.168" stroke="#66EB71"/>
<path opacity="0.44" d="M514.564 263.849L544.832 294.168" stroke="#66EB71"/>
<path opacity="0.46" d="M575.101 263.849L544.833 294.168" stroke="#66EB71"/>
<path opacity="0.48" d="M605.37 263.849L575.101 294.168" stroke="#66EB71"/>
<path opacity="0.05" d="M0 294.168L30.2685 324.488" stroke="#66EB71"/>
<path opacity="0.07" d="M60.537 294.168L30.2686 324.488" stroke="#66EB71"/>
<path opacity="0.1" d="M90.8056 294.168L60.5371 324.488" stroke="#66EB71"/>
<path opacity="0.12" d="M121.074 294.168L90.8052 324.488" stroke="#66EB71"/>
<path opacity="0.14" d="M121.074 294.168L151.342 324.488" stroke="#66EB71"/>
<path opacity="0.16" d="M151.342 294.168L181.611 324.488" stroke="#66EB71"/>
<path opacity="0.19" d="M211.879 294.168L181.611 324.488" stroke="#66EB71"/>
<path opacity="0.21" d="M211.879 294.168L242.148 324.488" stroke="#66EB71"/>
<path opacity="0.23" d="M242.148 294.168L272.416 324.488" stroke="#66EB71"/>
<path opacity="0.25" d="M302.684 294.168L272.416 324.488" stroke="#66EB71"/>
<path opacity="0.28" d="M332.953 294.168L302.685 324.488" stroke="#66EB71"/>
<path opacity="0.3" d="M363.222 294.168L332.953 324.488" stroke="#66EB71"/>
<path opacity="0.32" d="M393.49 294.168L363.222 324.488" stroke="#66EB71"/>
<path opacity="0.35" d="M393.49 294.168L423.759 324.488" stroke="#66EB71"/>
<path opacity="0.37" d="M423.758 294.168L454.027 324.488" stroke="#66EB71"/>
<path opacity="0.39" d="M454.027 294.168L484.295 324.488" stroke="#66EB71"/>
<path opacity="0.41" d="M484.295 294.168L514.564 324.488" stroke="#66EB71"/>
<path opacity="0.44" d="M544.832 294.168L514.564 324.488" stroke="#66EB71"/>
<path opacity="0.46" d="M544.833 294.168L575.101 324.488" stroke="#66EB71"/>
<path opacity="0.48" d="M575.101 294.168L605.37 324.488" stroke="#66EB71"/>
</g>
<g opacity="0.2" clip-path="url(#clip1_850_27719)">
<path opacity="0.05" d="M0 310.22L30.2685 340.54" stroke="#66EB71"/>
<path opacity="0.07" d="M30.2686 310.22L60.537 340.54" stroke="#66EB71"/>
<path opacity="0.1" d="M90.8056 310.22L60.5371 340.54" stroke="#66EB71"/>
<path opacity="0.12" d="M90.8052 310.22L121.074 340.54" stroke="#66EB71"/>
<path opacity="0.14" d="M151.342 310.22L121.074 340.54" stroke="#66EB71"/>
<path opacity="0.16" d="M181.611 310.22L151.342 340.54" stroke="#66EB71"/>
<path opacity="0.19" d="M181.611 310.22L211.879 340.54" stroke="#66EB71"/>
<path opacity="0.21" d="M211.879 310.22L242.148 340.54" stroke="#66EB71"/>
<path opacity="0.23" d="M242.148 310.22L272.416 340.54" stroke="#66EB71"/>
<path opacity="0.25" d="M302.684 310.22L272.416 340.54" stroke="#66EB71"/>
<path opacity="0.28" d="M332.953 310.22L302.685 340.54" stroke="#66EB71"/>
<path opacity="0.3" d="M332.953 310.22L363.222 340.54" stroke="#66EB71"/>
<path opacity="0.32" d="M363.222 310.22L393.49 340.54" stroke="#66EB71"/>
<path opacity="0.35" d="M393.49 310.22L423.759 340.54" stroke="#66EB71"/>
<path opacity="0.37" d="M423.758 310.22L454.027 340.54" stroke="#66EB71"/>
<path opacity="0.39" d="M454.027 310.22L484.295 340.54" stroke="#66EB71"/>
<path opacity="0.41" d="M514.564 310.22L484.295 340.54" stroke="#66EB71"/>
<path opacity="0.44" d="M514.564 310.22L544.832 340.54" stroke="#66EB71"/>
<path opacity="0.46" d="M575.101 310.22L544.833 340.54" stroke="#66EB71"/>
<path opacity="0.48" d="M575.101 310.22L605.37 340.54" stroke="#66EB71"/>
<path opacity="0.05" d="M0 340.54L30.2685 370.859" stroke="#66EB71"/>
<path opacity="0.07" d="M60.537 340.54L30.2686 370.859" stroke="#66EB71"/>
<path opacity="0.1" d="M90.8056 340.54L60.5371 370.859" stroke="#66EB71"/>
<path opacity="0.12" d="M121.074 340.54L90.8052 370.859" stroke="#66EB71"/>
<path opacity="0.14" d="M151.342 340.54L121.074 370.859" stroke="#66EB71"/>
<path opacity="0.16" d="M181.611 340.54L151.342 370.859" stroke="#66EB71"/>
<path opacity="0.19" d="M211.879 340.54L181.611 370.859" stroke="#66EB71"/>
<path opacity="0.21" d="M211.879 340.54L242.148 370.859" stroke="#66EB71"/>
<path opacity="0.23" d="M272.416 340.54L242.148 370.859" stroke="#66EB71"/>
<path opacity="0.25" d="M302.684 340.54L272.416 370.859" stroke="#66EB71"/>
<path opacity="0.28" d="M332.953 340.54L302.685 370.859" stroke="#66EB71"/>
<path opacity="0.3" d="M363.222 340.54L332.953 370.859" stroke="#66EB71"/>
<path opacity="0.32" d="M363.222 340.54L393.49 370.859" stroke="#66EB71"/>
<path opacity="0.35" d="M423.759 340.54L393.49 370.859" stroke="#66EB71"/>
<path opacity="0.37" d="M423.758 340.54L454.027 370.859" stroke="#66EB71"/>
<path opacity="0.39" d="M484.295 340.54L454.027 370.859" stroke="#66EB71"/>
<path opacity="0.41" d="M514.564 340.54L484.295 370.859" stroke="#66EB71"/>
<path opacity="0.44" d="M544.832 340.54L514.564 370.859" stroke="#66EB71"/>
<path opacity="0.46" d="M575.101 340.54L544.833 370.859" stroke="#66EB71"/>
<path opacity="0.48" d="M605.37 340.54L575.101 370.859" stroke="#66EB71"/>
<path opacity="0.05" d="M0 370.859L30.2685 401.179" stroke="#66EB71"/>
<path opacity="0.07" d="M60.537 370.859L30.2686 401.179" stroke="#66EB71"/>
<path opacity="0.1" d="M60.5371 370.859L90.8056 401.179" stroke="#66EB71"/>
<path opacity="0.12" d="M90.8052 370.859L121.074 401.179" stroke="#66EB71"/>
<path opacity="0.14" d="M151.342 370.859L121.074 401.179" stroke="#66EB71"/>
<path opacity="0.16" d="M151.342 370.859L181.611 401.179" stroke="#66EB71"/>
<path opacity="0.19" d="M211.879 370.859L181.611 401.179" stroke="#66EB71"/>
<path opacity="0.21" d="M242.148 370.859L211.879 401.179" stroke="#66EB71"/>
<path opacity="0.23" d="M242.148 370.859L272.416 401.179" stroke="#66EB71"/>
<path opacity="0.25" d="M302.684 370.859L272.416 401.179" stroke="#66EB71"/>
<path opacity="0.28" d="M302.685 370.859L332.953 401.179" stroke="#66EB71"/>
<path opacity="0.3" d="M363.222 370.859L332.953 401.179" stroke="#66EB71"/>
<path opacity="0.32" d="M393.49 370.859L363.222 401.179" stroke="#66EB71"/>
<path opacity="0.35" d="M393.49 370.859L423.759 401.179" stroke="#66EB71"/>
<path opacity="0.37" d="M454.027 370.859L423.758 401.179" stroke="#66EB71"/>
<path opacity="0.39" d="M454.027 370.859L484.295 401.179" stroke="#66EB71"/>
<path opacity="0.41" d="M484.295 370.859L514.564 401.179" stroke="#66EB71"/>
<path opacity="0.44" d="M544.832 370.859L514.564 401.179" stroke="#66EB71"/>
<path opacity="0.46" d="M544.833 370.859L575.101 401.179" stroke="#66EB71"/>
<path opacity="0.48" d="M575.101 370.859L605.37 401.179" stroke="#66EB71"/>
<path opacity="0.05" d="M0 401.179L30.2685 431.499" stroke="#66EB71"/>
<path opacity="0.07" d="M30.2686 401.179L60.537 431.499" stroke="#66EB71"/>
<path opacity="0.1" d="M60.5371 401.179L90.8056 431.499" stroke="#66EB71"/>
<path opacity="0.12" d="M90.8052 401.179L121.074 431.499" stroke="#66EB71"/>
<path opacity="0.14" d="M121.074 401.179L151.342 431.499" stroke="#66EB71"/>
<path opacity="0.16" d="M181.611 401.179L151.342 431.499" stroke="#66EB71"/>
<path opacity="0.19" d="M181.611 401.179L211.879 431.499" stroke="#66EB71"/>
<path opacity="0.21" d="M242.148 401.179L211.879 431.499" stroke="#66EB71"/>
<path opacity="0.23" d="M242.148 401.179L272.416 431.499" stroke="#66EB71"/>
<path opacity="0.25" d="M272.416 401.179L302.684 431.499" stroke="#66EB71"/>
<path opacity="0.28" d="M332.953 401.179L302.685 431.499" stroke="#66EB71"/>
<path opacity="0.3" d="M363.222 401.179L332.953 431.499" stroke="#66EB71"/>
<path opacity="0.32" d="M393.49 401.179L363.222 431.499" stroke="#66EB71"/>
<path opacity="0.35" d="M393.49 401.179L423.759 431.499" stroke="#66EB71"/>
<path opacity="0.37" d="M454.027 401.179L423.758 431.499" stroke="#66EB71"/>
<path opacity="0.39" d="M454.027 401.179L484.295 431.499" stroke="#66EB71"/>
<path opacity="0.41" d="M514.564 401.179L484.295 431.499" stroke="#66EB71"/>
<path opacity="0.44" d="M544.832 401.179L514.564 431.499" stroke="#66EB71"/>
<path opacity="0.46" d="M544.833 401.179L575.101 431.499" stroke="#66EB71"/>
<path opacity="0.48" d="M605.37 401.179L575.101 431.499" stroke="#66EB71"/>
<path opacity="0.05" d="M30.2685 431.499L0 461.819" stroke="#66EB71"/>
<path opacity="0.07" d="M30.2686 431.499L60.537 461.819" stroke="#66EB71"/>
<path opacity="0.1" d="M60.5371 431.499L90.8056 461.819" stroke="#66EB71"/>
<path opacity="0.12" d="M90.8052 431.499L121.074 461.819" stroke="#66EB71"/>
<path opacity="0.14" d="M121.074 431.499L151.342 461.819" stroke="#66EB71"/>
<path opacity="0.16" d="M151.342 431.499L181.611 461.819" stroke="#66EB71"/>
<path opacity="0.19" d="M181.611 431.499L211.879 461.819" stroke="#66EB71"/>
<path opacity="0.21" d="M242.148 431.499L211.879 461.819" stroke="#66EB71"/>
<path opacity="0.23" d="M272.416 431.499L242.148 461.819" stroke="#66EB71"/>
<path opacity="0.25" d="M302.684 431.499L272.416 461.819" stroke="#66EB71"/>
<path opacity="0.28" d="M332.953 431.499L302.685 461.819" stroke="#66EB71"/>
<path opacity="0.3" d="M332.953 431.499L363.222 461.819" stroke="#66EB71"/>
<path opacity="0.32" d="M393.49 431.499L363.222 461.819" stroke="#66EB71"/>
<path opacity="0.35" d="M393.49 431.499L423.759 461.819" stroke="#66EB71"/>
<path opacity="0.37" d="M423.758 431.499L454.027 461.819" stroke="#66EB71"/>
<path opacity="0.39" d="M484.295 431.499L454.027 461.819" stroke="#66EB71"/>
<path opacity="0.41" d="M514.564 431.499L484.295 461.819" stroke="#66EB71"/>
<path opacity="0.44" d="M544.832 431.499L514.564 461.819" stroke="#66EB71"/>
<path opacity="0.46" d="M575.101 431.499L544.833 461.819" stroke="#66EB71"/>
<path opacity="0.48" d="M575.101 431.499L605.37 461.819" stroke="#66EB71"/>
<path opacity="0.05" d="M30.2685 461.818L0 492.138" stroke="#66EB71"/>
<path opacity="0.07" d="M60.537 461.818L30.2686 492.138" stroke="#66EB71"/>
<path opacity="0.1" d="M60.5371 461.818L90.8056 492.138" stroke="#66EB71"/>
<path opacity="0.12" d="M121.074 461.818L90.8052 492.138" stroke="#66EB71"/>
<path opacity="0.14" d="M151.342 461.818L121.074 492.138" stroke="#66EB71"/>
<path opacity="0.16" d="M181.611 461.818L151.342 492.138" stroke="#66EB71"/>
<path opacity="0.19" d="M181.611 461.818L211.879 492.138" stroke="#66EB71"/>
<path opacity="0.21" d="M211.879 461.818L242.148 492.138" stroke="#66EB71"/>
<path opacity="0.23" d="M242.148 461.818L272.416 492.138" stroke="#66EB71"/>
<path opacity="0.25" d="M302.684 461.818L272.416 492.138" stroke="#66EB71"/>
<path opacity="0.28" d="M302.685 461.818L332.953 492.138" stroke="#66EB71"/>
<path opacity="0.3" d="M332.953 461.818L363.222 492.138" stroke="#66EB71"/>
<path opacity="0.32" d="M363.222 461.818L393.49 492.138" stroke="#66EB71"/>
<path opacity="0.35" d="M423.759 461.818L393.49 492.138" stroke="#66EB71"/>
<path opacity="0.37" d="M454.027 461.818L423.758 492.138" stroke="#66EB71"/>
<path opacity="0.39" d="M484.295 461.818L454.027 492.138" stroke="#66EB71"/>
<path opacity="0.41" d="M514.564 461.818L484.295 492.138" stroke="#66EB71"/>
<path opacity="0.44" d="M514.564 461.818L544.832 492.138" stroke="#66EB71"/>
<path opacity="0.46" d="M575.101 461.818L544.833 492.138" stroke="#66EB71"/>
<path opacity="0.48" d="M605.37 461.818L575.101 492.138" stroke="#66EB71"/>
<path opacity="0.05" d="M0 492.138L30.2685 522.458" stroke="#66EB71"/>
<path opacity="0.07" d="M60.537 492.138L30.2686 522.458" stroke="#66EB71"/>
<path opacity="0.1" d="M90.8056 492.138L60.5371 522.458" stroke="#66EB71"/>
<path opacity="0.12" d="M121.074 492.138L90.8052 522.458" stroke="#66EB71"/>
<path opacity="0.14" d="M151.342 492.138L121.074 522.458" stroke="#66EB71"/>
<path opacity="0.16" d="M151.342 492.138L181.611 522.458" stroke="#66EB71"/>
<path opacity="0.19" d="M211.879 492.138L181.611 522.458" stroke="#66EB71"/>
<path opacity="0.21" d="M211.879 492.138L242.148 522.458" stroke="#66EB71"/>
<path opacity="0.23" d="M242.148 492.138L272.416 522.458" stroke="#66EB71"/>
<path opacity="0.25" d="M302.684 492.138L272.416 522.458" stroke="#66EB71"/>
<path opacity="0.28" d="M302.685 492.138L332.953 522.458" stroke="#66EB71"/>
<path opacity="0.3" d="M363.222 492.138L332.953 522.458" stroke="#66EB71"/>
<path opacity="0.32" d="M393.49 492.138L363.222 522.458" stroke="#66EB71"/>
<path opacity="0.35" d="M393.49 492.138L423.759 522.458" stroke="#66EB71"/>
<path opacity="0.37" d="M454.027 492.139L423.758 522.458" stroke="#66EB71"/>
<path opacity="0.39" d="M484.295 492.138L454.027 522.458" stroke="#66EB71"/>
<path opacity="0.41" d="M484.295 492.138L514.564 522.458" stroke="#66EB71"/>
<path opacity="0.44" d="M544.832 492.138L514.564 522.458" stroke="#66EB71"/>
<path opacity="0.46" d="M575.101 492.138L544.833 522.458" stroke="#66EB71"/>
<path opacity="0.48" d="M575.101 492.138L605.37 522.458" stroke="#66EB71"/>
<path opacity="0.05" d="M0 522.458L30.2685 552.778" stroke="#66EB71"/>
<path opacity="0.07" d="M30.2686 522.458L60.537 552.778" stroke="#66EB71"/>
<path opacity="0.1" d="M90.8056 522.458L60.5371 552.778" stroke="#66EB71"/>
<path opacity="0.12" d="M121.074 522.458L90.8052 552.778" stroke="#66EB71"/>
<path opacity="0.14" d="M121.074 522.458L151.342 552.778" stroke="#66EB71"/>
<path opacity="0.16" d="M151.342 522.458L181.611 552.778" stroke="#66EB71"/>
<path opacity="0.19" d="M181.611 522.458L211.879 552.778" stroke="#66EB71"/>
<path opacity="0.21" d="M242.148 522.458L211.879 552.778" stroke="#66EB71"/>
<path opacity="0.23" d="M242.148 522.458L272.416 552.778" stroke="#66EB71"/>
<path opacity="0.25" d="M272.416 522.458L302.684 552.778" stroke="#66EB71"/>
<path opacity="0.28" d="M302.685 522.458L332.953 552.778" stroke="#66EB71"/>
<path opacity="0.3" d="M363.222 522.458L332.953 552.778" stroke="#66EB71"/>
<path opacity="0.32" d="M363.222 522.458L393.49 552.778" stroke="#66EB71"/>
<path opacity="0.35" d="M393.49 522.458L423.759 552.778" stroke="#66EB71"/>
<path opacity="0.37" d="M454.027 522.458L423.758 552.778" stroke="#66EB71"/>
<path opacity="0.39" d="M484.295 522.458L454.027 552.778" stroke="#66EB71"/>
<path opacity="0.41" d="M514.564 522.458L484.295 552.778" stroke="#66EB71"/>
<path opacity="0.44" d="M544.832 522.458L514.564 552.778" stroke="#66EB71"/>
<path opacity="0.46" d="M575.101 522.458L544.833 552.778" stroke="#66EB71"/>
<path opacity="0.48" d="M605.37 522.458L575.101 552.778" stroke="#66EB71"/>
<path opacity="0.05" d="M30.2685 552.778L0 583.098" stroke="#66EB71"/>
<path opacity="0.07" d="M30.2686 552.778L60.537 583.098" stroke="#66EB71"/>
<path opacity="0.1" d="M90.8056 552.778L60.5371 583.098" stroke="#66EB71"/>
<path opacity="0.12" d="M121.074 552.778L90.8052 583.098" stroke="#66EB71"/>
<path opacity="0.14" d="M121.074 552.778L151.342 583.098" stroke="#66EB71"/>
<path opacity="0.16" d="M151.342 552.778L181.611 583.098" stroke="#66EB71"/>
<path opacity="0.19" d="M181.611 552.778L211.879 583.098" stroke="#66EB71"/>
<path opacity="0.21" d="M242.148 552.778L211.879 583.098" stroke="#66EB71"/>
<path opacity="0.23" d="M272.416 552.778L242.148 583.098" stroke="#66EB71"/>
<path opacity="0.25" d="M272.416 552.778L302.684 583.098" stroke="#66EB71"/>
<path opacity="0.28" d="M332.953 552.778L302.685 583.098" stroke="#66EB71"/>
<path opacity="0.3" d="M332.953 552.778L363.222 583.098" stroke="#66EB71"/>
<path opacity="0.32" d="M363.222 552.778L393.49 583.098" stroke="#66EB71"/>
<path opacity="0.35" d="M423.759 552.778L393.49 583.098" stroke="#66EB71"/>
<path opacity="0.37" d="M423.758 552.778L454.027 583.098" stroke="#66EB71"/>
<path opacity="0.39" d="M484.295 552.778L454.027 583.098" stroke="#66EB71"/>
<path opacity="0.41" d="M484.295 552.778L514.564 583.098" stroke="#66EB71"/>
<path opacity="0.44" d="M514.564 552.778L544.832 583.098" stroke="#66EB71"/>
<path opacity="0.46" d="M544.833 552.778L575.101 583.098" stroke="#66EB71"/>
<path opacity="0.48" d="M605.37 552.778L575.101 583.098" stroke="#66EB71"/>
<path opacity="0.05" d="M0 583.098L30.2685 613.417" stroke="#66EB71"/>
<path opacity="0.07" d="M60.537 583.098L30.2686 613.417" stroke="#66EB71"/>
<path opacity="0.1" d="M60.5371 583.098L90.8056 613.417" stroke="#66EB71"/>
<path opacity="0.12" d="M90.8057 583.098L121.074 613.417" stroke="#66EB71"/>
<path opacity="0.14" d="M121.074 583.098L151.343 613.417" stroke="#66EB71"/>
<path opacity="0.16" d="M181.611 583.098L151.342 613.417" stroke="#66EB71"/>
<path opacity="0.19" d="M211.879 583.098L181.611 613.417" stroke="#66EB71"/>
<path opacity="0.21" d="M242.148 583.098L211.879 613.417" stroke="#66EB71"/>
<path opacity="0.23" d="M242.147 583.098L272.416 613.417" stroke="#66EB71"/>
<path opacity="0.25" d="M272.416 583.098L302.684 613.417" stroke="#66EB71"/>
<path opacity="0.28" d="M302.685 583.098L332.953 613.417" stroke="#66EB71"/>
<path opacity="0.3" d="M332.953 583.098L363.222 613.417" stroke="#66EB71"/>
<path opacity="0.32" d="M393.49 583.098L363.222 613.417" stroke="#66EB71"/>
<path opacity="0.35" d="M393.49 583.098L423.759 613.417" stroke="#66EB71"/>
<path opacity="0.37" d="M423.758 583.098L454.027 613.417" stroke="#66EB71"/>
<path opacity="0.39" d="M454.027 583.098L484.295 613.417" stroke="#66EB71"/>
<path opacity="0.41" d="M514.564 583.098L484.295 613.417" stroke="#66EB71"/>
<path opacity="0.44" d="M544.832 583.098L514.564 613.417" stroke="#66EB71"/>
<path opacity="0.46" d="M544.833 583.098L575.101 613.417" stroke="#66EB71"/>
<path opacity="0.48" d="M575.101 583.098L605.37 613.417" stroke="#66EB71"/>
<path opacity="0.05" d="M30.2685 613.417L0 643.737" stroke="#66EB71"/>
<path opacity="0.07" d="M60.537 613.417L30.2686 643.737" stroke="#66EB71"/>
<path opacity="0.1" d="M60.5371 613.417L90.8056 643.737" stroke="#66EB71"/>
<path opacity="0.12" d="M90.8052 613.417L121.074 643.737" stroke="#66EB71"/>
<path opacity="0.14" d="M151.342 613.417L121.074 643.737" stroke="#66EB71"/>
<path opacity="0.16" d="M181.611 613.417L151.342 643.737" stroke="#66EB71"/>
<path opacity="0.19" d="M181.611 613.417L211.879 643.737" stroke="#66EB71"/>
<path opacity="0.21" d="M211.879 613.417L242.148 643.737" stroke="#66EB71"/>
<path opacity="0.23" d="M272.416 613.417L242.148 643.737" stroke="#66EB71"/>
<path opacity="0.25" d="M272.416 613.417L302.684 643.737" stroke="#66EB71"/>
<path opacity="0.28" d="M302.685 613.417L332.953 643.737" stroke="#66EB71"/>
<path opacity="0.3" d="M332.953 613.417L363.222 643.737" stroke="#66EB71"/>
<path opacity="0.32" d="M393.49 613.417L363.222 643.737" stroke="#66EB71"/>
<path opacity="0.35" d="M423.759 613.417L393.49 643.737" stroke="#66EB71"/>
<path opacity="0.37" d="M423.758 613.417L454.027 643.737" stroke="#66EB71"/>
<path opacity="0.39" d="M484.295 613.417L454.027 643.737" stroke="#66EB71"/>
<path opacity="0.41" d="M484.295 613.417L514.564 643.737" stroke="#66EB71"/>
<path opacity="0.44" d="M514.564 613.417L544.832 643.737" stroke="#66EB71"/>
<path opacity="0.46" d="M544.833 613.417L575.101 643.737" stroke="#66EB71"/>
<path opacity="0.48" d="M575.101 613.417L605.37 643.737" stroke="#66EB71"/>
<path opacity="0.05" d="M0 643.737L30.2685 674.057" stroke="#66EB71"/>
<path opacity="0.07" d="M60.537 643.737L30.2686 674.057" stroke="#66EB71"/>
<path opacity="0.1" d="M60.5371 643.737L90.8056 674.057" stroke="#66EB71"/>
<path opacity="0.12" d="M121.074 643.737L90.8052 674.057" stroke="#66EB71"/>
<path opacity="0.14" d="M151.342 643.737L121.074 674.057" stroke="#66EB71"/>
<path opacity="0.16" d="M181.611 643.737L151.342 674.057" stroke="#66EB71"/>
<path opacity="0.19" d="M211.879 643.737L181.611 674.057" stroke="#66EB71"/>
<path opacity="0.21" d="M211.879 643.737L242.148 674.057" stroke="#66EB71"/>
<path opacity="0.23" d="M272.416 643.737L242.148 674.057" stroke="#66EB71"/>
<path opacity="0.25" d="M302.684 643.737L272.416 674.057" stroke="#66EB71"/>
<path opacity="0.28" d="M302.685 643.737L332.953 674.057" stroke="#66EB71"/>
<path opacity="0.3" d="M332.953 643.737L363.222 674.057" stroke="#66EB71"/>
<path opacity="0.32" d="M393.49 643.737L363.222 674.057" stroke="#66EB71"/>
<path opacity="0.35" d="M393.49 643.737L423.759 674.057" stroke="#66EB71"/>
<path opacity="0.37" d="M454.027 643.737L423.758 674.057" stroke="#66EB71"/>
<path opacity="0.39" d="M484.295 643.737L454.027 674.057" stroke="#66EB71"/>
<path opacity="0.41" d="M484.295 643.737L514.564 674.057" stroke="#66EB71"/>
<path opacity="0.44" d="M514.564 643.737L544.832 674.057" stroke="#66EB71"/>
<path opacity="0.46" d="M575.101 643.737L544.833 674.057" stroke="#66EB71"/>
<path opacity="0.48" d="M605.37 643.737L575.101 674.057" stroke="#66EB71"/>
<path opacity="0.05" d="M0 674.057L30.2685 704.377" stroke="#66EB71"/>
<path opacity="0.07" d="M60.537 674.057L30.2686 704.377" stroke="#66EB71"/>
<path opacity="0.1" d="M60.5371 674.057L90.8056 704.377" stroke="#66EB71"/>
<path opacity="0.12" d="M90.8052 674.057L121.074 704.377" stroke="#66EB71"/>
<path opacity="0.14" d="M151.342 674.057L121.074 704.377" stroke="#66EB71"/>
<path opacity="0.16" d="M151.342 674.057L181.611 704.377" stroke="#66EB71"/>
<path opacity="0.19" d="M181.611 674.057L211.879 704.377" stroke="#66EB71"/>
<path opacity="0.21" d="M211.879 674.057L242.148 704.377" stroke="#66EB71"/>
<path opacity="0.23" d="M272.416 674.057L242.148 704.377" stroke="#66EB71"/>
<path opacity="0.25" d="M272.416 674.057L302.684 704.377" stroke="#66EB71"/>
<path opacity="0.28" d="M332.953 674.057L302.685 704.377" stroke="#66EB71"/>
<path opacity="0.3" d="M332.953 674.057L363.222 704.377" stroke="#66EB71"/>
<path opacity="0.32" d="M393.49 674.057L363.222 704.377" stroke="#66EB71"/>
<path opacity="0.35" d="M423.759 674.057L393.49 704.377" stroke="#66EB71"/>
<path opacity="0.37" d="M423.758 674.057L454.027 704.377" stroke="#66EB71"/>
<path opacity="0.39" d="M454.027 674.057L484.295 704.377" stroke="#66EB71"/>
<path opacity="0.41" d="M514.564 674.057L484.295 704.377" stroke="#66EB71"/>
<path opacity="0.44" d="M514.564 674.057L544.832 704.377" stroke="#66EB71"/>
<path opacity="0.46" d="M544.833 674.057L575.101 704.377" stroke="#66EB71"/>
<path opacity="0.48" d="M575.101 674.057L605.37 704.377" stroke="#66EB71"/>
<path opacity="0.05" d="M0 704.377L30.2685 734.697" stroke="#66EB71"/>
<path opacity="0.07" d="M60.537 704.377L30.2686 734.697" stroke="#66EB71"/>
<path opacity="0.1" d="M60.5371 704.377L90.8056 734.697" stroke="#66EB71"/>
<path opacity="0.12" d="M121.074 704.377L90.8052 734.697" stroke="#66EB71"/>
<path opacity="0.14" d="M151.342 704.377L121.074 734.697" stroke="#66EB71"/>
<path opacity="0.16" d="M151.342 704.377L181.611 734.697" stroke="#66EB71"/>
<path opacity="0.19" d="M211.879 704.377L181.611 734.697" stroke="#66EB71"/>
<path opacity="0.21" d="M211.879 704.377L242.148 734.697" stroke="#66EB71"/>
<path opacity="0.23" d="M242.148 704.377L272.416 734.697" stroke="#66EB71"/>
<path opacity="0.25" d="M272.416 704.377L302.684 734.697" stroke="#66EB71"/>
<path opacity="0.28" d="M332.953 704.377L302.685 734.697" stroke="#66EB71"/>
<path opacity="0.3" d="M363.222 704.377L332.953 734.697" stroke="#66EB71"/>
<path opacity="0.32" d="M393.49 704.377L363.222 734.697" stroke="#66EB71"/>
<path opacity="0.35" d="M393.49 704.377L423.759 734.697" stroke="#66EB71"/>
<path opacity="0.37" d="M423.758 704.377L454.027 734.697" stroke="#66EB71"/>
<path opacity="0.39" d="M484.295 704.377L454.027 734.697" stroke="#66EB71"/>
<path opacity="0.41" d="M484.295 704.377L514.564 734.697" stroke="#66EB71"/>
<path opacity="0.44" d="M514.564 704.377L544.832 734.697" stroke="#66EB71"/>
<path opacity="0.46" d="M544.833 704.377L575.101 734.697" stroke="#66EB71"/>
<path opacity="0.48" d="M575.101 704.377L605.37 734.697" stroke="#66EB71"/>
<path opacity="0.05" d="M30.2685 734.697L0 765.017" stroke="#66EB71"/>
<path opacity="0.07" d="M60.537 734.697L30.2686 765.017" stroke="#66EB71"/>
<path opacity="0.1" d="M60.5371 734.697L90.8056 765.017" stroke="#66EB71"/>
<path opacity="0.12" d="M90.8052 734.697L121.074 765.017" stroke="#66EB71"/>
<path opacity="0.14" d="M121.074 734.697L151.342 765.017" stroke="#66EB71"/>
<path opacity="0.16" d="M151.342 734.697L181.611 765.017" stroke="#66EB71"/>
<path opacity="0.19" d="M211.879 734.697L181.611 765.017" stroke="#66EB71"/>
<path opacity="0.21" d="M211.879 734.697L242.148 765.017" stroke="#66EB71"/>
<path opacity="0.23" d="M242.148 734.697L272.416 765.017" stroke="#66EB71"/>
<path opacity="0.25" d="M302.684 734.697L272.416 765.017" stroke="#66EB71"/>
<path opacity="0.28" d="M332.953 734.697L302.685 765.017" stroke="#66EB71"/>
<path opacity="0.3" d="M332.953 734.697L363.222 765.017" stroke="#66EB71"/>
<path opacity="0.32" d="M393.49 734.697L363.222 765.017" stroke="#66EB71"/>
<path opacity="0.35" d="M423.759 734.697L393.49 765.017" stroke="#66EB71"/>
<path opacity="0.37" d="M454.027 734.697L423.758 765.017" stroke="#66EB71"/>
<path opacity="0.39" d="M454.027 734.697L484.295 765.017" stroke="#66EB71"/>
<path opacity="0.41" d="M514.564 734.697L484.295 765.017" stroke="#66EB71"/>
<path opacity="0.44" d="M544.832 734.697L514.564 765.017" stroke="#66EB71"/>
<path opacity="0.46" d="M575.101 734.697L544.833 765.017" stroke="#66EB71"/>
<path opacity="0.48" d="M575.101 734.697L605.37 765.017" stroke="#66EB71"/>
<path opacity="0.05" d="M30.2685 765.017L0 795.336" stroke="#66EB71"/>
<path opacity="0.07" d="M60.537 765.017L30.2686 795.336" stroke="#66EB71"/>
<path opacity="0.1" d="M90.8056 765.017L60.5371 795.336" stroke="#66EB71"/>
<path opacity="0.12" d="M90.8052 765.017L121.074 795.336" stroke="#66EB71"/>
<path opacity="0.14" d="M151.342 765.017L121.074 795.336" stroke="#66EB71"/>
<path opacity="0.16" d="M181.611 765.017L151.342 795.336" stroke="#66EB71"/>
<path opacity="0.19" d="M181.611 765.017L211.879 795.336" stroke="#66EB71"/>
<path opacity="0.21" d="M242.148 765.017L211.879 795.336" stroke="#66EB71"/>
<path opacity="0.23" d="M272.416 765.017L242.148 795.336" stroke="#66EB71"/>
<path opacity="0.25" d="M272.416 765.017L302.684 795.336" stroke="#66EB71"/>
<path opacity="0.28" d="M302.685 765.017L332.953 795.336" stroke="#66EB71"/>
<path opacity="0.3" d="M332.953 765.017L363.222 795.336" stroke="#66EB71"/>
<path opacity="0.32" d="M363.222 765.017L393.49 795.336" stroke="#66EB71"/>
<path opacity="0.35" d="M423.759 765.017L393.49 795.336" stroke="#66EB71"/>
<path opacity="0.37" d="M423.758 765.017L454.027 795.336" stroke="#66EB71"/>
<path opacity="0.39" d="M484.295 765.017L454.027 795.336" stroke="#66EB71"/>
<path opacity="0.41" d="M484.295 765.017L514.564 795.336" stroke="#66EB71"/>
<path opacity="0.44" d="M544.832 765.017L514.564 795.336" stroke="#66EB71"/>
<path opacity="0.46" d="M575.101 765.017L544.833 795.336" stroke="#66EB71"/>
<path opacity="0.48" d="M575.101 765.017L605.37 795.336" stroke="#66EB71"/>
<path opacity="0.05" d="M30.2685 795.336L0 825.656" stroke="#66EB71"/>
<path opacity="0.07" d="M60.537 795.336L30.2686 825.656" stroke="#66EB71"/>
<path opacity="0.1" d="M90.8056 795.336L60.5371 825.656" stroke="#66EB71"/>
<path opacity="0.12" d="M90.8057 795.336L121.074 825.656" stroke="#66EB71"/>
<path opacity="0.14" d="M151.343 795.336L121.074 825.656" stroke="#66EB71"/>
<path opacity="0.16" d="M151.342 795.336L181.611 825.656" stroke="#66EB71"/>
<path opacity="0.19" d="M211.879 795.336L181.611 825.656" stroke="#66EB71"/>
<path opacity="0.21" d="M211.879 795.336L242.148 825.656" stroke="#66EB71"/>
<path opacity="0.23" d="M242.147 795.336L272.416 825.656" stroke="#66EB71"/>
<path opacity="0.25" d="M272.416 795.336L302.684 825.656" stroke="#66EB71"/>
<path opacity="0.28" d="M302.685 795.336L332.953 825.656" stroke="#66EB71"/>
<path opacity="0.3" d="M363.222 795.336L332.953 825.656" stroke="#66EB71"/>
<path opacity="0.32" d="M393.49 795.336L363.222 825.656" stroke="#66EB71"/>
<path opacity="0.35" d="M393.49 795.336L423.759 825.656" stroke="#66EB71"/>
<path opacity="0.37" d="M423.758 795.336L454.027 825.656" stroke="#66EB71"/>
<path opacity="0.39" d="M484.295 795.336L454.027 825.656" stroke="#66EB71"/>
<path opacity="0.41" d="M514.564 795.336L484.295 825.656" stroke="#66EB71"/>
<path opacity="0.44" d="M514.564 795.336L544.832 825.656" stroke="#66EB71"/>
<path opacity="0.46" d="M544.833 795.336L575.101 825.656" stroke="#66EB71"/>
<path opacity="0.48" d="M575.101 795.336L605.37 825.656" stroke="#66EB71"/>
<path opacity="0.05" d="M30.2685 825.656L0 855.976" stroke="#66EB71"/>
<path opacity="0.07" d="M60.537 825.656L30.2686 855.976" stroke="#66EB71"/>
<path opacity="0.1" d="M60.5371 825.656L90.8056 855.976" stroke="#66EB71"/>
<path opacity="0.12" d="M90.8052 825.656L121.074 855.976" stroke="#66EB71"/>
<path opacity="0.14" d="M151.342 825.656L121.074 855.976" stroke="#66EB71"/>
<path opacity="0.16" d="M151.342 825.656L181.611 855.976" stroke="#66EB71"/>
<path opacity="0.19" d="M181.611 825.656L211.879 855.976" stroke="#66EB71"/>
<path opacity="0.21" d="M211.879 825.656L242.148 855.976" stroke="#66EB71"/>
<path opacity="0.23" d="M242.148 825.656L272.416 855.976" stroke="#66EB71"/>
<path opacity="0.25" d="M272.416 825.656L302.684 855.976" stroke="#66EB71"/>
<path opacity="0.28" d="M332.953 825.656L302.685 855.976" stroke="#66EB71"/>
<path opacity="0.3" d="M363.222 825.656L332.953 855.976" stroke="#66EB71"/>
<path opacity="0.32" d="M393.49 825.656L363.222 855.976" stroke="#66EB71"/>
<path opacity="0.35" d="M393.49 825.656L423.759 855.976" stroke="#66EB71"/>
<path opacity="0.37" d="M423.758 825.656L454.027 855.976" stroke="#66EB71"/>
<path opacity="0.39" d="M484.295 825.656L454.027 855.976" stroke="#66EB71"/>
<path opacity="0.41" d="M514.564 825.656L484.295 855.976" stroke="#66EB71"/>
<path opacity="0.44" d="M544.832 825.656L514.564 855.976" stroke="#66EB71"/>
<path opacity="0.46" d="M575.101 825.656L544.833 855.976" stroke="#66EB71"/>
<path opacity="0.48" d="M575.101 825.656L605.37 855.976" stroke="#66EB71"/>
<path opacity="0.05" d="M30.2685 855.976L0 886.295" stroke="#66EB71"/>
<path opacity="0.07" d="M30.2686 855.976L60.537 886.295" stroke="#66EB71"/>
<path opacity="0.1" d="M90.8056 855.976L60.5371 886.295" stroke="#66EB71"/>
<path opacity="0.12" d="M121.074 855.976L90.8052 886.295" stroke="#66EB71"/>
<path opacity="0.14" d="M151.342 855.976L121.074 886.295" stroke="#66EB71"/>
<path opacity="0.16" d="M181.611 855.976L151.342 886.295" stroke="#66EB71"/>
<path opacity="0.19" d="M211.879 855.976L181.611 886.295" stroke="#66EB71"/>
<path opacity="0.21" d="M211.879 855.976L242.148 886.295" stroke="#66EB71"/>
<path opacity="0.23" d="M242.148 855.976L272.416 886.295" stroke="#66EB71"/>
<path opacity="0.25" d="M302.684 855.976L272.416 886.295" stroke="#66EB71"/>
<path opacity="0.28" d="M302.685 855.976L332.953 886.295" stroke="#66EB71"/>
<path opacity="0.3" d="M332.953 855.976L363.222 886.295" stroke="#66EB71"/>
<path opacity="0.32" d="M363.222 855.976L393.49 886.295" stroke="#66EB71"/>
<path opacity="0.35" d="M393.49 855.976L423.759 886.295" stroke="#66EB71"/>
<path opacity="0.37" d="M454.027 855.976L423.758 886.295" stroke="#66EB71"/>
<path opacity="0.39" d="M454.027 855.976L484.295 886.295" stroke="#66EB71"/>
<path opacity="0.41" d="M484.295 855.976L514.564 886.295" stroke="#66EB71"/>
<path opacity="0.44" d="M544.832 855.976L514.564 886.295" stroke="#66EB71"/>
<path opacity="0.46" d="M575.101 855.976L544.833 886.295" stroke="#66EB71"/>
<path opacity="0.48" d="M575.101 855.976L605.37 886.295" stroke="#66EB71"/>
<path opacity="0.05" d="M30.2685 886.295L0 916.615" stroke="#66EB71"/>
<path opacity="0.07" d="M30.2686 886.295L60.537 916.615" stroke="#66EB71"/>
<path opacity="0.1" d="M60.5371 886.295L90.8056 916.615" stroke="#66EB71"/>
<path opacity="0.12" d="M121.074 886.295L90.8052 916.615" stroke="#66EB71"/>
<path opacity="0.14" d="M151.342 886.295L121.074 916.615" stroke="#66EB71"/>
<path opacity="0.16" d="M181.611 886.295L151.342 916.615" stroke="#66EB71"/>
<path opacity="0.19" d="M181.611 886.295L211.879 916.615" stroke="#66EB71"/>
<path opacity="0.21" d="M211.879 886.295L242.148 916.615" stroke="#66EB71"/>
<path opacity="0.23" d="M272.416 886.295L242.148 916.615" stroke="#66EB71"/>
<path opacity="0.25" d="M302.684 886.295L272.416 916.615" stroke="#66EB71"/>
<path opacity="0.28" d="M302.685 886.295L332.953 916.615" stroke="#66EB71"/>
<path opacity="0.3" d="M363.222 886.295L332.953 916.615" stroke="#66EB71"/>
<path opacity="0.32" d="M363.222 886.295L393.49 916.615" stroke="#66EB71"/>
<path opacity="0.35" d="M393.49 886.295L423.759 916.615" stroke="#66EB71"/>
<path opacity="0.37" d="M423.758 886.295L454.027 916.615" stroke="#66EB71"/>
<path opacity="0.39" d="M454.027 886.295L484.295 916.615" stroke="#66EB71"/>
<path opacity="0.41" d="M484.295 886.295L514.564 916.615" stroke="#66EB71"/>
<path opacity="0.44" d="M514.564 886.295L544.832 916.615" stroke="#66EB71"/>
<path opacity="0.46" d="M544.833 886.295L575.101 916.615" stroke="#66EB71"/>
<path opacity="0.48" d="M575.101 886.295L605.37 916.615" stroke="#66EB71"/>
<path opacity="0.05" d="M0 916.615L30.2685 946.935" stroke="#66EB71"/>
<path opacity="0.07" d="M60.537 916.615L30.2686 946.935" stroke="#66EB71"/>
<path opacity="0.1" d="M60.5371 916.615L90.8056 946.935" stroke="#66EB71"/>
<path opacity="0.12" d="M121.074 916.615L90.8057 946.935" stroke="#66EB71"/>
<path opacity="0.14" d="M151.343 916.615L121.074 946.935" stroke="#66EB71"/>
<path opacity="0.16" d="M181.611 916.615L151.342 946.935" stroke="#66EB71"/>
<path opacity="0.19" d="M211.879 916.615L181.611 946.935" stroke="#66EB71"/>
<path opacity="0.21" d="M211.879 916.615L242.148 946.935" stroke="#66EB71"/>
<path opacity="0.23" d="M272.416 916.615L242.147 946.935" stroke="#66EB71"/>
<path opacity="0.25" d="M302.684 916.615L272.416 946.935" stroke="#66EB71"/>
<path opacity="0.28" d="M332.953 916.615L302.685 946.935" stroke="#66EB71"/>
<path opacity="0.3" d="M332.953 916.615L363.222 946.935" stroke="#66EB71"/>
<path opacity="0.32" d="M393.49 916.615L363.222 946.935" stroke="#66EB71"/>
<path opacity="0.35" d="M393.49 916.615L423.759 946.935" stroke="#66EB71"/>
<path opacity="0.37" d="M454.027 916.615L423.758 946.935" stroke="#66EB71"/>
<path opacity="0.39" d="M484.295 916.615L454.027 946.935" stroke="#66EB71"/>
<path opacity="0.41" d="M514.564 916.615L484.295 946.935" stroke="#66EB71"/>
<path opacity="0.44" d="M514.564 916.615L544.832 946.935" stroke="#66EB71"/>
<path opacity="0.46" d="M544.833 916.615L575.101 946.935" stroke="#66EB71"/>
<path opacity="0.48" d="M575.101 916.615L605.37 946.935" stroke="#66EB71"/>
<path opacity="0.05" d="M30.2685 946.935L0 977.255" stroke="#66EB71"/>
<path opacity="0.07" d="M60.537 946.935L30.2686 977.255" stroke="#66EB71"/>
<path opacity="0.1" d="M90.8056 946.935L60.5371 977.255" stroke="#66EB71"/>
<path opacity="0.12" d="M90.8052 946.935L121.074 977.255" stroke="#66EB71"/>
<path opacity="0.14" d="M121.074 946.935L151.342 977.255" stroke="#66EB71"/>
<path opacity="0.16" d="M151.342 946.935L181.611 977.255" stroke="#66EB71"/>
<path opacity="0.19" d="M211.879 946.935L181.611 977.255" stroke="#66EB71"/>
<path opacity="0.21" d="M242.148 946.935L211.879 977.255" stroke="#66EB71"/>
<path opacity="0.23" d="M272.416 946.935L242.148 977.255" stroke="#66EB71"/>
<path opacity="0.25" d="M272.416 946.935L302.684 977.255" stroke="#66EB71"/>
<path opacity="0.28" d="M332.953 946.935L302.685 977.255" stroke="#66EB71"/>
<path opacity="0.3" d="M332.953 946.935L363.222 977.255" stroke="#66EB71"/>
<path opacity="0.32" d="M393.49 946.935L363.222 977.255" stroke="#66EB71"/>
<path opacity="0.35" d="M423.759 946.935L393.49 977.255" stroke="#66EB71"/>
<path opacity="0.37" d="M454.027 946.935L423.758 977.255" stroke="#66EB71"/>
<path opacity="0.39" d="M454.027 946.935L484.295 977.255" stroke="#66EB71"/>
<path opacity="0.41" d="M484.295 946.935L514.564 977.255" stroke="#66EB71"/>
<path opacity="0.44" d="M514.564 946.935L544.832 977.255" stroke="#66EB71"/>
<path opacity="0.46" d="M575.101 946.935L544.833 977.255" stroke="#66EB71"/>
<path opacity="0.48" d="M575.101 946.935L605.37 977.255" stroke="#66EB71"/>
<path opacity="0.05" d="M30.2685 977.255L0 1007.57" stroke="#66EB71"/>
<path opacity="0.07" d="M30.2686 977.255L60.537 1007.57" stroke="#66EB71"/>
<path opacity="0.1" d="M60.5371 977.255L90.8056 1007.57" stroke="#66EB71"/>
<path opacity="0.12" d="M90.8052 977.255L121.074 1007.57" stroke="#66EB71"/>
<path opacity="0.14" d="M121.074 977.255L151.342 1007.57" stroke="#66EB71"/>
<path opacity="0.16" d="M181.611 977.255L151.342 1007.57" stroke="#66EB71"/>
<path opacity="0.19" d="M211.879 977.255L181.611 1007.57" stroke="#66EB71"/>
<path opacity="0.21" d="M211.879 977.255L242.148 1007.57" stroke="#66EB71"/>
<path opacity="0.23" d="M242.148 977.255L272.416 1007.57" stroke="#66EB71"/>
<path opacity="0.25" d="M302.684 977.255L272.416 1007.57" stroke="#66EB71"/>
<path opacity="0.28" d="M302.685 977.255L332.953 1007.57" stroke="#66EB71"/>
<path opacity="0.3" d="M363.222 977.255L332.953 1007.57" stroke="#66EB71"/>
<path opacity="0.32" d="M393.49 977.255L363.222 1007.57" stroke="#66EB71"/>
<path opacity="0.35" d="M423.759 977.255L393.49 1007.57" stroke="#66EB71"/>
<path opacity="0.37" d="M454.027 977.255L423.758 1007.57" stroke="#66EB71"/>
<path opacity="0.39" d="M454.027 977.255L484.295 1007.57" stroke="#66EB71"/>
<path opacity="0.41" d="M484.295 977.255L514.564 1007.57" stroke="#66EB71"/>
<path opacity="0.44" d="M514.564 977.255L544.832 1007.57" stroke="#66EB71"/>
<path opacity="0.46" d="M575.101 977.255L544.833 1007.57" stroke="#66EB71"/>
<path opacity="0.48" d="M605.37 977.255L575.101 1007.57" stroke="#66EB71"/>
<path opacity="0.05" d="M0 1007.57L30.2685 1037.89" stroke="#66EB71"/>
<path opacity="0.07" d="M60.537 1007.57L30.2686 1037.89" stroke="#66EB71"/>
<path opacity="0.1" d="M90.8056 1007.57L60.5371 1037.89" stroke="#66EB71"/>
<path opacity="0.12" d="M121.074 1007.57L90.8052 1037.89" stroke="#66EB71"/>
<path opacity="0.14" d="M121.074 1007.57L151.342 1037.89" stroke="#66EB71"/>
<path opacity="0.16" d="M151.342 1007.57L181.611 1037.89" stroke="#66EB71"/>
<path opacity="0.19" d="M211.879 1007.57L181.611 1037.89" stroke="#66EB71"/>
<path opacity="0.21" d="M211.879 1007.57L242.148 1037.89" stroke="#66EB71"/>
<path opacity="0.23" d="M242.148 1007.57L272.416 1037.89" stroke="#66EB71"/>
<path opacity="0.25" d="M302.684 1007.57L272.416 1037.89" stroke="#66EB71"/>
<path opacity="0.28" d="M332.953 1007.57L302.685 1037.89" stroke="#66EB71"/>
<path opacity="0.3" d="M363.222 1007.57L332.953 1037.89" stroke="#66EB71"/>
<path opacity="0.32" d="M393.49 1007.57L363.222 1037.89" stroke="#66EB71"/>
<path opacity="0.35" d="M393.49 1007.57L423.759 1037.89" stroke="#66EB71"/>
<path opacity="0.37" d="M423.758 1007.57L454.027 1037.89" stroke="#66EB71"/>
<path opacity="0.39" d="M454.027 1007.57L484.295 1037.89" stroke="#66EB71"/>
<path opacity="0.41" d="M484.295 1007.57L514.564 1037.89" stroke="#66EB71"/>
<path opacity="0.44" d="M544.832 1007.57L514.564 1037.89" stroke="#66EB71"/>
<path opacity="0.46" d="M544.833 1007.57L575.101 1037.89" stroke="#66EB71"/>
<path opacity="0.48" d="M575.101 1007.57L605.37 1037.89" stroke="#66EB71"/>
</g>
<defs>
<clipPath id="clip0_850_27719">
<rect width="720" height="713.407" fill="white" transform="translate(0 -403.187)"/>
</clipPath>
<clipPath id="clip1_850_27719">
<rect width="720" height="713.407" fill="white" transform="translate(0 310.22)"/>
</clipPath>
</defs>
</svg>
