<svg width="320" height="701" viewBox="0 0 320 701" fill="none" xmlns="http://www.w3.org/2000/svg">
<g opacity="0.2" clip-path="url(#clip0_850_35838)">
<path opacity="0.05" d="M-18 -8.62305L7.47596 16.8961" stroke="#66EB71"/>
<path opacity="0.07" d="M7.47607 -8.62305L32.952 16.8961" stroke="#66EB71"/>
<path opacity="0.1" d="M58.4281 -8.62305L32.9521 16.8961" stroke="#66EB71"/>
<path opacity="0.12" d="M58.4277 -8.62305L83.9037 16.8961" stroke="#66EB71"/>
<path opacity="0.14" d="M109.38 -8.62305L83.9038 16.8961" stroke="#66EB71"/>
<path opacity="0.16" d="M134.856 -8.62305L109.38 16.8961" stroke="#66EB71"/>
<path opacity="0.19" d="M134.856 -8.62305L160.332 16.8961" stroke="#66EB71"/>
<path opacity="0.21" d="M160.332 -8.62305L185.807 16.8961" stroke="#66EB71"/>
<path opacity="0.23" d="M185.808 -8.62305L211.284 16.8961" stroke="#66EB71"/>
<path opacity="0.25" d="M236.76 -8.62305L211.284 16.8961" stroke="#66EB71"/>
<path opacity="0.28" d="M262.236 -8.62305L236.76 16.8961" stroke="#66EB71"/>
<path opacity="0.3" d="M262.235 -8.62305L287.711 16.8961" stroke="#66EB71"/>
<path opacity="0.32" d="M287.711 -8.62305L313.187 16.8961" stroke="#66EB71"/>
<path opacity="0.35" d="M313.188 -8.62305L338.663 16.8961" stroke="#66EB71"/>
<path opacity="0.05" d="M-18 16.896L7.47596 42.4151" stroke="#66EB71"/>
<path opacity="0.07" d="M32.952 16.896L7.47607 42.4151" stroke="#66EB71"/>
<path opacity="0.1" d="M58.4281 16.896L32.9521 42.4151" stroke="#66EB71"/>
<path opacity="0.12" d="M83.9037 16.896L58.4277 42.4151" stroke="#66EB71"/>
<path opacity="0.14" d="M109.38 16.896L83.9038 42.4151" stroke="#66EB71"/>
<path opacity="0.16" d="M134.856 16.896L109.38 42.4151" stroke="#66EB71"/>
<path opacity="0.19" d="M160.332 16.896L134.856 42.4151" stroke="#66EB71"/>
<path opacity="0.21" d="M160.332 16.896L185.807 42.4151" stroke="#66EB71"/>
<path opacity="0.23" d="M211.284 16.896L185.808 42.4151" stroke="#66EB71"/>
<path opacity="0.25" d="M236.76 16.896L211.284 42.4151" stroke="#66EB71"/>
<path opacity="0.28" d="M262.236 16.896L236.76 42.4151" stroke="#66EB71"/>
<path opacity="0.3" d="M287.711 16.896L262.235 42.4151" stroke="#66EB71"/>
<path opacity="0.32" d="M287.711 16.896L313.187 42.4151" stroke="#66EB71"/>
<path opacity="0.35" d="M338.663 16.896L313.188 42.4151" stroke="#66EB71"/>
<path opacity="0.05" d="M-18 42.415L7.47596 67.9342" stroke="#66EB71"/>
<path opacity="0.07" d="M32.952 42.415L7.47607 67.9342" stroke="#66EB71"/>
<path opacity="0.1" d="M32.9521 42.415L58.4281 67.9342" stroke="#66EB71"/>
<path opacity="0.12" d="M58.4277 42.415L83.9037 67.9342" stroke="#66EB71"/>
<path opacity="0.14" d="M109.38 42.415L83.9038 67.9342" stroke="#66EB71"/>
<path opacity="0.16" d="M109.38 42.415L134.856 67.9342" stroke="#66EB71"/>
<path opacity="0.19" d="M160.332 42.415L134.856 67.9342" stroke="#66EB71"/>
<path opacity="0.21" d="M185.807 42.4155L160.332 67.9347" stroke="#66EB71"/>
<path opacity="0.23" d="M185.808 42.415L211.284 67.9342" stroke="#66EB71"/>
<path opacity="0.25" d="M236.76 42.415L211.284 67.9342" stroke="#66EB71"/>
<path opacity="0.28" d="M236.76 42.415L262.236 67.9342" stroke="#66EB71"/>
<path opacity="0.3" d="M287.711 42.415L262.235 67.9342" stroke="#66EB71"/>
<path opacity="0.32" d="M313.187 42.415L287.711 67.9342" stroke="#66EB71"/>
<path opacity="0.35" d="M313.188 42.415L338.663 67.9342" stroke="#66EB71"/>
<path opacity="0.05" d="M-18 67.9346L7.47596 93.4537" stroke="#66EB71"/>
<path opacity="0.07" d="M7.47607 67.9346L32.952 93.4537" stroke="#66EB71"/>
<path opacity="0.1" d="M32.9521 67.9346L58.4281 93.4537" stroke="#66EB71"/>
<path opacity="0.12" d="M58.4277 67.9346L83.9037 93.4537" stroke="#66EB71"/>
<path opacity="0.14" d="M83.9038 67.9346L109.38 93.4537" stroke="#66EB71"/>
<path opacity="0.16" d="M134.856 67.9346L109.38 93.4537" stroke="#66EB71"/>
<path opacity="0.19" d="M134.856 67.9346L160.332 93.4537" stroke="#66EB71"/>
<path opacity="0.21" d="M185.807 67.9346L160.332 93.4537" stroke="#66EB71"/>
<path opacity="0.23" d="M185.808 67.9346L211.284 93.4537" stroke="#66EB71"/>
<path opacity="0.25" d="M211.284 67.9346L236.76 93.4537" stroke="#66EB71"/>
<path opacity="0.28" d="M262.236 67.9346L236.76 93.4537" stroke="#66EB71"/>
<path opacity="0.3" d="M287.711 67.9346L262.235 93.4537" stroke="#66EB71"/>
<path opacity="0.32" d="M313.187 67.9346L287.711 93.4537" stroke="#66EB71"/>
<path opacity="0.35" d="M313.188 67.9346L338.663 93.4537" stroke="#66EB71"/>
<path opacity="0.05" d="M7.47596 93.4536L-18 118.973" stroke="#66EB71"/>
<path opacity="0.07" d="M7.47607 93.4536L32.952 118.973" stroke="#66EB71"/>
<path opacity="0.1" d="M32.9521 93.4536L58.4281 118.973" stroke="#66EB71"/>
<path opacity="0.12" d="M58.4277 93.4536L83.9037 118.973" stroke="#66EB71"/>
<path opacity="0.14" d="M83.9038 93.4536L109.38 118.973" stroke="#66EB71"/>
<path opacity="0.16" d="M109.38 93.4536L134.856 118.973" stroke="#66EB71"/>
<path opacity="0.19" d="M134.856 93.4536L160.332 118.973" stroke="#66EB71"/>
<path opacity="0.21" d="M185.807 93.4531L160.332 118.972" stroke="#66EB71"/>
<path opacity="0.23" d="M211.284 93.4536L185.808 118.973" stroke="#66EB71"/>
<path opacity="0.25" d="M236.76 93.4536L211.284 118.973" stroke="#66EB71"/>
<path opacity="0.28" d="M262.236 93.4536L236.76 118.973" stroke="#66EB71"/>
<path opacity="0.3" d="M262.235 93.4536L287.711 118.973" stroke="#66EB71"/>
<path opacity="0.32" d="M313.187 93.4536L287.711 118.973" stroke="#66EB71"/>
<path opacity="0.35" d="M313.188 93.4536L338.663 118.973" stroke="#66EB71"/>
<path opacity="0.05" d="M7.47596 118.973L-18 144.492" stroke="#66EB71"/>
<path opacity="0.07" d="M32.952 118.973L7.47607 144.492" stroke="#66EB71"/>
<path opacity="0.1" d="M32.9521 118.973L58.4281 144.492" stroke="#66EB71"/>
<path opacity="0.12" d="M83.9037 118.973L58.4277 144.492" stroke="#66EB71"/>
<path opacity="0.14" d="M109.38 118.973L83.9038 144.492" stroke="#66EB71"/>
<path opacity="0.16" d="M134.856 118.973L109.38 144.492" stroke="#66EB71"/>
<path opacity="0.19" d="M134.856 118.973L160.332 144.492" stroke="#66EB71"/>
<path opacity="0.21" d="M160.332 118.973L185.807 144.492" stroke="#66EB71"/>
<path opacity="0.23" d="M185.808 118.973L211.284 144.492" stroke="#66EB71"/>
<path opacity="0.25" d="M236.76 118.973L211.284 144.492" stroke="#66EB71"/>
<path opacity="0.28" d="M236.76 118.973L262.236 144.492" stroke="#66EB71"/>
<path opacity="0.3" d="M262.235 118.973L287.711 144.492" stroke="#66EB71"/>
<path opacity="0.32" d="M287.711 118.973L313.187 144.492" stroke="#66EB71"/>
<path opacity="0.35" d="M338.663 118.973L313.188 144.492" stroke="#66EB71"/>
<path opacity="0.05" d="M-18 144.492L7.47596 170.011" stroke="#66EB71"/>
<path opacity="0.07" d="M32.952 144.492L7.47607 170.011" stroke="#66EB71"/>
<path opacity="0.1" d="M58.4281 144.492L32.9521 170.011" stroke="#66EB71"/>
<path opacity="0.12" d="M83.9037 144.492L58.4277 170.011" stroke="#66EB71"/>
<path opacity="0.14" d="M109.38 144.492L83.9038 170.011" stroke="#66EB71"/>
<path opacity="0.16" d="M109.38 144.492L134.856 170.011" stroke="#66EB71"/>
<path opacity="0.19" d="M160.332 144.492L134.856 170.011" stroke="#66EB71"/>
<path opacity="0.21" d="M160.332 144.492L185.807 170.011" stroke="#66EB71"/>
<path opacity="0.23" d="M185.808 144.492L211.284 170.011" stroke="#66EB71"/>
<path opacity="0.25" d="M236.76 144.492L211.284 170.011" stroke="#66EB71"/>
<path opacity="0.28" d="M236.76 144.492L262.236 170.011" stroke="#66EB71"/>
<path opacity="0.3" d="M287.711 144.492L262.235 170.011" stroke="#66EB71"/>
<path opacity="0.32" d="M313.187 144.492L287.711 170.011" stroke="#66EB71"/>
<path opacity="0.35" d="M313.188 144.492L338.663 170.011" stroke="#66EB71"/>
<path opacity="0.05" d="M-18 170.011L7.47596 195.53" stroke="#66EB71"/>
<path opacity="0.07" d="M7.47607 170.011L32.952 195.53" stroke="#66EB71"/>
<path opacity="0.1" d="M58.4281 170.011L32.9521 195.53" stroke="#66EB71"/>
<path opacity="0.12" d="M83.9037 170.011L58.4277 195.53" stroke="#66EB71"/>
<path opacity="0.14" d="M83.9038 170.011L109.38 195.53" stroke="#66EB71"/>
<path opacity="0.16" d="M109.38 170.011L134.856 195.53" stroke="#66EB71"/>
<path opacity="0.19" d="M134.856 170.011L160.332 195.53" stroke="#66EB71"/>
<path opacity="0.21" d="M185.807 170.011L160.332 195.53" stroke="#66EB71"/>
<path opacity="0.23" d="M185.808 170.011L211.284 195.53" stroke="#66EB71"/>
<path opacity="0.25" d="M211.284 170.011L236.76 195.53" stroke="#66EB71"/>
<path opacity="0.28" d="M236.76 170.011L262.236 195.53" stroke="#66EB71"/>
<path opacity="0.3" d="M287.711 170.011L262.235 195.53" stroke="#66EB71"/>
<path opacity="0.32" d="M287.711 170.011L313.187 195.53" stroke="#66EB71"/>
<path opacity="0.35" d="M313.188 170.011L338.663 195.53" stroke="#66EB71"/>
<path opacity="0.05" d="M7.47596 195.53L-18 221.049" stroke="#66EB71"/>
<path opacity="0.07" d="M7.47607 195.53L32.952 221.049" stroke="#66EB71"/>
<path opacity="0.1" d="M58.4281 195.53L32.9521 221.049" stroke="#66EB71"/>
<path opacity="0.12" d="M83.9037 195.53L58.4277 221.049" stroke="#66EB71"/>
<path opacity="0.14" d="M83.9038 195.53L109.38 221.049" stroke="#66EB71"/>
<path opacity="0.16" d="M109.38 195.53L134.856 221.049" stroke="#66EB71"/>
<path opacity="0.19" d="M134.856 195.53L160.332 221.049" stroke="#66EB71"/>
<path opacity="0.21" d="M185.807 195.53L160.332 221.049" stroke="#66EB71"/>
<path opacity="0.23" d="M211.284 195.53L185.808 221.049" stroke="#66EB71"/>
<path opacity="0.25" d="M211.284 195.53L236.76 221.049" stroke="#66EB71"/>
<path opacity="0.28" d="M262.236 195.53L236.76 221.049" stroke="#66EB71"/>
<path opacity="0.3" d="M262.235 195.53L287.711 221.049" stroke="#66EB71"/>
<path opacity="0.32" d="M287.711 195.53L313.187 221.049" stroke="#66EB71"/>
<path opacity="0.35" d="M338.663 195.53L313.188 221.049" stroke="#66EB71"/>
<path opacity="0.05" d="M-18 221.049L7.47596 246.568" stroke="#66EB71"/>
<path opacity="0.07" d="M32.952 221.049L7.47607 246.568" stroke="#66EB71"/>
<path opacity="0.1" d="M32.9521 221.049L58.4281 246.568" stroke="#66EB71"/>
<path opacity="0.12" d="M58.4277 221.049L83.9037 246.568" stroke="#66EB71"/>
<path opacity="0.14" d="M83.9038 221.049L109.38 246.568" stroke="#66EB71"/>
<path opacity="0.16" d="M134.856 221.049L109.38 246.568" stroke="#66EB71"/>
<path opacity="0.19" d="M160.331 221.049L134.855 246.568" stroke="#66EB71"/>
<path opacity="0.21" d="M185.807 221.049L160.332 246.568" stroke="#66EB71"/>
<path opacity="0.23" d="M185.808 221.049L211.284 246.568" stroke="#66EB71"/>
<path opacity="0.25" d="M211.284 221.049L236.76 246.568" stroke="#66EB71"/>
<path opacity="0.28" d="M236.76 221.049L262.236 246.568" stroke="#66EB71"/>
<path opacity="0.3" d="M262.235 221.049L287.711 246.568" stroke="#66EB71"/>
<path opacity="0.32" d="M313.187 221.049L287.711 246.568" stroke="#66EB71"/>
<path opacity="0.35" d="M313.188 221.049L338.663 246.568" stroke="#66EB71"/>
<path opacity="0.05" d="M7.47596 246.568L-18 272.088" stroke="#66EB71"/>
<path opacity="0.07" d="M32.952 246.568L7.47607 272.088" stroke="#66EB71"/>
<path opacity="0.1" d="M32.9521 246.568L58.4281 272.088" stroke="#66EB71"/>
<path opacity="0.12" d="M58.4277 246.568L83.9037 272.088" stroke="#66EB71"/>
<path opacity="0.14" d="M109.38 246.568L83.9038 272.088" stroke="#66EB71"/>
<path opacity="0.16" d="M134.856 246.568L109.38 272.088" stroke="#66EB71"/>
<path opacity="0.19" d="M134.856 246.568L160.332 272.088" stroke="#66EB71"/>
<path opacity="0.21" d="M160.332 246.568L185.807 272.088" stroke="#66EB71"/>
<path opacity="0.23" d="M211.284 246.568L185.808 272.088" stroke="#66EB71"/>
<path opacity="0.25" d="M211.284 246.568L236.76 272.088" stroke="#66EB71"/>
<path opacity="0.28" d="M236.76 246.568L262.236 272.088" stroke="#66EB71"/>
<path opacity="0.3" d="M262.235 246.568L287.711 272.088" stroke="#66EB71"/>
<path opacity="0.32" d="M313.187 246.568L287.711 272.088" stroke="#66EB71"/>
<path opacity="0.35" d="M338.663 246.568L313.188 272.088" stroke="#66EB71"/>
<path opacity="0.05" d="M-18 272.087L7.47596 297.607" stroke="#66EB71"/>
<path opacity="0.07" d="M32.952 272.087L7.47607 297.607" stroke="#66EB71"/>
<path opacity="0.1" d="M32.9521 272.087L58.4281 297.607" stroke="#66EB71"/>
<path opacity="0.12" d="M83.9037 272.087L58.4277 297.607" stroke="#66EB71"/>
<path opacity="0.14" d="M109.38 272.087L83.9038 297.607" stroke="#66EB71"/>
<path opacity="0.16" d="M134.856 272.087L109.38 297.607" stroke="#66EB71"/>
<path opacity="0.19" d="M160.332 272.087L134.856 297.607" stroke="#66EB71"/>
<path opacity="0.21" d="M160.332 272.087L185.807 297.607" stroke="#66EB71"/>
<path opacity="0.23" d="M211.284 272.087L185.808 297.607" stroke="#66EB71"/>
<path opacity="0.25" d="M236.76 272.087L211.284 297.607" stroke="#66EB71"/>
<path opacity="0.28" d="M236.76 272.087L262.236 297.607" stroke="#66EB71"/>
<path opacity="0.3" d="M262.235 272.087L287.711 297.607" stroke="#66EB71"/>
<path opacity="0.32" d="M313.187 272.087L287.711 297.607" stroke="#66EB71"/>
<path opacity="0.35" d="M313.188 272.087L338.663 297.607" stroke="#66EB71"/>
<path opacity="0.05" d="M-18 297.606L7.47596 323.126" stroke="#66EB71"/>
<path opacity="0.07" d="M32.952 297.606L7.47607 323.126" stroke="#66EB71"/>
<path opacity="0.1" d="M32.9521 297.606L58.4281 323.126" stroke="#66EB71"/>
<path opacity="0.12" d="M58.4277 297.606L83.9037 323.126" stroke="#66EB71"/>
<path opacity="0.14" d="M109.38 297.606L83.9038 323.126" stroke="#66EB71"/>
<path opacity="0.16" d="M109.38 297.606L134.856 323.126" stroke="#66EB71"/>
<path opacity="0.19" d="M134.856 297.606L160.332 323.126" stroke="#66EB71"/>
<path opacity="0.21" d="M160.332 297.606L185.807 323.126" stroke="#66EB71"/>
<path opacity="0.23" d="M211.284 297.606L185.808 323.126" stroke="#66EB71"/>
<path opacity="0.25" d="M211.284 297.606L236.76 323.126" stroke="#66EB71"/>
<path opacity="0.28" d="M262.236 297.606L236.76 323.126" stroke="#66EB71"/>
<path opacity="0.3" d="M262.235 297.606L287.711 323.126" stroke="#66EB71"/>
<path opacity="0.32" d="M313.187 297.606L287.711 323.126" stroke="#66EB71"/>
<path opacity="0.35" d="M338.663 297.606L313.188 323.126" stroke="#66EB71"/>
<path opacity="0.05" d="M-18 323.126L7.47596 348.645" stroke="#66EB71"/>
<path opacity="0.07" d="M32.952 323.126L7.47607 348.645" stroke="#66EB71"/>
<path opacity="0.1" d="M32.9521 323.126L58.4281 348.645" stroke="#66EB71"/>
<path opacity="0.12" d="M83.9037 323.126L58.4277 348.645" stroke="#66EB71"/>
<path opacity="0.14" d="M109.38 323.126L83.9038 348.645" stroke="#66EB71"/>
<path opacity="0.16" d="M109.38 323.126L134.856 348.645" stroke="#66EB71"/>
<path opacity="0.19" d="M160.332 323.126L134.856 348.645" stroke="#66EB71"/>
<path opacity="0.21" d="M160.332 323.126L185.807 348.645" stroke="#66EB71"/>
<path opacity="0.23" d="M185.808 323.126L211.284 348.645" stroke="#66EB71"/>
<path opacity="0.25" d="M211.284 323.126L236.76 348.645" stroke="#66EB71"/>
<path opacity="0.28" d="M262.236 323.126L236.76 348.645" stroke="#66EB71"/>
<path opacity="0.3" d="M287.711 323.126L262.235 348.645" stroke="#66EB71"/>
<path opacity="0.32" d="M313.187 323.126L287.711 348.645" stroke="#66EB71"/>
<path opacity="0.35" d="M313.188 323.126L338.663 348.645" stroke="#66EB71"/>
<path opacity="0.05" d="M7.47596 348.645L-18 374.164" stroke="#66EB71"/>
<path opacity="0.07" d="M32.952 348.645L7.47607 374.164" stroke="#66EB71"/>
<path opacity="0.1" d="M32.9521 348.645L58.4281 374.164" stroke="#66EB71"/>
<path opacity="0.12" d="M58.4277 348.645L83.9037 374.164" stroke="#66EB71"/>
<path opacity="0.14" d="M83.9038 348.645L109.38 374.164" stroke="#66EB71"/>
<path opacity="0.16" d="M109.38 348.645L134.856 374.164" stroke="#66EB71"/>
<path opacity="0.19" d="M160.332 348.645L134.856 374.164" stroke="#66EB71"/>
<path opacity="0.21" d="M160.332 348.645L185.807 374.164" stroke="#66EB71"/>
<path opacity="0.23" d="M185.808 348.645L211.284 374.164" stroke="#66EB71"/>
<path opacity="0.25" d="M236.76 348.645L211.284 374.164" stroke="#66EB71"/>
<path opacity="0.28" d="M262.236 348.645L236.76 374.164" stroke="#66EB71"/>
<path opacity="0.3" d="M262.235 348.645L287.711 374.164" stroke="#66EB71"/>
<path opacity="0.32" d="M313.187 348.645L287.711 374.164" stroke="#66EB71"/>
<path opacity="0.35" d="M338.663 348.645L313.188 374.164" stroke="#66EB71"/>
<path opacity="0.05" d="M7.47596 374.164L-18 399.683" stroke="#66EB71"/>
<path opacity="0.07" d="M32.952 374.164L7.47607 399.683" stroke="#66EB71"/>
<path opacity="0.1" d="M58.4281 374.164L32.9521 399.683" stroke="#66EB71"/>
<path opacity="0.12" d="M58.4277 374.164L83.9037 399.683" stroke="#66EB71"/>
<path opacity="0.14" d="M109.38 374.164L83.9038 399.683" stroke="#66EB71"/>
<path opacity="0.16" d="M134.856 374.164L109.38 399.683" stroke="#66EB71"/>
<path opacity="0.19" d="M134.856 374.164L160.332 399.683" stroke="#66EB71"/>
<path opacity="0.21" d="M185.807 374.165L160.332 399.684" stroke="#66EB71"/>
<path opacity="0.23" d="M211.284 374.164L185.808 399.683" stroke="#66EB71"/>
<path opacity="0.25" d="M211.284 374.164L236.76 399.683" stroke="#66EB71"/>
<path opacity="0.28" d="M236.76 374.164L262.236 399.683" stroke="#66EB71"/>
<path opacity="0.3" d="M262.235 374.164L287.711 399.683" stroke="#66EB71"/>
<path opacity="0.32" d="M287.711 374.164L313.187 399.683" stroke="#66EB71"/>
<path opacity="0.35" d="M338.663 374.164L313.188 399.683" stroke="#66EB71"/>
<path opacity="0.05" d="M7.47596 399.683L-18 425.202" stroke="#66EB71"/>
<path opacity="0.07" d="M32.952 399.683L7.47607 425.202" stroke="#66EB71"/>
<path opacity="0.1" d="M58.4281 399.683L32.9521 425.202" stroke="#66EB71"/>
<path opacity="0.12" d="M58.4277 399.683L83.9037 425.202" stroke="#66EB71"/>
<path opacity="0.14" d="M109.38 399.683L83.9038 425.202" stroke="#66EB71"/>
<path opacity="0.16" d="M109.38 399.683L134.856 425.202" stroke="#66EB71"/>
<path opacity="0.19" d="M160.331 399.683L134.855 425.202" stroke="#66EB71"/>
<path opacity="0.21" d="M160.332 399.683L185.807 425.202" stroke="#66EB71"/>
<path opacity="0.23" d="M185.808 399.683L211.284 425.202" stroke="#66EB71"/>
<path opacity="0.25" d="M211.284 399.683L236.76 425.202" stroke="#66EB71"/>
<path opacity="0.28" d="M236.76 399.683L262.236 425.202" stroke="#66EB71"/>
<path opacity="0.3" d="M287.711 399.683L262.235 425.202" stroke="#66EB71"/>
<path opacity="0.32" d="M313.187 399.683L287.711 425.202" stroke="#66EB71"/>
<path opacity="0.35" d="M313.188 399.683L338.663 425.202" stroke="#66EB71"/>
<path opacity="0.05" d="M7.47596 425.203L-18 450.722" stroke="#66EB71"/>
<path opacity="0.07" d="M32.952 425.203L7.47607 450.722" stroke="#66EB71"/>
<path opacity="0.1" d="M32.9521 425.203L58.4281 450.722" stroke="#66EB71"/>
<path opacity="0.12" d="M58.4277 425.203L83.9037 450.722" stroke="#66EB71"/>
<path opacity="0.14" d="M109.38 425.203L83.9038 450.722" stroke="#66EB71"/>
<path opacity="0.16" d="M109.38 425.203L134.856 450.722" stroke="#66EB71"/>
<path opacity="0.19" d="M134.856 425.203L160.332 450.722" stroke="#66EB71"/>
<path opacity="0.21" d="M160.332 425.202L185.807 450.721" stroke="#66EB71"/>
<path opacity="0.23" d="M185.808 425.203L211.284 450.722" stroke="#66EB71"/>
<path opacity="0.25" d="M211.284 425.203L236.76 450.722" stroke="#66EB71"/>
<path opacity="0.28" d="M262.236 425.203L236.76 450.722" stroke="#66EB71"/>
<path opacity="0.3" d="M287.711 425.203L262.235 450.722" stroke="#66EB71"/>
<path opacity="0.32" d="M313.187 425.203L287.711 450.722" stroke="#66EB71"/>
<path opacity="0.35" d="M313.188 425.203L338.663 450.722" stroke="#66EB71"/>
<path opacity="0.05" d="M7.47596 450.722L-18 476.241" stroke="#66EB71"/>
<path opacity="0.07" d="M7.47607 450.722L32.952 476.241" stroke="#66EB71"/>
<path opacity="0.1" d="M58.4281 450.722L32.9521 476.241" stroke="#66EB71"/>
<path opacity="0.12" d="M83.9037 450.722L58.4277 476.241" stroke="#66EB71"/>
<path opacity="0.14" d="M109.38 450.722L83.9038 476.241" stroke="#66EB71"/>
<path opacity="0.16" d="M134.856 450.722L109.38 476.241" stroke="#66EB71"/>
<path opacity="0.19" d="M160.332 450.722L134.856 476.241" stroke="#66EB71"/>
<path opacity="0.21" d="M160.332 450.722L185.807 476.241" stroke="#66EB71"/>
<path opacity="0.23" d="M185.808 450.722L211.284 476.241" stroke="#66EB71"/>
<path opacity="0.25" d="M236.76 450.722L211.284 476.241" stroke="#66EB71"/>
<path opacity="0.28" d="M236.76 450.722L262.236 476.241" stroke="#66EB71"/>
<path opacity="0.3" d="M262.235 450.722L287.711 476.241" stroke="#66EB71"/>
<path opacity="0.32" d="M287.711 450.722L313.187 476.241" stroke="#66EB71"/>
<path opacity="0.35" d="M313.188 450.722L338.663 476.241" stroke="#66EB71"/>
<path opacity="0.05" d="M7.47596 476.241L-18 501.76" stroke="#66EB71"/>
<path opacity="0.07" d="M7.47607 476.241L32.952 501.76" stroke="#66EB71"/>
<path opacity="0.1" d="M32.9521 476.241L58.4281 501.76" stroke="#66EB71"/>
<path opacity="0.12" d="M83.9037 476.241L58.4277 501.76" stroke="#66EB71"/>
<path opacity="0.14" d="M109.38 476.241L83.9038 501.76" stroke="#66EB71"/>
<path opacity="0.16" d="M134.856 476.241L109.38 501.76" stroke="#66EB71"/>
<path opacity="0.19" d="M134.856 476.241L160.332 501.76" stroke="#66EB71"/>
<path opacity="0.21" d="M160.332 476.241L185.807 501.76" stroke="#66EB71"/>
<path opacity="0.23" d="M211.284 476.241L185.808 501.76" stroke="#66EB71"/>
<path opacity="0.25" d="M236.76 476.241L211.284 501.76" stroke="#66EB71"/>
<path opacity="0.28" d="M236.76 476.241L262.236 501.76" stroke="#66EB71"/>
<path opacity="0.3" d="M287.711 476.241L262.235 501.76" stroke="#66EB71"/>
<path opacity="0.32" d="M287.711 476.241L313.187 501.76" stroke="#66EB71"/>
<path opacity="0.35" d="M313.188 476.241L338.663 501.76" stroke="#66EB71"/>
<path opacity="0.05" d="M-18 501.76L7.47596 527.279" stroke="#66EB71"/>
<path opacity="0.07" d="M32.952 501.76L7.47607 527.279" stroke="#66EB71"/>
<path opacity="0.1" d="M32.9521 501.76L58.4281 527.279" stroke="#66EB71"/>
<path opacity="0.12" d="M83.9037 501.76L58.4277 527.279" stroke="#66EB71"/>
<path opacity="0.14" d="M109.38 501.76L83.9038 527.279" stroke="#66EB71"/>
<path opacity="0.16" d="M134.856 501.76L109.38 527.279" stroke="#66EB71"/>
<path opacity="0.19" d="M160.331 501.76L134.855 527.279" stroke="#66EB71"/>
<path opacity="0.21" d="M160.332 501.76L185.807 527.279" stroke="#66EB71"/>
<path opacity="0.23" d="M211.284 501.76L185.808 527.279" stroke="#66EB71"/>
<path opacity="0.25" d="M236.76 501.76L211.284 527.279" stroke="#66EB71"/>
<path opacity="0.28" d="M262.236 501.76L236.76 527.279" stroke="#66EB71"/>
<path opacity="0.3" d="M262.235 501.76L287.711 527.279" stroke="#66EB71"/>
<path opacity="0.32" d="M313.187 501.76L287.711 527.279" stroke="#66EB71"/>
<path opacity="0.35" d="M313.188 501.76L338.663 527.279" stroke="#66EB71"/>
<path opacity="0.05" d="M7.47596 527.279L-18 552.798" stroke="#66EB71"/>
<path opacity="0.07" d="M32.952 527.279L7.47607 552.798" stroke="#66EB71"/>
<path opacity="0.1" d="M58.4281 527.279L32.9521 552.798" stroke="#66EB71"/>
<path opacity="0.12" d="M58.4277 527.279L83.9037 552.798" stroke="#66EB71"/>
<path opacity="0.14" d="M83.9038 527.279L109.38 552.798" stroke="#66EB71"/>
<path opacity="0.16" d="M109.38 527.279L134.856 552.798" stroke="#66EB71"/>
<path opacity="0.19" d="M160.332 527.279L134.856 552.798" stroke="#66EB71"/>
<path opacity="0.21" d="M185.807 527.279L160.332 552.798" stroke="#66EB71"/>
<path opacity="0.23" d="M211.284 527.279L185.808 552.798" stroke="#66EB71"/>
<path opacity="0.25" d="M211.284 527.279L236.76 552.798" stroke="#66EB71"/>
<path opacity="0.28" d="M262.236 527.279L236.76 552.798" stroke="#66EB71"/>
<path opacity="0.3" d="M262.235 527.279L287.711 552.798" stroke="#66EB71"/>
<path opacity="0.32" d="M313.187 527.279L287.711 552.798" stroke="#66EB71"/>
<path opacity="0.35" d="M338.663 527.279L313.188 552.798" stroke="#66EB71"/>
<path opacity="0.05" d="M7.47596 552.798L-18 578.317" stroke="#66EB71"/>
<path opacity="0.07" d="M7.47607 552.798L32.952 578.317" stroke="#66EB71"/>
<path opacity="0.1" d="M32.9521 552.798L58.4281 578.317" stroke="#66EB71"/>
<path opacity="0.12" d="M58.4277 552.798L83.9037 578.317" stroke="#66EB71"/>
<path opacity="0.14" d="M83.9038 552.798L109.38 578.317" stroke="#66EB71"/>
<path opacity="0.16" d="M134.856 552.798L109.38 578.317" stroke="#66EB71"/>
<path opacity="0.19" d="M160.332 552.798L134.856 578.317" stroke="#66EB71"/>
<path opacity="0.21" d="M160.332 552.798L185.807 578.317" stroke="#66EB71"/>
<path opacity="0.23" d="M185.808 552.798L211.284 578.317" stroke="#66EB71"/>
<path opacity="0.25" d="M236.76 552.798L211.284 578.317" stroke="#66EB71"/>
<path opacity="0.28" d="M236.76 552.798L262.236 578.317" stroke="#66EB71"/>
<path opacity="0.3" d="M287.711 552.798L262.235 578.317" stroke="#66EB71"/>
<path opacity="0.32" d="M313.187 552.798L287.711 578.317" stroke="#66EB71"/>
<path opacity="0.35" d="M338.663 552.798L313.188 578.317" stroke="#66EB71"/>
<path opacity="0.05" d="M-18 578.317L7.47596 603.837" stroke="#66EB71"/>
<path opacity="0.07" d="M32.952 578.317L7.47607 603.837" stroke="#66EB71"/>
<path opacity="0.1" d="M58.4276 578.317L32.9517 603.837" stroke="#66EB71"/>
<path opacity="0.12" d="M83.9037 578.317L58.4277 603.837" stroke="#66EB71"/>
<path opacity="0.14" d="M83.9043 578.317L109.38 603.837" stroke="#66EB71"/>
<path opacity="0.16" d="M109.38 578.317L134.856 603.837" stroke="#66EB71"/>
<path opacity="0.19" d="M160.332 578.317L134.856 603.837" stroke="#66EB71"/>
<path opacity="0.21" d="M160.332 578.317L185.807 603.837" stroke="#66EB71"/>
<path opacity="0.23" d="M185.808 578.317L211.284 603.837" stroke="#66EB71"/>
<path opacity="0.25" d="M236.76 578.317L211.284 603.837" stroke="#66EB71"/>
<path opacity="0.28" d="M262.235 578.317L236.759 603.837" stroke="#66EB71"/>
<path opacity="0.3" d="M287.711 578.317L262.235 603.837" stroke="#66EB71"/>
<path opacity="0.32" d="M313.188 578.317L287.712 603.837" stroke="#66EB71"/>
<path opacity="0.35" d="M313.188 578.317L338.663 603.837" stroke="#66EB71"/>
</g>
<g opacity="0.2" clip-path="url(#clip1_850_35838)">
<path opacity="0.05" d="M-18 591.827L7.47596 617.346" stroke="#66EB71"/>
<path opacity="0.07" d="M7.47607 591.827L32.952 617.346" stroke="#66EB71"/>
<path opacity="0.1" d="M58.4281 591.827L32.9521 617.346" stroke="#66EB71"/>
<path opacity="0.12" d="M58.4277 591.827L83.9037 617.346" stroke="#66EB71"/>
<path opacity="0.14" d="M109.38 591.827L83.9038 617.346" stroke="#66EB71"/>
<path opacity="0.16" d="M134.856 591.827L109.38 617.346" stroke="#66EB71"/>
<path opacity="0.19" d="M134.856 591.827L160.332 617.346" stroke="#66EB71"/>
<path opacity="0.21" d="M160.332 591.827L185.807 617.346" stroke="#66EB71"/>
<path opacity="0.23" d="M185.808 591.827L211.284 617.346" stroke="#66EB71"/>
<path opacity="0.25" d="M236.76 591.827L211.284 617.346" stroke="#66EB71"/>
<path opacity="0.28" d="M262.236 591.827L236.76 617.346" stroke="#66EB71"/>
<path opacity="0.3" d="M262.235 591.827L287.711 617.346" stroke="#66EB71"/>
<path opacity="0.32" d="M287.711 591.827L313.187 617.346" stroke="#66EB71"/>
<path opacity="0.35" d="M313.188 591.827L338.663 617.346" stroke="#66EB71"/>
<path opacity="0.05" d="M-18 617.346L7.47596 642.865" stroke="#66EB71"/>
<path opacity="0.07" d="M32.952 617.346L7.47607 642.865" stroke="#66EB71"/>
<path opacity="0.1" d="M58.4281 617.346L32.9521 642.865" stroke="#66EB71"/>
<path opacity="0.12" d="M83.9037 617.346L58.4277 642.865" stroke="#66EB71"/>
<path opacity="0.14" d="M109.38 617.346L83.9038 642.865" stroke="#66EB71"/>
<path opacity="0.16" d="M134.856 617.346L109.38 642.865" stroke="#66EB71"/>
<path opacity="0.19" d="M160.332 617.346L134.856 642.865" stroke="#66EB71"/>
<path opacity="0.21" d="M160.332 617.346L185.807 642.865" stroke="#66EB71"/>
<path opacity="0.23" d="M211.284 617.346L185.808 642.865" stroke="#66EB71"/>
<path opacity="0.25" d="M236.76 617.346L211.284 642.865" stroke="#66EB71"/>
<path opacity="0.28" d="M262.236 617.346L236.76 642.865" stroke="#66EB71"/>
<path opacity="0.3" d="M287.711 617.346L262.235 642.865" stroke="#66EB71"/>
<path opacity="0.32" d="M287.711 617.346L313.187 642.865" stroke="#66EB71"/>
<path opacity="0.35" d="M338.663 617.346L313.188 642.865" stroke="#66EB71"/>
<path opacity="0.05" d="M-18 642.865L7.47596 668.384" stroke="#66EB71"/>
<path opacity="0.07" d="M32.952 642.865L7.47607 668.384" stroke="#66EB71"/>
<path opacity="0.1" d="M32.9521 642.865L58.4281 668.384" stroke="#66EB71"/>
<path opacity="0.12" d="M58.4277 642.865L83.9037 668.384" stroke="#66EB71"/>
<path opacity="0.14" d="M109.38 642.865L83.9038 668.384" stroke="#66EB71"/>
<path opacity="0.16" d="M109.38 642.865L134.856 668.384" stroke="#66EB71"/>
<path opacity="0.19" d="M160.332 642.865L134.856 668.384" stroke="#66EB71"/>
<path opacity="0.21" d="M185.807 642.866L160.332 668.385" stroke="#66EB71"/>
<path opacity="0.23" d="M185.808 642.865L211.284 668.384" stroke="#66EB71"/>
<path opacity="0.25" d="M236.76 642.865L211.284 668.384" stroke="#66EB71"/>
<path opacity="0.28" d="M236.76 642.865L262.236 668.384" stroke="#66EB71"/>
<path opacity="0.3" d="M287.711 642.865L262.235 668.384" stroke="#66EB71"/>
<path opacity="0.32" d="M313.187 642.865L287.711 668.384" stroke="#66EB71"/>
<path opacity="0.35" d="M313.188 642.865L338.663 668.384" stroke="#66EB71"/>
<path opacity="0.05" d="M-18 668.385L7.47596 693.904" stroke="#66EB71"/>
<path opacity="0.07" d="M7.47607 668.385L32.952 693.904" stroke="#66EB71"/>
<path opacity="0.1" d="M32.9521 668.385L58.4281 693.904" stroke="#66EB71"/>
<path opacity="0.12" d="M58.4277 668.385L83.9037 693.904" stroke="#66EB71"/>
<path opacity="0.14" d="M83.9038 668.385L109.38 693.904" stroke="#66EB71"/>
<path opacity="0.16" d="M134.856 668.385L109.38 693.904" stroke="#66EB71"/>
<path opacity="0.19" d="M134.856 668.385L160.332 693.904" stroke="#66EB71"/>
<path opacity="0.21" d="M185.807 668.385L160.332 693.904" stroke="#66EB71"/>
<path opacity="0.23" d="M185.808 668.385L211.284 693.904" stroke="#66EB71"/>
<path opacity="0.25" d="M211.284 668.385L236.76 693.904" stroke="#66EB71"/>
<path opacity="0.28" d="M262.236 668.385L236.76 693.904" stroke="#66EB71"/>
<path opacity="0.3" d="M287.711 668.385L262.235 693.904" stroke="#66EB71"/>
<path opacity="0.32" d="M313.187 668.385L287.711 693.904" stroke="#66EB71"/>
<path opacity="0.35" d="M313.188 668.385L338.663 693.904" stroke="#66EB71"/>
<path opacity="0.05" d="M7.47596 693.904L-18 719.423" stroke="#66EB71"/>
<path opacity="0.07" d="M7.47607 693.904L32.952 719.423" stroke="#66EB71"/>
<path opacity="0.1" d="M32.9521 693.904L58.4281 719.423" stroke="#66EB71"/>
<path opacity="0.12" d="M58.4277 693.904L83.9037 719.423" stroke="#66EB71"/>
<path opacity="0.14" d="M83.9038 693.904L109.38 719.423" stroke="#66EB71"/>
<path opacity="0.16" d="M109.38 693.904L134.856 719.423" stroke="#66EB71"/>
<path opacity="0.19" d="M134.856 693.904L160.332 719.423" stroke="#66EB71"/>
<path opacity="0.21" d="M185.807 693.903L160.332 719.422" stroke="#66EB71"/>
<path opacity="0.23" d="M211.284 693.904L185.808 719.423" stroke="#66EB71"/>
<path opacity="0.25" d="M236.76 693.904L211.284 719.423" stroke="#66EB71"/>
<path opacity="0.28" d="M262.236 693.904L236.76 719.423" stroke="#66EB71"/>
<path opacity="0.3" d="M262.235 693.904L287.711 719.423" stroke="#66EB71"/>
<path opacity="0.32" d="M313.187 693.904L287.711 719.423" stroke="#66EB71"/>
<path opacity="0.35" d="M313.188 693.904L338.663 719.423" stroke="#66EB71"/>
</g>
<defs>
<clipPath id="clip0_850_35838">
<rect width="606" height="600.451" fill="white" transform="translate(-18 -8.62305)"/>
</clipPath>
<clipPath id="clip1_850_35838">
<rect width="606" height="600.451" fill="white" transform="translate(-18 591.827)"/>
</clipPath>
</defs>
</svg>
