<svg width="14" height="14" viewBox="0 0 14 14" fill="none" xmlns="http://www.w3.org/2000/svg">
<path d="M1 1H1.18162C1.50229 1 1.66291 1 1.7937 1.05699C1.90901 1.10723 2.0076 1.18812 2.07869 1.29069C2.1592 1.40684 2.18827 1.56193 2.24629 1.87152L3.70734 9.6667L10.7611 9.66667C11.0678 9.66667 11.2217 9.66667 11.3487 9.61328C11.461 9.56612 11.5577 9.48974 11.6296 9.39263C11.7109 9.28281 11.7454 9.1358 11.8142 8.84207L11.8147 8.83997L12.8768 4.30664L12.877 4.30569C12.9814 3.8601 13.0337 3.63677 12.9763 3.46159C12.9259 3.30788 12.8198 3.17756 12.6791 3.09461C12.5186 3 12.2866 3 11.8216 3H2.69207M11.1524 13C10.7786 13 10.4756 12.7015 10.4756 12.3333C10.4756 11.9651 10.7786 11.6667 11.1524 11.6667C11.5262 11.6667 11.8292 11.9651 11.8292 12.3333C11.8292 12.7015 11.5262 13 11.1524 13ZM4.38414 13C4.01034 13 3.70731 12.7015 3.70731 12.3333C3.70731 11.9651 4.01034 11.6667 4.38414 11.6667C4.75794 11.6667 5.06097 11.9651 5.06097 12.3333C5.06097 12.7015 4.75794 13 4.38414 13Z" stroke="#111111" stroke-width="2" stroke-linecap="round" stroke-linejoin="round"/>
</svg>
