<svg width="16" height="15" viewBox="0 0 16 15" fill="none" xmlns="http://www.w3.org/2000/svg">
<path d="M6.26823 3.125H8.7754C8.7754 2.79348 8.64332 2.47554 8.40823 2.24112C8.17314 2.0067 7.85429 1.875 7.52182 1.875C7.18934 1.875 6.87049 2.0067 6.6354 2.24112C6.40031 2.47554 6.26823 2.79348 6.26823 3.125ZM5.32805 3.125C5.32805 2.83773 5.38479 2.55328 5.49504 2.28788C5.60528 2.02248 5.76688 1.78133 5.97059 1.5782C6.1743 1.37508 6.41614 1.21395 6.6823 1.10401C6.94846 0.994081 7.23373 0.9375 7.52182 0.9375C7.8099 0.9375 8.09517 0.994081 8.36133 1.10401C8.62749 1.21395 8.86933 1.37508 9.07304 1.5782C9.27675 1.78133 9.43835 2.02248 9.54859 2.28788C9.65884 2.55328 9.71558 2.83773 9.71558 3.125H13.3196C13.4443 3.125 13.5639 3.17439 13.652 3.26229C13.7402 3.3502 13.7897 3.46943 13.7897 3.59375C13.7897 3.71807 13.7402 3.8373 13.652 3.92521C13.5639 4.01311 13.4443 4.0625 13.3196 4.0625H12.4923L11.7589 11.6319C11.7027 12.2119 11.4318 12.7502 10.9991 13.1418C10.5663 13.5334 10.0028 13.7502 9.41848 13.75H5.62515C5.04089 13.7501 4.47755 13.5332 4.04497 13.1416C3.61239 12.75 3.34158 12.2118 3.28534 11.6319L2.55136 4.0625H1.724C1.59932 4.0625 1.47975 4.01311 1.39159 3.92521C1.30343 3.8373 1.25391 3.71807 1.25391 3.59375C1.25391 3.46943 1.30343 3.3502 1.39159 3.26229C1.47975 3.17439 1.59932 3.125 1.724 3.125H5.32805ZM6.58163 6.09375C6.58163 5.96943 6.5321 5.8502 6.44394 5.76229C6.35578 5.67439 6.23621 5.625 6.11154 5.625C5.98686 5.625 5.86729 5.67439 5.77913 5.76229C5.69097 5.8502 5.64144 5.96943 5.64144 6.09375V10.7812C5.64144 10.9056 5.69097 11.0248 5.77913 11.1127C5.86729 11.2006 5.98686 11.25 6.11154 11.25C6.23621 11.25 6.35578 11.2006 6.44394 11.1127C6.5321 11.0248 6.58163 10.9056 6.58163 10.7812V6.09375ZM8.93209 5.625C9.05677 5.625 9.17634 5.67439 9.2645 5.76229C9.35266 5.8502 9.40219 5.96943 9.40219 6.09375V10.7812C9.40219 10.9056 9.35266 11.0248 9.2645 11.1127C9.17634 11.2006 9.05677 11.25 8.93209 11.25C8.80742 11.25 8.68785 11.2006 8.59969 11.1127C8.51153 11.0248 8.462 10.9056 8.462 10.7812V6.09375C8.462 5.96943 8.51153 5.8502 8.59969 5.76229C8.68785 5.67439 8.80742 5.625 8.93209 5.625ZM4.22113 11.5419C4.25494 11.8898 4.41747 12.2127 4.67704 12.4476C4.93661 12.6825 5.27461 12.8126 5.62515 12.8125H9.41848C9.76902 12.8126 10.107 12.6825 10.3666 12.4476C10.6262 12.2127 10.7887 11.8898 10.8225 11.5419L11.5483 4.0625H3.49531L4.22113 11.5419Z" fill="white" fill-opacity="0.69"/>
</svg>
