<svg width="20" height="19" viewBox="0 0 20 19" fill="none" xmlns="http://www.w3.org/2000/svg">
<path d="M10 3.5V6M10 3.5C10 2.11929 11.1193 1 12.5 1C13.8807 1 15 2.11929 15 3.5C15 4.88071 13.8807 6 12.5 6M10 3.5C10 2.11929 8.88071 1 7.5 1C6.11929 1 5 2.11929 5 3.5C5 4.88071 6.11929 6 7.5 6M10 6H12.5M10 6H7.5M10 6V12M12.5 6H15.8002C16.9203 6 17.4796 6 17.9074 6.21799C18.2837 6.40973 18.5905 6.71547 18.7822 7.0918C19 7.5192 19 8.07899 19 9.19691V12M7.5 6H4.2002C3.08009 6 2.51962 6 2.0918 6.21799C1.71547 6.40973 1.40973 6.71547 1.21799 7.0918C1 7.51962 1 8.08009 1 9.2002V12M1 12V14.8002C1 15.9203 1 16.4801 1.21799 16.9079C1.40973 17.2842 1.71547 17.5905 2.0918 17.7822C2.5192 18 3.07899 18 4.19691 18H10M1 12H10M10 12V18M10 12H19M10 18H15.8031C16.921 18 17.48 18 17.9074 17.7822C18.2837 17.5905 18.5905 17.2842 18.7822 16.9079C19 16.4805 19 15.9215 19 14.8036V12" stroke="#50545E" stroke-width="1.5" stroke-linecap="round" stroke-linejoin="round"/>
</svg>
