<svg width="54" height="54" viewBox="0 0 54 54" fill="none" xmlns="http://www.w3.org/2000/svg">
<path d="M42.75 4.5H11.25C9.45979 4.5 7.7429 5.21116 6.47703 6.47703C5.21116 7.7429 4.5 9.45979 4.5 11.25V40.5V42.75C4.5 44.5402 5.21116 46.2571 6.47703 47.523C7.7429 48.7888 9.45979 49.5 11.25 49.5H42.75C44.5402 49.5 46.2571 48.7888 47.523 47.523C48.7888 46.2571 49.5 44.5402 49.5 42.75V11.25C49.5 9.45979 48.7888 7.7429 47.523 6.47703C46.2571 5.21116 44.5402 4.5 42.75 4.5ZM11.25 9H42.75C43.3467 9 43.919 9.23705 44.341 9.65901C44.7629 10.081 45 10.6533 45 11.25V39.5775L40.77 35.3475C39.5489 34.13 37.908 33.4259 36.1842 33.3799C34.4604 33.3339 32.7844 33.9493 31.5 35.1L24.9975 28.5975C23.7319 27.3334 22.0163 26.6234 20.2275 26.6234C18.4387 26.6234 16.7231 27.3334 15.4575 28.5975L9 35.0775V11.25C9 10.6533 9.23705 10.081 9.65901 9.65901C10.081 9.23705 10.6533 9 11.25 9V9ZM11.25 45C10.6533 45 10.081 44.7629 9.65901 44.341C9.23705 43.919 9 43.3467 9 42.75V41.4225L18.6525 31.77C18.8617 31.5591 19.1105 31.3917 19.3847 31.2775C19.6589 31.1633 19.953 31.1045 20.25 31.1045C20.547 31.1045 20.8411 31.1633 21.1153 31.2775C21.3895 31.3917 21.6383 31.5591 21.8475 31.77L29.9025 39.8475C30.2969 40.2288 30.817 40.4528 31.365 40.4775H31.6575C32.1949 40.4362 32.7025 40.2142 33.0975 39.8475V39.8475L34.4025 38.52C34.6117 38.3091 34.8605 38.1417 35.1347 38.0275C35.4089 37.9133 35.703 37.8545 36 37.8545C36.297 37.8545 36.5911 37.9133 36.8653 38.0275C37.1395 38.1417 37.3883 38.3091 37.5975 38.52L43.785 44.7075C43.4722 44.8955 43.1149 44.9965 42.75 45H11.25ZM34.4925 26.0325C35.783 26.0325 37.0446 25.6498 38.1176 24.9328C39.1906 24.2159 40.027 23.1968 40.5208 22.0045C41.0147 20.8122 41.1439 19.5003 40.8921 18.2345C40.6404 16.9688 40.0189 15.8062 39.1064 14.8936C38.1938 13.9811 37.0312 13.3596 35.7655 13.1079C34.4997 12.8561 33.1878 12.9853 31.9955 13.4792C30.8032 13.973 29.7841 14.8094 29.0672 15.8824C28.3502 16.9554 27.9675 18.217 27.9675 19.5075C27.9675 21.238 28.655 22.8977 29.8786 24.1214C31.1023 25.345 32.762 26.0325 34.4925 26.0325V26.0325ZM34.4925 17.0325C34.982 17.0325 35.4605 17.1777 35.8675 17.4496C36.2745 17.7216 36.5918 18.1081 36.7791 18.5604C36.9664 19.0126 37.0154 19.5102 36.9199 19.9903C36.8244 20.4705 36.5887 20.9115 36.2426 21.2576C35.8965 21.6037 35.4555 21.8394 34.9753 21.9349C34.4952 22.0304 33.9976 21.9814 33.5454 21.7941C33.0931 21.6068 32.7066 21.2895 32.4346 20.8825C32.1627 20.4755 32.0175 19.997 32.0175 19.5075C32.0175 18.8511 32.2783 18.2216 32.7424 17.7574C33.2066 17.2933 33.8361 17.0325 34.4925 17.0325V17.0325Z" fill="white"/>
</svg>
