<svg width="80" height="12" viewBox="0 0 80 12" fill="none" xmlns="http://www.w3.org/2000/svg">
<path d="M3.5 3.58H0.91V3.44C0.91 2.97333 0.998667 2.55333 1.176 2.18C1.35333 1.79733 1.61 1.47067 1.946 1.2C2.29133 0.929333 2.71133 0.724 3.206 0.584C3.70067 0.434666 4.26533 0.359999 4.9 0.359999C6.17867 0.359999 7.16333 0.653999 7.854 1.242C8.54467 1.82067 8.89 2.64667 8.89 3.72V7.78C8.89 8.85333 8.53533 9.684 7.826 10.272C7.11667 10.8507 6.07133 11.14 4.69 11.14C3.30867 11.14 2.26333 10.846 1.554 10.258C0.844667 9.66067 0.49 8.788 0.49 7.64C0.49 7.07067 0.574 6.576 0.742 6.156C0.91 5.736 1.13867 5.386 1.428 5.106C1.71733 4.826 2.05333 4.62067 2.436 4.49C2.81867 4.35 3.22 4.28 3.64 4.28C4.23733 4.28 4.75067 4.39667 5.18 4.63C5.60933 4.854 5.922 5.23667 6.118 5.778L6.65 5.638C6.54733 5.42333 6.46333 5.19467 6.398 4.952C6.33267 4.7 6.3 4.378 6.3 3.986V3.72C6.3 3.31867 6.174 3.02 5.922 2.824C5.67933 2.628 5.33867 2.53 4.9 2.53C4.46133 2.53 4.116 2.61867 3.864 2.796C3.62133 2.964 3.5 3.17867 3.5 3.44V3.58ZM4.69 6.31C4.14867 6.31 3.74267 6.41267 3.472 6.618C3.21067 6.82333 3.08 7.164 3.08 7.64C3.08 8.116 3.21067 8.45667 3.472 8.662C3.74267 8.86733 4.14867 8.97 4.69 8.97C5.76333 8.97 6.3 8.57333 6.3 7.78V6.8C6.08533 6.65067 5.84267 6.534 5.572 6.45C5.31067 6.35667 5.01667 6.31 4.69 6.31ZM12.664 7.43C12.664 7.99 12.7947 8.38667 13.056 8.62C13.3267 8.85333 13.7327 8.97 14.274 8.97C14.8153 8.97 15.2167 8.85333 15.478 8.62C15.7487 8.38667 15.884 7.99 15.884 7.43C15.884 6.94467 15.7953 6.52933 15.618 6.184C15.4407 5.82933 15.2213 5.50267 14.96 5.204C14.6987 4.896 14.414 4.59733 14.106 4.308C13.798 4.00933 13.5133 3.68733 13.252 3.342C12.9907 2.98733 12.7713 2.586 12.594 2.138C12.4167 1.68067 12.328 1.13467 12.328 0.499999H14.918C14.918 0.985333 15.0067 1.40067 15.184 1.746C15.3613 2.09133 15.5807 2.41333 15.842 2.712C16.1033 3.00133 16.388 3.286 16.696 3.566C17.004 3.846 17.2887 4.168 17.55 4.532C17.8113 4.88667 18.0307 5.30667 18.208 5.792C18.3853 6.27733 18.474 6.87 18.474 7.57C18.474 8.73667 18.1193 9.62333 17.41 10.23C16.7007 10.8367 15.6553 11.14 14.274 11.14C12.8927 11.14 11.8473 10.8367 11.138 10.23C10.4287 9.62333 10.074 8.73667 10.074 7.57C10.074 7.35533 10.088 7.15467 10.116 6.968C10.144 6.78133 10.2 6.55733 10.284 6.296H12.79C12.7247 6.59467 12.6873 6.83733 12.678 7.024C12.6687 7.20133 12.664 7.33667 12.664 7.43ZM23.6076 2.46C23.3836 2.46 23.1876 2.49267 23.0196 2.558C22.8516 2.62333 22.7069 2.768 22.5856 2.992C22.4736 3.216 22.3896 3.54733 22.3336 3.986C22.2776 4.41533 22.2496 5.00333 22.2496 5.75C22.2496 6.48733 22.2776 7.07533 22.3336 7.514C22.3896 7.95267 22.4736 8.284 22.5856 8.508C22.7069 8.732 22.8516 8.87667 23.0196 8.942C23.1876 9.00733 23.3836 9.04 23.6076 9.04C23.8316 9.04 24.0276 9.00733 24.1956 8.942C24.3636 8.87667 24.5036 8.732 24.6156 8.508C24.7369 8.284 24.8256 7.95267 24.8816 7.514C24.9376 7.07533 24.9656 6.48733 24.9656 5.75C24.9656 5.00333 24.9376 4.41533 24.8816 3.986C24.8256 3.54733 24.7369 3.216 24.6156 2.992C24.5036 2.768 24.3636 2.62333 24.1956 2.558C24.0276 2.49267 23.8316 2.46 23.6076 2.46ZM28.4096 2.53C28.1296 2.53 27.8869 2.57667 27.6816 2.67C27.4856 2.754 27.3129 2.87533 27.1636 3.034C27.2103 3.15533 27.2756 3.43067 27.3596 3.86C27.4436 4.28 27.4856 4.91 27.4856 5.75C27.4856 6.786 27.3969 7.64933 27.2196 8.34C27.0423 9.03067 26.7856 9.586 26.4496 10.006C26.1229 10.4167 25.7169 10.7107 25.2316 10.888C24.7556 11.056 24.2143 11.14 23.6076 11.14C23.0009 11.14 22.4549 11.056 21.9696 10.888C21.4936 10.7107 21.0876 10.4167 20.7516 10.006C20.4249 9.586 20.1729 9.03067 19.9956 8.34C19.8183 7.64933 19.7296 6.786 19.7296 5.75C19.7296 4.714 19.8183 3.85067 19.9956 3.16C20.1729 2.46933 20.4249 1.91867 20.7516 1.508C21.0876 1.088 21.4936 0.793999 21.9696 0.625999C22.4549 0.448666 23.0009 0.359999 23.6076 0.359999C24.0183 0.359999 24.3729 0.392666 24.6716 0.458C24.9796 0.523333 25.2409 0.611999 25.4556 0.724C25.6703 0.835999 25.8383 0.966666 25.9596 1.116C26.0903 1.256 26.1836 1.40533 26.2396 1.564H26.7996C26.9023 1.256 27.1309 0.980666 27.4856 0.737999C27.8496 0.485999 28.3396 0.359999 28.9556 0.359999C29.4409 0.359999 29.8889 0.439333 30.2996 0.598C30.7103 0.747333 31.0649 1.004 31.3636 1.368C31.6623 1.72267 31.8956 2.20333 32.0636 2.81C32.2316 3.40733 32.3156 4.154 32.3156 5.05C32.3156 5.64733 32.3109 6.17 32.3016 6.618C32.2923 7.05667 32.2736 7.49067 32.2456 7.92C32.2269 8.34933 32.1943 8.80667 32.1476 9.292C32.1009 9.768 32.0403 10.3373 31.9656 11H29.5156C29.6183 9.992 29.6789 9.00267 29.6976 8.032C29.7163 7.052 29.7256 6.10467 29.7256 5.19C29.7256 4.63 29.6976 4.17733 29.6416 3.832C29.5856 3.48667 29.5016 3.216 29.3896 3.02C29.2869 2.824 29.1516 2.69333 28.9836 2.628C28.8249 2.56267 28.6336 2.53 28.4096 2.53ZM36.0292 7.43C36.0292 7.99 36.1599 8.38667 36.4212 8.62C36.6919 8.85333 37.0979 8.97 37.6392 8.97C38.1806 8.97 38.5819 8.85333 38.8432 8.62C39.1139 8.38667 39.2492 7.99 39.2492 7.43C39.2492 6.94467 39.1606 6.52933 38.9832 6.184C38.8059 5.82933 38.5866 5.50267 38.3252 5.204C38.0639 4.896 37.7792 4.59733 37.4712 4.308C37.1632 4.00933 36.8786 3.68733 36.6172 3.342C36.3559 2.98733 36.1366 2.586 35.9592 2.138C35.7819 1.68067 35.6932 1.13467 35.6932 0.499999H38.2832C38.2832 0.985333 38.3719 1.40067 38.5492 1.746C38.7266 2.09133 38.9459 2.41333 39.2072 2.712C39.4686 3.00133 39.7532 3.286 40.0612 3.566C40.3692 3.846 40.6539 4.168 40.9152 4.532C41.1766 4.88667 41.3959 5.30667 41.5732 5.792C41.7506 6.27733 41.8392 6.87 41.8392 7.57C41.8392 8.73667 41.4846 9.62333 40.7752 10.23C40.0659 10.8367 39.0206 11.14 37.6392 11.14C36.2579 11.14 35.2126 10.8367 34.5032 10.23C33.7939 9.62333 33.4392 8.73667 33.4392 7.57C33.4392 7.35533 33.4532 7.15467 33.4812 6.968C33.5092 6.78133 33.5652 6.55733 33.6492 6.296H36.1552C36.0899 6.59467 36.0526 6.83733 36.0432 7.024C36.0339 7.20133 36.0292 7.33667 36.0292 7.43ZM45.6914 3.58H43.1014V3.44C43.1014 2.97333 43.1901 2.55333 43.3674 2.18C43.5447 1.79733 43.8014 1.47067 44.1374 1.2C44.4827 0.929333 44.9027 0.724 45.3974 0.584C45.8921 0.434666 46.4567 0.359999 47.0914 0.359999C48.3701 0.359999 49.3547 0.653999 50.0454 1.242C50.7361 1.82067 51.0814 2.64667 51.0814 3.72V7.78C51.0814 8.85333 50.7267 9.684 50.0174 10.272C49.3081 10.8507 48.2627 11.14 46.8814 11.14C45.5001 11.14 44.4547 10.846 43.7454 10.258C43.0361 9.66067 42.6814 8.788 42.6814 7.64C42.6814 7.07067 42.7654 6.576 42.9334 6.156C43.1014 5.736 43.3301 5.386 43.6194 5.106C43.9087 4.826 44.2447 4.62067 44.6274 4.49C45.0101 4.35 45.4114 4.28 45.8314 4.28C46.4287 4.28 46.9421 4.39667 47.3714 4.63C47.8007 4.854 48.1134 5.23667 48.3094 5.778L48.8414 5.638C48.7387 5.42333 48.6547 5.19467 48.5894 4.952C48.5241 4.7 48.4914 4.378 48.4914 3.986V3.72C48.4914 3.31867 48.3654 3.02 48.1134 2.824C47.8707 2.628 47.5301 2.53 47.0914 2.53C46.6527 2.53 46.3074 2.61867 46.0554 2.796C45.8127 2.964 45.6914 3.17867 45.6914 3.44V3.58ZM46.8814 6.31C46.3401 6.31 45.9341 6.41267 45.6634 6.618C45.4021 6.82333 45.2714 7.164 45.2714 7.64C45.2714 8.116 45.4021 8.45667 45.6634 8.662C45.9341 8.86733 46.3401 8.97 46.8814 8.97C47.9547 8.97 48.4914 8.57333 48.4914 7.78V6.8C48.2767 6.65067 48.0341 6.534 47.7634 6.45C47.5021 6.35667 47.2081 6.31 46.8814 6.31ZM54.8554 7.43C54.8554 7.99 54.9861 8.38667 55.2474 8.62C55.5181 8.85333 55.9241 8.97 56.4654 8.97C57.0067 8.97 57.4081 8.85333 57.6694 8.62C57.9401 8.38667 58.0754 7.99 58.0754 7.43C58.0754 6.94467 57.9867 6.52933 57.8094 6.184C57.6321 5.82933 57.4127 5.50267 57.1514 5.204C56.8901 4.896 56.6054 4.59733 56.2974 4.308C55.9894 4.00933 55.7047 3.68733 55.4434 3.342C55.1821 2.98733 54.9627 2.586 54.7854 2.138C54.6081 1.68067 54.5194 1.13467 54.5194 0.499999H57.1094C57.1094 0.985333 57.1981 1.40067 57.3754 1.746C57.5527 2.09133 57.7721 2.41333 58.0334 2.712C58.2947 3.00133 58.5794 3.286 58.8874 3.566C59.1954 3.846 59.4801 4.168 59.7414 4.532C60.0027 4.88667 60.2221 5.30667 60.3994 5.792C60.5767 6.27733 60.6654 6.87 60.6654 7.57C60.6654 8.73667 60.3107 9.62333 59.6014 10.23C58.8921 10.8367 57.8467 11.14 56.4654 11.14C55.0841 11.14 54.0387 10.8367 53.3294 10.23C52.6201 9.62333 52.2654 8.73667 52.2654 7.57C52.2654 7.35533 52.2794 7.15467 52.3074 6.968C52.3354 6.78133 52.3914 6.55733 52.4754 6.296H54.9814C54.9161 6.59467 54.8787 6.83733 54.8694 7.024C54.8601 7.20133 54.8554 7.33667 54.8554 7.43ZM61.781 0.359999H62.075C62.3923 0.359999 62.6817 0.406666 62.943 0.499999C63.2137 0.593333 63.447 0.719333 63.643 0.877999C63.839 1.02733 63.9883 1.2 64.091 1.396C64.203 1.592 64.259 1.79733 64.259 2.012H64.819C64.819 1.79733 64.8797 1.592 65.001 1.396C65.1317 1.2 65.2997 1.02733 65.505 0.877999C65.7197 0.719333 65.967 0.593333 66.247 0.499999C66.527 0.406666 66.8257 0.359999 67.143 0.359999C67.5817 0.359999 67.983 0.434666 68.347 0.584C68.7203 0.733333 69.0423 0.952666 69.313 1.242C69.5837 1.53133 69.7937 1.886 69.943 2.306C70.1017 2.71667 70.181 3.18333 70.181 3.706V7.78C70.181 8.85333 69.8263 9.684 69.117 10.272C68.4077 10.8507 67.3623 11.14 65.981 11.14C64.5997 11.14 63.5543 10.846 62.845 10.258C62.1357 9.66067 61.781 8.788 61.781 7.64C61.781 7.07067 61.865 6.576 62.033 6.156C62.201 5.736 62.4297 5.386 62.719 5.106C63.0083 4.826 63.3443 4.62067 63.727 4.49C64.1097 4.35 64.511 4.28 64.931 4.28C65.5283 4.28 66.0417 4.39667 66.471 4.63C66.9003 4.854 67.213 5.23667 67.409 5.778L67.941 5.638C67.8383 5.42333 67.7543 5.19467 67.689 4.952C67.6237 4.7 67.591 4.378 67.591 3.986V3.846C67.591 3.398 67.5303 3.06667 67.409 2.852C67.2877 2.63733 67.031 2.53 66.639 2.53C66.2843 2.53 66.051 2.62333 65.939 2.81C65.827 2.99667 65.771 3.23 65.771 3.51V3.776H63.307V3.51C63.307 3.23 63.251 2.99667 63.139 2.81C63.027 2.62333 62.7937 2.53 62.439 2.53H61.781V0.359999ZM64.371 7.64C64.371 8.116 64.5017 8.45667 64.763 8.662C65.0337 8.86733 65.4397 8.97 65.981 8.97C67.0543 8.97 67.591 8.57333 67.591 7.78V6.8C67.3763 6.65067 67.1337 6.534 66.863 6.45C66.6017 6.35667 66.3077 6.31 65.981 6.31C65.4397 6.31 65.0337 6.41267 64.763 6.618C64.5017 6.82333 64.371 7.164 64.371 7.64ZM74.305 4H71.715V3.79C71.715 2.68867 72.0603 1.844 72.751 1.256C73.4417 0.658666 74.4263 0.359999 75.705 0.359999C76.9837 0.359999 77.9683 0.658666 78.659 1.256C79.3497 1.844 79.695 2.68867 79.695 3.79V7.71C79.695 8.81133 79.3403 9.66067 78.631 10.258C77.9217 10.846 76.8763 11.14 75.495 11.14C74.1137 11.14 73.0683 10.846 72.359 10.258C71.6497 9.66067 71.295 8.81133 71.295 7.71C71.295 7.47667 71.3043 7.29 71.323 7.15C71.351 7.01 71.3977 6.84667 71.463 6.66H73.983C73.9363 6.86533 73.9083 7.04733 73.899 7.206C73.8897 7.36467 73.885 7.486 73.885 7.57C73.885 8.06467 74.0157 8.424 74.277 8.648C74.5477 8.86267 74.9537 8.97 75.495 8.97C76.5683 8.97 77.105 8.55 77.105 7.71V3.79C77.105 3.37 76.979 3.05733 76.727 2.852C76.4843 2.63733 76.1437 2.53 75.705 2.53C75.2663 2.53 74.921 2.63733 74.669 2.852C74.4263 3.05733 74.305 3.37 74.305 3.79V4Z" fill="#FEFEFE"/>
</svg>
